<mxfile host="Electron" agent="Mozilla/5.0 (Windows NT 10.0; Win64; x64) AppleWebKit/537.36 (KHTML, like Gecko) draw.io/26.1.1 Chrome/132.0.6834.210 Electron/34.3.3 Safari/537.36" version="26.1.1">
  <diagram name="Page-1" id="pAOUHIZ48FbA4AjoXg71">
    <mxGraphModel dx="8113" dy="2896" grid="1" gridSize="10" guides="1" tooltips="1" connect="1" arrows="1" fold="1" page="0" pageScale="1" pageWidth="850" pageHeight="1100" background="none" math="0" shadow="0">
      <root>
        <mxCell id="0" />
        <mxCell id="1" parent="0" />
        <mxCell id="JhdC-7hi9hZoy1IBPFO8-2" value="&lt;span style=&quot;color: rgb(0, 0, 0); font-family: Helvetica; font-size: 27px; font-style: normal; font-variant-ligatures: normal; font-variant-caps: normal; font-weight: 700; letter-spacing: normal; orphans: 2; text-align: center; text-indent: 0px; text-transform: none; widows: 2; word-spacing: 0px; -webkit-text-stroke-width: 0px; white-space: normal; background-color: rgb(251, 251, 251); text-decoration-thickness: initial; text-decoration-style: initial; text-decoration-color: initial; display: inline !important; float: none;&quot;&gt;High Level architecture&lt;/span&gt;" style="text;whiteSpace=wrap;html=1;" vertex="1" parent="1">
          <mxGeometry x="-6530" y="-1760" width="330" height="60" as="geometry" />
        </mxCell>
        <mxCell id="JhdC-7hi9hZoy1IBPFO8-3" value="" style="rounded=0;whiteSpace=wrap;html=1;strokeColor=light-dark(#635a5a, #ededed);fillColor=none;dashed=1;" vertex="1" parent="1">
          <mxGeometry x="-6510" y="-1610" width="160" height="490" as="geometry" />
        </mxCell>
        <mxCell id="JhdC-7hi9hZoy1IBPFO8-6" value="&lt;b&gt;&lt;font style=&quot;font-size: 24px;&quot;&gt;Sources&lt;/font&gt;&lt;/b&gt;" style="rounded=0;whiteSpace=wrap;html=1;strokeColor=none;fillColor=default;" vertex="1" parent="1">
          <mxGeometry x="-6490" y="-1640" width="120" height="60" as="geometry" />
        </mxCell>
        <mxCell id="JhdC-7hi9hZoy1IBPFO8-9" value="" style="rounded=0;whiteSpace=wrap;html=1;strokeColor=light-dark(#635a5a, #ededed);fillColor=none;dashed=1;" vertex="1" parent="1">
          <mxGeometry x="-6280" y="-1610" width="590" height="490" as="geometry" />
        </mxCell>
        <mxCell id="JhdC-7hi9hZoy1IBPFO8-10" value="&lt;b&gt;&lt;font style=&quot;font-size: 24px;&quot;&gt;DWH&lt;/font&gt;&lt;/b&gt;" style="rounded=0;whiteSpace=wrap;html=1;strokeColor=none;fillColor=default;" vertex="1" parent="1">
          <mxGeometry x="-6045" y="-1640" width="120" height="60" as="geometry" />
        </mxCell>
        <mxCell id="JhdC-7hi9hZoy1IBPFO8-11" value="" style="rounded=0;whiteSpace=wrap;html=1;strokeColor=light-dark(#635a5a, #ededed);fillColor=none;dashed=1;" vertex="1" parent="1">
          <mxGeometry x="-5640" y="-1610" width="160" height="490" as="geometry" />
        </mxCell>
        <mxCell id="JhdC-7hi9hZoy1IBPFO8-14" value="&lt;b&gt;&lt;font style=&quot;font-size: 24px;&quot;&gt;Consume&lt;/font&gt;&lt;/b&gt;" style="rounded=0;whiteSpace=wrap;html=1;strokeColor=none;fillColor=default;" vertex="1" parent="1">
          <mxGeometry x="-5620" y="-1640" width="120" height="60" as="geometry" />
        </mxCell>
        <mxCell id="JhdC-7hi9hZoy1IBPFO8-15" value="" style="rounded=0;whiteSpace=wrap;html=1;strokeColor=light-dark(#635a5a, #ededed);fillColor=light-dark(#d0afaf, #EDEDED);dashed=1;" vertex="1" parent="1">
          <mxGeometry x="-6260" y="-1540" width="120" height="410" as="geometry" />
        </mxCell>
        <mxCell id="JhdC-7hi9hZoy1IBPFO8-16" value="&lt;b&gt;&lt;font style=&quot;font-size: 16px;&quot;&gt;BRONZE&lt;/font&gt;&lt;/b&gt;" style="rounded=0;whiteSpace=wrap;html=1;strokeColor=default;fillColor=light-dark(#c49797, #ededed);gradientColor=none;" vertex="1" parent="1">
          <mxGeometry x="-6260" y="-1580" width="120" height="30" as="geometry" />
        </mxCell>
        <mxCell id="JhdC-7hi9hZoy1IBPFO8-17" value="" style="rounded=0;whiteSpace=wrap;html=1;strokeColor=light-dark(#635a5a, #ededed);fillColor=light-dark(#ebe5e5, #EDEDED);dashed=1;" vertex="1" parent="1">
          <mxGeometry x="-6040" y="-1540" width="120" height="410" as="geometry" />
        </mxCell>
        <mxCell id="JhdC-7hi9hZoy1IBPFO8-18" value="&lt;b&gt;&lt;font style=&quot;font-size: 16px;&quot;&gt;SILVER&lt;/font&gt;&lt;/b&gt;" style="rounded=0;whiteSpace=wrap;html=1;strokeColor=default;fillColor=light-dark(#ebe5e5, #ededed);gradientColor=none;" vertex="1" parent="1">
          <mxGeometry x="-6040" y="-1580" width="120" height="30" as="geometry" />
        </mxCell>
        <mxCell id="JhdC-7hi9hZoy1IBPFO8-22" value="" style="rounded=0;whiteSpace=wrap;html=1;strokeColor=light-dark(#635a5a, #ededed);fillColor=light-dark(#e4c83f, #EDEDED);dashed=1;" vertex="1" parent="1">
          <mxGeometry x="-5830" y="-1540" width="120" height="410" as="geometry" />
        </mxCell>
        <mxCell id="JhdC-7hi9hZoy1IBPFO8-23" value="&lt;b&gt;&lt;font style=&quot;font-size: 16px;&quot;&gt;GOLD&lt;/font&gt;&lt;/b&gt;" style="rounded=0;whiteSpace=wrap;html=1;strokeColor=default;fillColor=light-dark(#e1c53d, #ededed);gradientColor=none;" vertex="1" parent="1">
          <mxGeometry x="-5830" y="-1580" width="120" height="30" as="geometry" />
        </mxCell>
        <mxCell id="JhdC-7hi9hZoy1IBPFO8-24" value="" style="image;html=1;image=img/lib/clip_art/general/Full_Folder_128x128.png" vertex="1" parent="1">
          <mxGeometry x="-6471.23" y="-1520" width="80" height="80" as="geometry" />
        </mxCell>
        <mxCell id="JhdC-7hi9hZoy1IBPFO8-25" value="" style="image;aspect=fixed;html=1;points=[];align=center;fontSize=12;image=img/lib/azure2/general/File.svg;" vertex="1" parent="1">
          <mxGeometry x="-6421.23" y="-1470" width="32.46" height="40" as="geometry" />
        </mxCell>
        <mxCell id="JhdC-7hi9hZoy1IBPFO8-26" value="&lt;b&gt;&lt;font style=&quot;font-size: 14px;&quot;&gt;CRM&lt;/font&gt;&lt;/b&gt;" style="rounded=0;whiteSpace=wrap;html=1;strokeColor=none;fillColor=default;" vertex="1" parent="1">
          <mxGeometry x="-6471.23" y="-1450" width="50" height="20" as="geometry" />
        </mxCell>
        <mxCell id="JhdC-7hi9hZoy1IBPFO8-27" value="" style="image;html=1;image=img/lib/clip_art/general/Full_Folder_128x128.png" vertex="1" parent="1">
          <mxGeometry x="-6471.23" y="-1350" width="80" height="80" as="geometry" />
        </mxCell>
        <mxCell id="JhdC-7hi9hZoy1IBPFO8-28" value="" style="image;aspect=fixed;html=1;points=[];align=center;fontSize=12;image=img/lib/azure2/general/File.svg;" vertex="1" parent="1">
          <mxGeometry x="-6421.23" y="-1300" width="32.46" height="40" as="geometry" />
        </mxCell>
        <mxCell id="JhdC-7hi9hZoy1IBPFO8-29" value="&lt;b&gt;&lt;font style=&quot;font-size: 14px;&quot;&gt;ERP&lt;/font&gt;&lt;/b&gt;" style="rounded=0;whiteSpace=wrap;html=1;strokeColor=none;fillColor=default;" vertex="1" parent="1">
          <mxGeometry x="-6471.23" y="-1280" width="50" height="20" as="geometry" />
        </mxCell>
        <mxCell id="JhdC-7hi9hZoy1IBPFO8-30" value="&lt;font style=&quot;font-size: 14px;&quot;&gt;&lt;b&gt;File Type : &lt;/b&gt;CSV&lt;/font&gt;&lt;div&gt;&lt;font style=&quot;font-size: 14px;&quot;&gt;&lt;b&gt;File source: &lt;/b&gt;LOcal folder&lt;/font&gt;&lt;/div&gt;" style="rounded=0;whiteSpace=wrap;html=1;strokeColor=none;fillColor=default;" vertex="1" parent="1">
          <mxGeometry x="-6501.23" y="-1210" width="140" height="50" as="geometry" />
        </mxCell>
        <mxCell id="JhdC-7hi9hZoy1IBPFO8-32" value="" style="html=1;verticalLabelPosition=bottom;align=center;labelBackgroundColor=#ffffff;verticalAlign=top;strokeWidth=2;strokeColor=#0080F0;shadow=0;dashed=0;shape=mxgraph.ios7.icons.data;" vertex="1" parent="1">
          <mxGeometry x="-6225" y="-1520" width="50" height="69.1" as="geometry" />
        </mxCell>
        <mxCell id="JhdC-7hi9hZoy1IBPFO8-33" value="" style="html=1;verticalLabelPosition=bottom;align=center;labelBackgroundColor=#ffffff;verticalAlign=top;strokeWidth=2;strokeColor=#0080F0;shadow=0;dashed=0;shape=mxgraph.ios7.icons.data;" vertex="1" parent="1">
          <mxGeometry x="-6005" y="-1520" width="50" height="69.1" as="geometry" />
        </mxCell>
        <mxCell id="JhdC-7hi9hZoy1IBPFO8-34" value="" style="html=1;verticalLabelPosition=bottom;align=center;labelBackgroundColor=#ffffff;verticalAlign=top;strokeWidth=2;strokeColor=#0080F0;shadow=0;dashed=0;shape=mxgraph.ios7.icons.data;" vertex="1" parent="1">
          <mxGeometry x="-5795" y="-1520" width="50" height="69.1" as="geometry" />
        </mxCell>
        <mxCell id="JhdC-7hi9hZoy1IBPFO8-35" value="" style="shape=singleArrow;whiteSpace=wrap;html=1;arrowWidth=0.30666707356770834;arrowSize=0.29199951171875;fillColor=#1B41FF;" vertex="1" parent="1">
          <mxGeometry x="-6361" y="-1396" width="90" height="30" as="geometry" />
        </mxCell>
        <mxCell id="JhdC-7hi9hZoy1IBPFO8-37" value="" style="shape=singleArrow;whiteSpace=wrap;html=1;arrowWidth=0.30666707356770834;arrowSize=0.29199951171875;fillColor=light-dark(#7174d6, #ededed);" vertex="1" parent="1">
          <mxGeometry x="-5710" y="-1396" width="90" height="30" as="geometry" />
        </mxCell>
        <mxCell id="JhdC-7hi9hZoy1IBPFO8-38" value="" style="shape=singleArrow;whiteSpace=wrap;html=1;arrowWidth=0.30666707356770834;arrowSize=0.29199951171875;fillColor=#0B33FF;" vertex="1" parent="1">
          <mxGeometry x="-5920" y="-1396" width="90" height="30" as="geometry" />
        </mxCell>
        <mxCell id="JhdC-7hi9hZoy1IBPFO8-40" value="" style="shape=singleArrow;whiteSpace=wrap;html=1;arrowWidth=0.30666707356770834;arrowSize=0.29199951171875;fillColor=#233CFF;" vertex="1" parent="1">
          <mxGeometry x="-6135" y="-1396" width="90" height="30" as="geometry" />
        </mxCell>
        <mxCell id="JhdC-7hi9hZoy1IBPFO8-41" value="&lt;span style=&quot;font-size: 14px;&quot;&gt;&lt;b&gt;Raw data&lt;/b&gt;&lt;/span&gt;" style="rounded=0;whiteSpace=wrap;html=1;strokeColor=none;fillColor=none;" vertex="1" parent="1">
          <mxGeometry x="-6250.5" y="-1440" width="101" height="30" as="geometry" />
        </mxCell>
        <mxCell id="JhdC-7hi9hZoy1IBPFO8-42" value="&lt;span style=&quot;font-size: 14px;&quot;&gt;&lt;b&gt;Clean Standard data&lt;/b&gt;&lt;/span&gt;" style="rounded=0;whiteSpace=wrap;html=1;strokeColor=none;fillColor=none;" vertex="1" parent="1">
          <mxGeometry x="-6030.5" y="-1440" width="101" height="30" as="geometry" />
        </mxCell>
        <mxCell id="JhdC-7hi9hZoy1IBPFO8-43" value="&lt;span style=&quot;font-size: 14px;&quot;&gt;&lt;b&gt;Business reaqdy data&lt;/b&gt;&lt;/span&gt;" style="rounded=0;whiteSpace=wrap;html=1;strokeColor=none;fillColor=none;" vertex="1" parent="1">
          <mxGeometry x="-5820.5" y="-1440" width="101" height="30" as="geometry" />
        </mxCell>
        <mxCell id="JhdC-7hi9hZoy1IBPFO8-44" value="&lt;font style=&quot;font-size: 14px;&quot;&gt;&lt;b&gt;Object Type : Tables&lt;/b&gt;&lt;/font&gt;&lt;div&gt;&lt;font style=&quot;font-size: 14px;&quot;&gt;&lt;b&gt;Load:&amp;nbsp;&lt;/b&gt;&lt;/font&gt;&lt;/div&gt;&lt;div&gt;&lt;ul&gt;&lt;li&gt;&lt;font style=&quot;font-size: 14px;&quot;&gt;&lt;b&gt;Batch&lt;/b&gt;&lt;/font&gt;&lt;/li&gt;&lt;li&gt;&lt;font style=&quot;font-size: 14px;&quot;&gt;&lt;b&gt;Full load&lt;/b&gt;&lt;/font&gt;&lt;/li&gt;&lt;li&gt;&lt;span style=&quot;font-size: 14px;&quot;&gt;&lt;b&gt;Truncate &amp;amp; insert&lt;/b&gt;&lt;/span&gt;&lt;/li&gt;&lt;/ul&gt;&lt;span style=&quot;font-size: 14px;&quot;&gt;&lt;b&gt;No transformation&lt;/b&gt;&lt;/span&gt;&lt;/div&gt;&lt;div&gt;&lt;span style=&quot;font-size: 14px;&quot;&gt;&lt;b&gt;Data model : as - is&lt;/b&gt;&lt;/span&gt;&lt;/div&gt;" style="rounded=0;whiteSpace=wrap;html=1;strokeColor=none;fillColor=default;align=left;" vertex="1" parent="1">
          <mxGeometry x="-6255" y="-1410" width="110" height="260" as="geometry" />
        </mxCell>
        <mxCell id="JhdC-7hi9hZoy1IBPFO8-45" value="&lt;font style=&quot;font-size: 11px;&quot;&gt;&lt;b style=&quot;&quot;&gt;Object Type : Tables&lt;/b&gt;&lt;/font&gt;&lt;div&gt;&lt;font style=&quot;font-size: 11px;&quot;&gt;&lt;b&gt;Load:&amp;nbsp;&lt;/b&gt;&lt;/font&gt;&lt;/div&gt;&lt;div&gt;&lt;ul&gt;&lt;li&gt;&lt;font style=&quot;font-size: 11px;&quot;&gt;&lt;b&gt;Batch&lt;/b&gt;&lt;/font&gt;&lt;/li&gt;&lt;li&gt;&lt;font style=&quot;font-size: 11px;&quot;&gt;&lt;b&gt;Full load&lt;/b&gt;&lt;/font&gt;&lt;/li&gt;&lt;li&gt;&lt;b&gt;&lt;font style=&quot;font-size: 11px;&quot;&gt;Truncate &amp;amp; insert&lt;/font&gt;&lt;/b&gt;&lt;/li&gt;&lt;/ul&gt;&lt;b&gt;&lt;font style=&quot;font-size: 11px;&quot;&gt;Transformation&lt;/font&gt;&lt;/b&gt;&lt;/div&gt;&lt;div&gt;&lt;b&gt;&lt;font style=&quot;font-size: 11px;&quot;&gt;: Cleaning&lt;/font&gt;&lt;/b&gt;&lt;/div&gt;&lt;div&gt;&lt;b&gt;&lt;font style=&quot;font-size: 11px;&quot;&gt;standardization&lt;/font&gt;&lt;/b&gt;&lt;/div&gt;&lt;div&gt;&lt;b&gt;&lt;font style=&quot;font-size: 11px;&quot;&gt;normalization&lt;/font&gt;&lt;/b&gt;&lt;/div&gt;&lt;div&gt;&lt;b&gt;&lt;font style=&quot;font-size: 11px;&quot;&gt;derived columns&lt;/font&gt;&lt;/b&gt;&lt;/div&gt;&lt;div&gt;&lt;b&gt;&lt;font style=&quot;font-size: 11px;&quot;&gt;enrichment data&lt;/font&gt;&lt;/b&gt;&lt;/div&gt;&lt;div&gt;&lt;b&gt;&lt;font style=&quot;font-size: 11px;&quot;&gt;&lt;br&gt;&lt;/font&gt;&lt;/b&gt;&lt;/div&gt;&lt;div&gt;&lt;b style=&quot;&quot;&gt;&lt;font style=&quot;font-size: 11px;&quot;&gt;Data model : as - is&lt;/font&gt;&lt;/b&gt;&lt;/div&gt;" style="rounded=0;whiteSpace=wrap;html=1;strokeColor=none;fillColor=default;align=left;" vertex="1" parent="1">
          <mxGeometry x="-6035" y="-1400" width="110" height="260" as="geometry" />
        </mxCell>
        <mxCell id="JhdC-7hi9hZoy1IBPFO8-46" value="&lt;font style=&quot;font-size: 11px;&quot;&gt;&lt;b style=&quot;&quot;&gt;Object Type : Views&lt;/b&gt;&lt;/font&gt;&lt;div&gt;&lt;font style=&quot;font-size: 11px;&quot;&gt;&lt;b&gt;Load: NO load&lt;/b&gt;&lt;/font&gt;&lt;/div&gt;&lt;div&gt;&lt;font style=&quot;font-size: 11px;&quot;&gt;&lt;b&gt;&lt;br&gt;&lt;/b&gt;&lt;/font&gt;&lt;/div&gt;&lt;div&gt;&lt;b&gt;&lt;font style=&quot;font-size: 11px;&quot;&gt;Transformation&lt;/font&gt;&lt;/b&gt;&lt;/div&gt;&lt;div&gt;&lt;b&gt;&lt;font style=&quot;font-size: 11px;&quot;&gt;: Data Integration&lt;/font&gt;&lt;/b&gt;&lt;/div&gt;&lt;div&gt;&lt;span style=&quot;font-size: 11px;&quot;&gt;&lt;b&gt;data aggregation&lt;/b&gt;&lt;/span&gt;&lt;/div&gt;&lt;div&gt;&lt;span style=&quot;font-size: 11px;&quot;&gt;&lt;b&gt;Business logic &amp;amp; rules&lt;/b&gt;&lt;/span&gt;&lt;/div&gt;&lt;div&gt;&lt;b style=&quot;&quot;&gt;&lt;font style=&quot;font-size: 11px;&quot;&gt;Data model : star schema&lt;/font&gt;&lt;/b&gt;&lt;/div&gt;&lt;div&gt;&lt;b style=&quot;&quot;&gt;&lt;font style=&quot;font-size: 11px;&quot;&gt;Aggregated objects&lt;/font&gt;&lt;/b&gt;&lt;/div&gt;&lt;div&gt;&lt;b style=&quot;&quot;&gt;&lt;font style=&quot;font-size: 11px;&quot;&gt;flat tables&lt;/font&gt;&lt;/b&gt;&lt;/div&gt;" style="rounded=0;whiteSpace=wrap;html=1;strokeColor=none;fillColor=default;align=left;" vertex="1" parent="1">
          <mxGeometry x="-5825" y="-1400" width="110" height="260" as="geometry" />
        </mxCell>
        <mxCell id="JhdC-7hi9hZoy1IBPFO8-47" value="" style="image;aspect=fixed;html=1;points=[];align=center;fontSize=12;image=img/lib/azure2/power_platform/PowerBI.svg;" vertex="1" parent="1">
          <mxGeometry x="-5616" y="-1540" width="36" height="48" as="geometry" />
        </mxCell>
        <mxCell id="JhdC-7hi9hZoy1IBPFO8-48" value="&lt;b&gt;&lt;font style=&quot;font-size: 14px;&quot;&gt;BI &amp;amp; Reporting&lt;/font&gt;&lt;/b&gt;" style="rounded=0;whiteSpace=wrap;html=1;strokeColor=none;fillColor=default;" vertex="1" parent="1">
          <mxGeometry x="-5610" y="-1480" width="100" height="20" as="geometry" />
        </mxCell>
        <mxCell id="JhdC-7hi9hZoy1IBPFO8-50" value="&lt;b&gt;&lt;font style=&quot;font-size: 14px;&quot;&gt;AD-HOC&lt;/font&gt;&lt;/b&gt;&lt;div&gt;&lt;b&gt;&lt;font style=&quot;font-size: 14px;&quot;&gt;SQL Queries&lt;/font&gt;&lt;/b&gt;&lt;/div&gt;" style="rounded=0;whiteSpace=wrap;html=1;strokeColor=none;fillColor=default;" vertex="1" parent="1">
          <mxGeometry x="-5610" y="-1350" width="100" height="30" as="geometry" />
        </mxCell>
        <mxCell id="JhdC-7hi9hZoy1IBPFO8-51" value="&lt;span style=&quot;font-size: 14px;&quot;&gt;&lt;b&gt;Machine Learning&lt;/b&gt;&lt;/span&gt;" style="rounded=0;whiteSpace=wrap;html=1;strokeColor=none;fillColor=default;" vertex="1" parent="1">
          <mxGeometry x="-5610" y="-1200" width="100" height="30" as="geometry" />
        </mxCell>
        <mxCell id="JhdC-7hi9hZoy1IBPFO8-52" value="" style="shape=image;verticalLabelPosition=bottom;labelBackgroundColor=default;verticalAlign=top;aspect=fixed;imageAspect=0;image=data:image/png,iVBORw0KGgoAAAANSUhEUgAAAgAAAAIACAYAAAD0eNT6AAAABHNCSVQICAgIfAhkiAAAAAlwSFlzAAAOxAAADsQBlSsOGwAAABl0RVh0U29mdHdhcmUAd3d3Lmlua3NjYXBlLm9yZ5vuPBoAACAASURBVHic7N13fFXl/Qfwz/fcm4QkQCABB26sspSNo1O0jtbWaltwVQggGUAYDlYSPZWEpRIIKwkroK0KttrhD1dFW+uAyFKWA3Ahe2ffe76/PwIWNGTd55znnHu/79fLV18lyff5QJL7fO95znkeQAghhBBCCCGEEEIIIYQQQgghhBBCCCGEEEIIIYQQQgghhBBCCCGEEEIIIYQQQgghhBBCCCGEEEIIIYQQQgghhBBCCCGEEEIIIYQQQgghhBBCCCGEEEIIIYQQQgghhBBCCCGEEEIIIYQQQgghhBBCCCGEEEIIIYRwL9IdQAihFpumv7JtzMVBog5koQOBOgC4iBkJRIhnIB5Aa9T8LwCUAjhEQCkzSolwBKCdDOtjhrHVZ2FbzDkX76T+/YPa/lJCCOWkARDC4w4WTk2ICeCnxHQ9gOsAdAYQrXiYKhA2weI32cCquGDcWzRy5FHFYwghHCQNgBAedHzu9O4G810AXQ9wTwA+hyMEAXwApjcsHz3TfNjDGx0eXwgRImkAhPCI0tnT2hGoH4gHAOipO8+pGLwZTCsM8i2JHfHQ57rzCCHqJw2AEC53fO70W3zMoxn4OZx/p99YQQJeCzLPbJ4x/hXdYYQQZyYNgBAuxMxUNm/ar4gpC8BVuvM00QYintGsbfs/yQ2EQriPNABCuAibplHRNvZui3kigTrrzqMCAZuYKDd22MPPEhHrziOEqCENgBAucTx/ajfDoHkAfqg7i01KmKxh8cMnrNEdRAghDYAQ2vHjj8eXx1rZAB4E4Nedx2YBAPNirdhseYxQCL2kARBCo7K5034LC3NAOFd3FoftYsbw+IxxL+oOIkSkkgZACA04Pz+m3CifDmCk7iw6EVDUzIodSSNHVurOIkSkkQZACIeVz3niIkbgOYCu1p3FJdYaZN3ZbPiET3UHESKSGLoDCBFJymZP72chsFEm/9P0ZDZKymZP/53uIEJEEmkAhHBI2ZxpI0H8LIFa6s7iNgwkgHhF2ZxpD+vOIkSkkAZACJsxM5XOnmYCmAX5nasLAZheNmfaLGaW5UkhbCa/ZELYiJcv91Xs3VHAwP26s3gJMy+Li259P6WmVuvOIkS4kgZACJuwafrL28auAON23Vm8iV+I3V/Rn0wzoDuJEOFILkcKYQNmprI2zQpl8g8F3VHeNm6JLAcIYQ+3nywmhCeNaxs3nUAjdOcIA10Dq9+JyV352r90BxEi3EhnLYRiZXOnjQBjtu4c4YUfjBsxfobuFEKEE2kAhFCobPb0fiB+DvK7pZoFGL+PG/HwC7qDCBEu5EVKCEUq8qdfygZ/wECC7ixh6rBhWL2aDZuwXXcQIcKB3AQohAKcnx9jGbxcJn9btbIs4znOz4/RHUSIcCANgBAKlFP5DAA9deeIAL3LfWXTdIcQIhzIEoAQISqbO+23YPxFd44Iwsy4PT5j3N91BxHCy6QBECIEnJ/fstwo3wKgne4sEYXxTUU0d0pMHX9EdxQhvEqWAIQIQblRPgky+TuPcG6zasrWHUMIL5MrAEI00fHZU680iNYC8OvOEqEClsW9m48cv0F3ECG8SK4ACNEEbJqGQVQImfx18hsGzZGtgoVoGmkAhGiCiraxdwO4VncOgR+Xz53WT3cIIbxIGgAhGomZCRbG684hahDoETZNeS0TopHkl0aIRiqf8/hvmXCF7hyiBgNdypJif6U7hxBeIw2AEI1FLO/+XYYImbozCOE10gAI0QjH506/BUBv3TnE91xVMWfajbpDCOEl0gAI0Qg+5tG6M4jaMWGM7gxCeIk8PiNEA5XOntaOCF8A8OnOImoVtIjObz587G7dQYTwArkCIEQDEeFeyOTvZj4DuFt3CCG8QhoAIRruD7oDiPrwfboTCOEV0gAI0QCl+VN6AOiqO4eoB6PH8dlTr9QdQwgvkAZAiAYg8vXXnUE0DBHkeyVEA0gDIERDEP9cdwTRMAS6QXcGIbxAngIQoh4HC6cmNKumA5AbAL0iEGvFJtHIkUd1BxHCzeQKgBD1iKmin0Emfy/xl/nLfqI7hBBuJw2AEPUgQl/dGUTjkEXyPROiHtIACFG/63QHEI0mDYAQ9ZAGQIg68PLlPgCddOcQjdblxPdOCHEG0gAIUYfKfZ9dAiBGdw7RaDEVez6/UHcIIdxMGgAh6hAk6qA7g2iaoMHyvROiDtIACFEHsiCTiEcZ8r0Tok7SAAhRB4JcAfAqImkAhKiLNABC1O0i3QFEExFfrDuCEG4mDYAQdWBGgu4MommY0VJ3BiHcTBoAIepAQHPdGUSTtdAdQAg3kwZAiDowySTiYfK9E6IO0gAIUTeZRLxLvndC1EEaACHqJksA3iUNgBB1kAZAiLrJkdneJd87IeogDYAQdSvVHUA02THdAYRwM2kAhKgTSwPgXdIACFEHaQCEqBNJA+BRJA2AEHWSBkCIuh3XHUA0DUsDIESdpAEQog5E2KM7g2gaAo7qziCEm0kDIEQdmGm77gyiiQg7dUcQws2kARCiLsQ7dEcQTcOMbbozCOFmft0B3MhctcrfsuVZF/uZOjCoAxgdiHERAwkgxAOIB9D6xP/6UHOpsQJAOQjHYOFLGPQFwfoCTF9YBm06fPSbzWbfvgGNfy3RFGxsByzdKUQTMLM0AELUQRoAAIUlnyVUWlU/tYiuJ+A6gDvDQjSf8jlc95Yirf/3iQAI3cAMPrEPCVmM1s3PKZ+1ZstGEH1AFt6B3/fqyJ6X7VP/txEqWQY+M2T+9yQfGx/rziCEm0XsTll5qzd1J/LdReDrAfREzTt5J1kAPgDTywbj7xlXdyxxeHzRAFxYGFVeffgIgFjdWUSjVMWedUkc9e8f1B1ECLeKqAZg9tqt7awA+hHxAK6Z9N1kG4BnDYuWZlzdUdadXSJ9YHav8V1j/9E2xneu7iyiEQjr4oaPc9vvuBCuEhENwKzVW28h8Ggm/BzOv9NvLAvAqwR+cmSfzq/rDhOJhg3KvICZ7mFgCIDLfn1BDPqeHa07lmicJ+NGjHtIdwgh3Cxs7wFgZpq9ZuuvmDgL4Ku4/i9xCwPALQy6ZVbJlg3MPOPw8T1/lhsI7TU62WxVzsHbCHyfxbgBpzTHnx8PAmdrDCcajQ1epTuDEG4XdlcATGYjcc22u9ngiWB01p1Hka0MGje6T8e/6w4STvr16+dr06JDX7YwAMDvAMTV9nktoghm13gQhd2vS7gKxFqxSTRypGwEJEQdwuoVLf/9bd3YsOYB+KHuLLZgvAfgwVFXdXpHdxQvSx+Y3YsNDADzXQDOasjXjOkUjwviZdsMj3g3bsS48HwNEEKhsFgCKCz5LKHcqnqMyRoO96/xNx3hGgBvzyrZOt8fGxw3vEsX2ae+gU6u61ugwQy+HI1cE9p4uBoXxMfYE04oxYQ3dGcQwgs8fwUgf/WW3zJhDoBIu0v7cwYPHd2n82u6g7jVqev6oNPX9RurbYyBCVfGK0wn7GIxd22eMf5D3TmEcDvPNgD5n3wSw4cDTwIYrjuLRgxwYcvjsWMG9b2kQncYN2joun5TjOsSj7NjZRnA5dbHjRjXQ3cIIbzAk0sAc9Zuvih4OPAcgKt1Z9GMAEo72rzi6rw1H/9+TJ/LI/bgmtQB2dfC4HsJuIstJNkxxtqDAfziPHkc0N34Kd0JhPAKz10BmFmytR8xLwTQUncWlzlExPeN7N35Jd1BnHLquj6BL7d7vBZRhEe6xsMnTwO4VdAiOr/58LG7dQcRwgs89UqWX7J1JDPnQU4xPBMGY+yoqzo9oTuIXVJSxiVQZfRvVKzrN0Xypc3QtXWUk0OKBiLCytjh436pO4cQXuGJJQBmpvySrY8y86O6s7gcgfD4zNVbLhjVp+NoIvLQ/kdndtq6fhV+B2Jl6/qN9e6+amkAXIoYebozCOElrr8CYK5a5W/V4pwFxEjWncVTGEvP3dlxSP/+5NnDUIYPzO4SIL6PgEFo4PP6diMiPNwlFuc0C9+nTT1qddyIcZF+T5AQjeLqKwDmqlX+xObnrmDm23Vn8RzCwG8u2WaYzMkmkWcOtD11XT8IvtxtHSoz47Wvq3HfpdIAuAkT5+jOIITXuO319Vs1l/23LARosO4s3saLR/budL+blwN0r+s3FgF4qHMczo2TJsAlNsQOH9vDzT/jQriRa68AzCrZMo1k8leABueXbD0C4AHdSU7lpnX9xmKg/N19gfW/vch3re4sAgBTrkz+QjSeK99pzVyzZQQBs3XnCC88YlSfznN1p3Djun4DWQDeJaZlFO/789y5j5aWz52+GkBv3cEiGuOt2BFj+0oDIETjua4BOPGc/3NwYTaPC4CtW0Zd1eVfTg98cl2fayb9Dk6PHxraTOBlBP/SecXmac+Xl86e1psI7yGcz59wt4BlGL2aD3t4o+4gQniRqybZ/JJPLmUOfAAgQXeWMHUQQb5m1DWdP7F7IK+t63/HLhA9jyCKC5ZNWlfXJ5bNmT4H4Ejejlofoulxw8eO0x1DCK9yzYty/iefxOBw4B0GeurOEtYIGyjBf/XIyy6rVF3azn34HVAO0D8Z1lPnXhy10jTNQEO+iPPzW5Yb5VsAtLM5nzjdV7FU3omGm3IiphBN5JqbAPlIcAZk8rcfoxsfCeQAeFhVyVPX9dny7rr+vHmNn0xo5MijZXOnZYDxFxvyidoxG5xGw2TyFyIUrrgCcOJIX3kBdY5lGHRjRq+OTT43/f77zfOjAoF7vbyuHwxYy4qenvyNiorlc6fNZ0aailqiHkRPxA0fq6yBFSJSab8CkP/eJy2ZAnN054gwhmXx0vz3Puky8prLjjb0i05b1w8EbmCXNJANtAtEz1sILi1aMnmt6uLN4srHlJfGXgOgu+ra4n/2VFhH/vt55STdOYQIB9pfwGeu3jKLCCN154hQM0b16fRgXZ9w6ro+Ab9lIN6pcAo0aV2/qSrnTusUZKyBt/6NPKMsyHhyUxkOVQVfqUDU7cXFZoXuTEJ4mdYGYHbJlistxlq44EpEhAqwQb1G9+r4vceoTlnXTwZwtvPRmizkdf1QlM15/A7Aeh5yYqVSDGDxp+XYdPhkD8fSBAgRIm0NgMlsJJZsfZsB2U1NJ6b/jOzT4WdExPffb57vCwR+d2KTnm66ozWO+nX9piqbO30MmGfozBBuXviyEv/ZU/WdP5UmQIhQaGsA8ldvvZeJn9Y1vvif/eu35O97e21nrz6vb9e6fijK5kybBcjSlgqv7KrCK7vO9NSqNAFCNJWWF/uag362bgRwhY7xxekq9x/CjuUrweyJ3VQdXddvKl6+3Fe+b8efwLhTdxYve29fNZZ/Xt/cLk2AEE2hpQGYuWbL7wh4XsfYonZfrnwLx7d/pTvGmWhd128qXr7cV7535zKA79GdxYs2HKrGU9srYTWoMZUmQIjG0tIAzFqzpQRALx1ji9q58yoAbQZ4hc/HS+Yuyv1cd5qm4OXLfWV7ty8kULLuLF6yen81lu+sgNWor5ImQIjGcLwBmLV66y0gXun0uKJ+X/ztXyj9anf9n2gv167rNxWbplHRJm4Og9N1Z/GCV3ZV4pVd373hr6GkCRCioRxvAPJXb3mZCTc7Pa6o37FPP8dXr7ytY2hPrOuHIuNes+XV5xk7b78wprU8H1g7ZsY/vqrCm9+727/RlaQJEKIBHH3+fvbare2sIP/cyTFFw7W49EL442MRKC13YjhPrus3VbU/MPXtvWi9v9LCgPbN0MznpYct7FcWZDyzo+KU5/xDQTc3Q/WLycmmNAFC1MHRV6H8NVsfZvB0J8cUjbPv/Y3YX/KhjSPUrOsD/uKCYnOnjQO5RuqA7GvJ4LdxYnOgs2MNDGgfi3Nj5VoAAHxdZpUu/rQ8/lBV41b86ydXAoSoi6MNwKw1WzYA6OrkmKJxKg8dwfY//1N12V0gep4sLJu/dNIHqou7WUZGRkz18YR1YHQ69c+jDODmdjHoe060pzZeUIwBzF76UXnuhvLASyD0tmEIaQKEOAPH3oLkr9nUAzL5u15M6wREt2qpolQ5QCsYfNs5F/svKlgyaVSkTf4AUHUs4Y/fnfwBoNoC/vlVJYo+LsMR5e98PeFLNvjXcSPGjUovMPc2I/+NYJSoH+bb5YBm6msL4W2OvfmYtXrLFBDGOzWeaLq9767DgbWbm/Kl367rV/oqn1m8ePoxxdE8JXVwdjeyeA2AqLo+r5mPcOt5Mbi2rR8Ghf31gGoAM2Op/DEafvp9H6OTzVYVHHhNrgQI4QzHXm1mrtmyhmDHL7ZQrXzPAex8/uVGfEXkrevXxzRN/+6dgfcB9Gzo17SL8+H3F8bg4uY+G5Np9e+gzxjeIv3hj870CdIECOEcRxqAwpLPEiq46gCAsH1lCyfMjE+L/4pAWZ2vk9+AaEUkrus3RNrArEwQchr7dUSErq38uPm8KJzTLGx+XTaCKSd2xMPPE1G9O01JEyCEMxxpAGau2Xobgf/mxFhCjTNsDVwB0D/C+Xl9FdIHZ3VgC+sBNHndmQD0SPTjlnYxgTbNDK8el72aGblxI8b+oyET/6mkCRDCfk41AHkEHu3EWEKNA2s3Y++76wBZ128U0zSNPTsCbzHhxyrq+ci4fVrPuAqDaASAX8LBG3ebKEiEV4mR12zEuNdCKSRNgBD2cqQBmLVm6zqAuzsxllCjfM/Bsp3Pr3xc1vUbJzU5K4OAfBW1mPF04dKc+07+/4p5U9oHg0YyEe4EcLmKMRRaD/BTHBV8Jj418xtVRaUJEMI+tjcAy5ez75tLtpYCiLF7LKFUxaE4K8Hs0iXUfVkjRsoA80LDCHwEoEXIxRj7Yfm7FDxl7q3tw6X5U3qQYdxJwC+55lhtpx8fCIBRwgb+xRY/1zxjvG27R0kTIIQ9bH/RmPHBph/4LOMTu8cR6hmErhm9O9m5LWBYSU/OWsnALWqq0d0FxZOebchnHpv/+Fm+APclQl8GegN8BdQ33FUAPgLzW0zGG3Gx/BYNGefYcpA0AUKoZ3sDkF+y+VZmUr61nHAC3T6qT0e5ebMB0gdlDmSmYhW1GPRSYfGkXzX5603Tf/zs+I4+i68ki9uD6DwGXwDgfAAtATRHzd4ECQACAEoBHAJwHEApAUcB2smEbWxZW31sfBxzzsU7qX//YOh/u6aTJkAItWxvAGaVbHkAjCftHkeoR+AxI/t0nqk7h9ulpJhtjKrAZgBtFZQ7GvD7uyxcaH7vEQwhTYAQKtl/RzGjg+1jCFtYTJfozuAFRlVwHtRM/iCmh2XyP7OZxeZh2TZYCDVsbwCIcZHdYwh7EOFS3RncLm1Q1q8A7qeo3Fvzl05aoKhW2JImQAg1bG8AuGadUXjTWboDuFlKyrgEMAoUlSs3fP77UXNCnqiHNAFChM7+JQBCc9vHEDZh+d7VwVcV9SSA81TUYuJH5i0yP1VRK1JIEyBEaJzYVSz0Z6KFFgRDGoAzGDbgkb4MDFZSjLDu3Iui5GbLJpAmQIimkwZAnBGD43VncKOUFDPOMqwFUPEUDSOAIA2RcxWaTpoAIZrGiQZA3kV6l3zvamFUBnIANTdIkkGTC5ZNWqeiViSTJkCIxnP7wSJCL/n5+I60AZlXgTBSTTXaWs6+KWpqCWkChGgcJ17gjzswhrCHbIhyin79zGgQLQLgU1DOAuN+2XRGLWkChGg4JxoAOT7Wu2RyOkVSfGAiCFeoqMWg/IKlk/6ropY4nTQBQjSMNACiLmW6A7jFsPuyOgEYr6jc5744X7aiWqIW0gQIUT8ntgKWJQCPYqDWo2gjjWmahuXDQig6Yc9gpMybZ8rvhc2kCRCibvZvBQwcsXsMYRfepzuBG+zeERgD4IdqqvHieUtzXlVTS9RHmgAhzsz2BsAi7LR7DGEToj26I+iWlmxeDMBUVG43VQUfUlRLNJA0AULUzv4rAISP7R5D2IPA23Vn0IyA6iJV21kzMHz+n6ceUlFLNI40AUJ8nwNLALzN7jGEPdiK7OYtLTnrfoBuVFKM8Xxhcc5fldQSTSJNgBCns70BCJA0AF7FBj7RnUGXlD9MPBfANEXljoB5tKJaIgTSBAjxP7Y3AOd/1nkHgEq7xxHKVXNViy26Q+hiRPnmAmitphqNLliW+7WaWiJU0gQIUcP2BqB/fwoC2Gz3OEK5jx744QXlukPokDoo804w36Go3BsFxZOWKqolFJEmQAjn9np/06FxhCIMrNadQYfhAyYkEdMsReXKyPAPBcCK6gmFpAkQkc6RBoAYq5wYR6jE7+hOoEPQ8OUBOFtJMeYJ8xebkf4khatJEyAimSMNQIwR/W8AQSfGEkowE17THcJp6QMm/gLAfSpqEfD+gbKP56qoJewlTYCIVI40AKm9Lz0CYK0TYwklPhrTu/M3ukM46b77HoqHYaiasCsNpiErVqyQptcjpAkQkci5894Jrzs2lggN4yXdEZwW52s2jYFLVNQi4py5SydtUlFLOEeaABFpHGsAKGg859RYIjRHP/4ioo6pTR2QfS0B6YrKbQxG7VO1f4BwmDQBIpKQk4PNWrNlA4CuTo4pGqf66HF8+tTfqgA8R4bfDPeb2DIyMmKqj7VaC3BnBeWCbPA1hYtzbZg8hJNGJ5utKjjwGgi91VfnVyoQdXtxsVmhvrYQDefcEgAAJixzcjzReIe37QCAaAD3sRXYnDYwa96wQZkXaI5lm8DRhEcVTf4A0ZMy+YcHuRIgIoGjDYDPoGcgTwO4FrOFI1s+O/WPYkBIt5g+TUvOWpY+2GyvK5sdUgdnd2OCktP5CNhRGih/TEUt4Q7SBIhw5+gSAADkr97yMhNudnpcUb9jO7/CVy+9VdenhM3SgGma/t07A+8B6KWgHDMbNxYufexfCmoJl5HlABGuHL0CAACWD3lOjyka5tCH9R7+d3JpYIvXrwh883ngYaiZ/EHgQpn8w5dcCRDhyvErAAAwa82W1QD66Bhb1K5y/yHsWL4SzI3atdaTVwSGDphwuc/wrQcQq6Dcrmbwd5lZbB5WUEu4mFwJEOHG8SsAAACLp2gZV5zR/pKPGjv5Ax68ImCapuEzfAuhZvIHEw+TyT8yyJUAEW60NAAjr+r0IgGyUYpLVBw4hKPbvwylhGcagT07AukAfqKo3J8Ll+T+TVEt4QHSBIhwoqUBICIGkKtjbPF9e99ZBzT+3X9tXN0IpA3IPI9J2c/dAQT9YxTVEh4iTYAIF3qWAABk9O74LIA6bzkX9iv7ag9Kv1C+7b87GwEfzQOQoKIUgUYWPGXuVVFLeI80ASIcaLkJ8KSZH2ztShZ/AMCvM0ekYrawY/nLqNx/yO6htN8smJaceR9Aqjai+r+C4pxbFdUSHiY3Bgov03YFAABG9+q4kUFzdGaIZAc3bHVi8gc0XxFISTHbAPSkonJHDeI0RbWEx8mVAOFlWhsAAKisxCMgfK07R6SpPlaK/as/dHpYLY2AryowB0BbFbUYNG7ektyQ7pgU4UWaAOFVWpcATsor2Xy7wfRXuCRPuGNmfPn3N1D61W7dUWxfGkgfOPFWJuOfisq9VVCc0xeAkjsmRXiR5QDhNa6ZcGet2ZIPIEN3jkjAoJnb5j/9EizkMHC17jywqRHIuNdsWe0PbALhfAXlKo0gesx7KmeLglq24pSUqEPBZh1AxpVMdBkI5zGjHQEXgNACFhJAMAC0AlANoBSEQ2CUAigF6Ahg7QSMj4mx1TB82xIO7dxJK1bIOR71kCZAeIlrGoDCkpKoCiv+3yBcoztLmFtzKM76sdmlSxUApA/O+nm4NgJpyVlFAIaGHgsA87iCpbnTldRSbHfaQ2dFBay+IKsvQFcD6Iya5RaVqpiwiRhvkoVVHBd4K2n27KOKxwgL0gQIr3BNAwAA+SWfXMoc+ACKHtUS30WHDQs9M67uuOO7Hwm3RiB9UPbPmHkVFPyMM7Ceo/deVVRUVB1qLVUODXmgB/v49wy+DUxd4PzvchDAB8x4w4D1TOLCWRsdHt/VpAkQXuCqBgAAZq7Z8jsCVsCF2TwuAKZfj7qq48t1fVI4NAJj+o2JLY+L2wiiH4ScgBGwDOvqoiWT14ZcK0SHB49pb/kxxGK+k0CX6s7zHRtBWGYFop5pu3j6Lt1h3ECaAOF2rpxkZ63ZPBzyeKBiPGJUn85zG/rZXm4E0gdmP87ED6kYmJlyCpdOylZRq0njm6Zx6Msjt7KBdAA3wwVP7tQjCMZrIGtm0oJZr+gOo5s0AcLNXNkAAMDMNVunEnic7hzhgaaP6tOxSf+WXmsEhiVn97HA7wLwKRhvWwX83XW8wLJpGgd3Hf0dmB8D0NHp8RXZwEwzko58+adIvoFQmgDhVq5tAJiZ8ku2LgIwSHcWb+PFh3p3GmoSWaFU8UIjYJqmf/fngdVg9FAwhmUZ/LOixblvK6jVYGyaxoGvjv6BiLMAXObk2DbaRMy5rRfOfJYi9BFKaQKEG7m2AQAAc9Uqf+sW5ywH4w7dWbxJzeR/Kjc3AqkDMx8hoj+qKEzA7PnFOSNV1Gqoffc/2MsgKx/AD50c1zGMEiZrWJsFs9bojqKDNAHCbVzdAAAnmoDm5xRBrgQ0kvrJ/1SuawQYL4NwM4AYBfW+qDKqrli8ePoxBbXqdXT48KTqqqgnABoID/xOhigA4jmICT4aiY8RShMg3MQTLzYnlgMeBfCo7ixewIz8w306jrFr8j+VyxoBJRj4RWFxTp1PS6iyb+gDtxnMhSCc48R47sG7mDC8TdHMF3UncZo0AcItPNEAnDSrZEsGGDPh/juhdQkSUcbI3h3nOz1wGDUCSwuKc5LtHuRARkZLlPvzQRho91huRqDZrZtVP0yzZ1fqzuIkaQKEG3iqAQCAWe9vvgMGLYFsFnSaYGUVDm/b/shjQ+6YpDOHpxsBxv4oI9h59pIp++wcZt/gUR0Mn/FX1OzYF/EIWBuwcOdZi/I+1Z3FSdIECN08srn+qAAAIABJREFU1wAAwKySTRcSG88ycK3uLG5QsfcAvn7lbVQdPf5ZBfxXuOGX3ouNAIH7zy/OXWHnGAdSHugH5sUAmts5jgcdAWhI0oIZf9EdxEnSBAidPHkpfVTvLl8cjLOuA/EsROhjRUDNqX4H1m/Gzr+8iqqjxwHg0liqVrIBTqjmL855fX5xzjVk4EYC3tedp16Mf9o/+Y/OBvNzkMm/NgkArziQMmaM7iBOkqOEhU6evAJwqplrtt5GxPPAOE93FidVHj6K3aveR9muvd/9UDng71xQbO7UEOuMXH5F4Ags7lKwLPdrO4pzv36+AwnnzSaidDvqhx1GfuLCvNGRtGeAXAkQOni+AQCAwpKSuAqOHwtgAtSfguYuzDi4cRv2vb8BVnXgDJ+D5wuW5vRzNljDuLMR4AkFxblTbancz4w+2PrIM2D81o76YYuwJLFdQgqZ5hl+yMOPNAHCaWHRAJw0u2TLlZZFc0H8E91Z7HD886+x5511qDp4pN7PdfJRtqZwWSOg9Bjik9g0/Qe/PrIckI2smuiFxPMS+ksToIo0AeJ0YdUAACf2DFizrR+IMwF01Z1HhYoDh7D3v2tR+uXuxnzZJ1Etjlw52+WPV4VrI1Bz2f/8ZUS4R1G2iMSEp5OK8gbIcoAq0gSI/wm7BuBU+Ws2/5yZJoFwje4sTVGx7xAObtyCI9t2Atz41z8mfrhwSe4T6pOpF26NwIH7H1gA4vsV54pIzJjaZmHeBN05nCRNgHBCWDcAJ+WXbLnJYh5NoJug5pQ4O1VX7D3wxd53119a+lWj3vHX5pjf8Hecs9j0zPns4dAIHBz6wDgG23JPQeSiB5MWzJihO4WTpAkQdouIBuCkuas3nVNNdDfBGABwd915vmMbCMV+yyreOmtFWXVUYCuAc0MtyoynC5fm3Kcgn6O82gjsHzrmDgKeh0cfsXUxi4Hft1mQ94LuIE6SJkDYKaIagFPNWrP5CmbcaRDdwEAfAH6HIzAB60D0QsAKvvDAVV02nfrB9EFZg5ixWMU4AK4vKM55U0Etx3mpETgwdEwX1Ox5EO94sshw2BdEr1aL85TdqOkF0gQIu0RsA3CqaW9vbRHbzPopM10P4GcAroCaU+VOVQngIxC/TRb9G37/f0b2vKyuLWcpbVDWf8Gh73bIwKZzL/Z3Nz16N3XKoOyrDeZ34J531d9rBHYkm81aRh15D0A3vdHCHKMkMTbwYzk7QCVpAiKVNAC1WL6cfV9f8slFBluXE1kdGegA0MUAWqJmF7fmAFqd+N8oAIcBBAEcBXAIwC4wf0WGsQuMrUT00YFjuz41+/Zt1AScMmhiT4ON1VBw3wIDIwuLc2aHWsdpGRkZMVXHEj4goIvuLLX4thHI8R0eC1Cq7kARYlbSgrzRukM4TZoAoZo0AC6XlpxVAEDFxHLUgL/DvGIz5DsLnZQ6MHsSEWfpzlGXTkYw8AdfhdNLSJGMLdDtbRfM+LvuIE6LhCaAV5l+tPJdAvJ1AKEjgMvBuAg1B8DFn/jv5BswBlCKmjdepQCVAnwEwE4AH4OxFf7gNmzpsJP69w9q+Qu5mDQALjdkiJkYFQhsA6FNqLUIWDS/OMczj6alD5jYlQ2jBDVXWVwphhij/BVIgKU7SqT5hii6U2LRtPp3xQoz4dYE8DqzFdDsZyDrejCuA6ET1P/OVwHYBNCboOAqlAfeomvMo4rH8BxpADwgbVBWOhjzFJSyCPyj+cW57ymoZat+/fr5kuI6vGfPi5w6t/mqcLVRrTtGZGI8mbQwzxWHXznN600Ab8jtCaY7AdwAoDucfzw7COADAG/Ax8/QlZkbHR7fFaQB8ADTNI3dOwPvArhKQbkPzrnYf5Vpmq5+y5o2MHMsiKbpzlGXCyiIVH+F/BLpEyAr2CNxUf5HuoPo4LUmgNdOawdfoB+YBgLooaquIpvBvALMS6hn1ue6wzhFXrs8InVA9rVk8H+h5nuWUlCcs0BBHVukJmddRsAGALG6s9Tlfl8FLjFkWVEvfjtxwcyfRtJWwafyQhPAG6bcAuYxqHm37/aN2IIAXgN4JnXPfEV3GLtJA+AhacmZSwBKVlDqoM8KXj532ZQDCmqpRmnJma8BdIOieiYBv1C9j0AHI4gBPrlh2iXuTFqQt1x3CF3c2AQwM2Fj7q/ARhbUXLnUYQOIZ2DbZX8K1xsI3fJctWiIYNQ4rnnkMFSJQcN4TEEd5VKTs1NVTf4EPFdQnPPH+cU515CBG6lmkx4VdXGTUaWilFAjkyP4zczMYvNwM/LfCEaJ+up0czNUv5icbDZryGczM/G6Kfdiw5SPwMbf4d3JHwC6gWkpLv90A2+Ycjczh93PWNj9hcJdenLmaAblKShlGaBr5hVPWqOglhIjBpvtqq3AJqp5xCdUBwJ+q8vChZP3nPqHKnYWvNII4C5fRO1D43oW6DeR+FjgqXRfCeAPc7siaMwH+Ifqx3cBQgksGkY9JrjmNTNUcgXAY86+OGoOABV3rBoWeCZc1AQGrOA8RZM/AB7z3ckfAOYvznk91CsCP5W7/l3HAGfqzqCbrisBvOHxeF6XayJIa8J28gcARm8Qv8PrJ8/i98yWuuOo4JoXf9FwKYMzf2xY9G8o+P4x08DCpZOWKYgVkvTk7HsY/CclxYhXFizJ/WWDxm3kFYHLjSAGytq/O7FxU9LCJ1/THUM3J68E8LrJt4MwF0A79WO52i4whlOPiS/qDhIKaQA8Ki056xkAdykotceKru5QpHFDleEDJiQFDd9mAGeFWouA0uogrlz4VM6OxnxdQxuBgb4KXC53/rvVyqQFeQ1q/MKd3U1An04t+w2+OZAJ0FhE9DzCRYhvMZIuG+nJNUFZAvAoA/4xqDl7IFRn+6qiH1FQp8mChi8fCiZ/AABjXGMnf6BhSwOtyMIPZPJ3s5v2Dnv4HN0h3MDO5YDEFsbNt/QOfAHQOET05A8AlILS4+/wB1N+oDtJU0gD4FHzis3dBExWUYuZR6YkZ1+polZjpSZn/RLAPUqKEd49+xL//FBKnGwEGLgVwOpTP9aHAvIL424+X3VQzc9SGLCjCej+Az+y7muGdkmk6F6dsNATPi7hDVN+pztIY8nrmYftL/XnAbQ15EIEvwGeC4e7+Yx7zZYEFCgqV8kI3q9qh8PC4pz/KyjOufrUKwJdffLu3+2Y+A+6M7iJyibgum5+pNwajdjoCH/TX7sEMK/gdbkP6w7SGNIAeNiKFWYVGZyhqNxP0gZm91NUq0ECUdXTAFygohYT/li4ZMpmFbVOdfKKwPVUlZEoB/64HjF6HEwZo+VqllupaAJu6h2FO/tGg2TurwuBaDqvnzzLK3sGSAPgcfMX57wOohfUVOMnhw0zm6upVbf0Qdk/Y5CKY44BYANH7X1CUa1a3RBVfaGd9YU6zOivO4PbNLUJMIhwzw3RuOPHrj2Q041GYv3UYi4pdP0/mjQAYcAK+kZTzZnYoSGcz6WBiQoi1SkjIyOGwfOhYsmBESCmIUVFRfY+nM+41db6Qh2Gqm2kw0pjmwCDCEN+GY2fXOm3O1r4IR4A//7neJXp6n88aQDCQNEy8wsGHldRiwkPpg/O6qCi1plUH2/1GBidVNQi4PH5Syd9oKLWmewbPLYdoCavcAChz4GMjLDYqEW1hjYBRIR7bohCz8vcfnaPm9EdaB2zxM3LAdIAhImoFkemAvhEQalotni2gjq1GpY8sfuJk8FCxqCPm5WVTlJRqy7kr74REf+4k6f4qdL3E90h3KohTcAdP/bjR1e4+s2rR/AfsGGKkqe17CANQJiYPXt2JRMrugOVbkwdlPkbNbX+xzRNvwVjEQAVa2OWAdyftyKvXEGtOpFFP7Z7DKEWW9RXdwY3q6sJuKl3FG7s5frlay8Zz+smj9YdojbSAISRwiW5f2PQSypqEVN+SooZp6LWSXs+rx4PoKeKWgzMn1886T8qatWL2Ibd1ISdiCANQD1qawKuuMSH238kk79yhCd5/ZQ7dMf4LmkAwgwzjwKgYrP6C42qgLJnWtMHZ3VgJlUHtnzN0dWOHP6yKyUlDsAVTowl1LGALtyvnyxg1+PUJiCpJSH5JnnUzyYGwIt545T2uoOcShqAMFO0NOczgGYoKjfu/vuyLgm1iGmaBoJYCKBBZ4rXhxjDnDq7IIriOwOQxVCPISDmSIvzL9KdwwtmFpuHr+/S8tfDfxNTFh8rs7+NWoH5Of4kP0Z3kJOkAQhDVrQvF8DnCkrF+nwIuZnYvaN6BBNUraM/NX9pjmPnvvsYlzs1llArGCXfu4bqd3PgsXOTDKVLfqIWjN44XjpNd4yTpAEIQ0VFZhmYxqqoRcDtJ/brb5LhQzIvAlGOiixg7I+i4INKajV0SIsvc3I8oZAFWx9nDRe8PvdmMO7XnSNiEI/kDZNv0x0DkAYgbBUsnbQc4FdU1CLmWRkZGU26bBUMohBACxU52OARs5dM2aeiVsNRyEsgQg8GOurO4Hb8ntkSREWQx1ydRGAUcMnUBN1BpAEIY0zWAwBC3yGP6AfVx1o2+tn9tOTsZIBuDnl8AAx6qXBJ7nMqajUKkRwv61EEyD0A9YmJehIM2ebaeefCz9m6Q0gDEMYKl0zZTCBFm/pQ9vAhmQ1+Qc0YNKEtmJXsTgjgaNDvS1NUq5H4bD3jCgVkN8A68Pqcq0A0RHeOyMWjeO3UbjoTSAMQ5iqNShPALgWl4oJBmtrQT662fPNAaKNgXAB4aOFC8ytFtRpL1d9BOE/J0lP4Mp6AXPrXyQ8jOEfnVsHSAIS5xYunHwN4vKJydw0b8Ei9G6ykJmf+GoTfKxrzzYLinIWKajVFvMaxRWikATgDXjf1NwBku2Tt6MfYMNnRY9hPJQ1ABCgozn0awFsqalkGz0lJSTnjVmEpKeMSCDRfxVgAygyffygAVlSvKVzzzK5oNGkAasGrTD+IXfMoWsRjytR1FUA2OIkMDJ81AgFjHSjU7zl39lW1HQ5gZm0fNar8MwCcF9oYJ4fCI/MWmZ8qqdV00gB4VBBITB2UWWgwbQd4O9jYftwq3/rUU0+EfnS2l7WOugtgeUTSLQhdsXHKrwE4tr/J/4YWESM1OWsOAcMVlDpqBayORU9P/ubUPxw24JG+lmH9C2p+rtYcKN127YoVK4IKajXZgaFjKgFE68wgmsYCkF1d6wrOIQDbAdrO4O1g2mwAm2LI99nMYvOwsymdx+snrwXQQ3cOcZrV1H3i1U4PKlcAIohRFcjmaH9/AG1DLNXS8BtTACSf/IOUFDPOqgosgIrJnxEAU6ruyf+E4wASdYcQjVfH86+tAfQCuBcBADEYQAUCSEvOOq05MJi2w8fbAf/2sy/ETtM0LUfC24Q35N4Alsnfha7idbk3Uo/M15wcVK4ARJi05KyhAIoUlGJmvq5wae6/ASA1OTuPwKqOvPxjQXGOqahWSA4MHbMT8jy5J5UyYXJA6e62lQB/DabtbJxoDk4sLZSTb1NxsaniEC5b8YbJL4HR5J09hY2YVlKPCY5+b6QBiDCmaRp7dgbeYSD0y02EdQeOb+vTunnH3gbzfwEoOH2NtlbA18MtL6YHUkZ/CCY5DdCDDrGBJwKxzgzGCID4i9qag0pf5cc1T+PoxeumXAzi7ZDXfbcKIMp/AXUZu9upAWUJIMKYpmmlD8weDuLVCPUpEEaPxPgOw8CcCiWTPyww7i9e6o7JHwDAdFx3BNE0x52c5wh+gNqD0J6YTjy2QgAxoq3oOpcW5i82d8CJJ10M3A2Wyd/F/KiuvhtAnlMDyg9DhEpPzlrIgIpdwCqg6JhfMPIKluY8oKSWIgeGPvAywEq2MxbO+oj9eCbgiYc4KgDeBabNTNh0anOw/9imz1XdC8PrJ28EcKWKWsI266j7xJ5ODSZXACKUYQXHBQ3f7QCSQiylZvIH7zTiox5RU0sh4s+17kIgmuywd75vzb69egD8iolrHmFAAEnxHarTkjO/rG1poTGPNPKHuV0RlMnfA3rwxqlXUtfxHzoxmDQAEWrusikH0gZlm2BWdFZASNhgSp03z3Tj5fatugOIpjnCYbHPWdSZlhbifc2+t7Rwxkcag8p25hR2s6z+AKQBEPY6cHzr/MT4DkMI6K4zBwGL5y3NeVVnhjMh8MeybOpNeyJjo9MGPdK4/wh+1Eb74bOiQQg3AHDkpMCI+A0RtVuxYkWQmEZA71a7u1EVeFjj+HUKBGmb7gyiaXaHxxWAULQG0KtZNPq1boF2usOIBmL04fdMR06yjPjfkEhXsHTSf5nxJ13jMzB8/p+nHtI1fn3aHv1qBwOVunOIxjkGQqm+Q9Zc5fLzDfgM+bfwED9iohw5qEkaAIFglPUQgCPOj0wrCotz/ur8uA1HK1YEQdisO4donD2WvLSd1OEC+bfwHDLqPXVVBfnJEFi4cPIeJs5xckwGDvsNn6qdA21FjDd1ZxCNs0te2r514dnyb+E9LA2AcM65F0XNhEN3ngKAQTx6zmJzl1PjhYIsrNKdQTTOZ5aKfanCw7mJ8m/hQV14+XLbv3HSAAgAgGmaAWZjjEPDvTF/Se4yh8YKnS/63wDccDCRaIAAgJ1KNqb0vlbNCfGKduoQjopBh20X2j2INADiW4VLH/sXGM/bOQYBpWT4h0LvkweNklg07QhAa3XnEA1jkfHvIOFGYkplYBpAKwB8AKBcdzantUuSm/+8y9/B9hHsHkB4SyDKPyYqEPgFA7UepB4qC5hQuNjcbkdtOxGs1xnUR3cOUb9o5r/NX5zzem0fS79nfOtgM18XX9DobBG3J1B7gNsDuAyAI49eOemcRHmP51kWdwTwsp1DSAMgTrNwoflV2sCsKSAovymQgPcPlG6bp7quE8gwnmOLJ+jOIerHRP93po+deOT07RP/nSb9nvGtERXVHmS1B6i9RdyeLGoP4vYAXQIPnp2S1NJzkcX/XG73APLTIb6nXz8zOjE++CGBVf4AVvqYes1dOmmTwpqOOjB0zAYAXXXnEHVanbQgL/Sjrr8jIyMjJlCadB4QaI8gtWcDXWBxZxC3B9OFNacBuk/KrdHocZkro4n6MK2kHhN+aecQ8pMhvmfFCrNq2MCsDIvwiqqaRJwztzjHs5N/DX4KoMd1pxBnRkTFdtSdPXt2JYDtJ/47TUpKSpQv0O6Ck83BaUsLjA4gNLcjU0MktpQlAM8itn1JShoAUasg0zEiZqi5SlRdzqVzFNTRygpG/9nwVU8F5BZzl6owfNHPOj1oUVFRNc7QHAB1LS2gC4Bz7czWIk4u8noWo4XdQ0gDIL4nIyMjpvo4L4K6U3CimqH5AwDcd9xvI7RdPH3XgaEPvA7wzbqziFoQ/63VfPdtK33ivoMPTvx3mnruO7gYIT6pFS2v8N5F0gAIDaqPtTIB7qS47NihAyY8vWDZlI8V13VYMA8wpAFwIYPYczeY1tUc9OtnRrdpgfNrXVoAOgGIq69+lF+uAHgX294AyE+HOE3q4OxuZPEaAFGqaxPoH/OLJ92muq7TDgx9YDXA8kigmzDeTVqY90PdMZzUkEca546Kg5wD5FmV1H2irds4yRUA8S3TNP27dwYWwYbJHwAY/Ov0gRNvnb908kt21HcKg6cQ4OpDjCIOWX/UHcFpDXmkkYhXAyR3AopaSW8ovpWenDmRQbm1f1TV/YD4rAL+K4qLzQoVxXRggA6mjN4Ipit0ZxEAE9YlFeX1Ig/tLukUXj+5DECs7hyiKXg/dc9sa+cI0hkKAMDQARMuZ1D2mT9DWa94aTMOPKiqmA4EMFmYrDuHqMFMpkz+Z1SpO4BoKjpm9wjSAAiYpmn4DN9CAM4cG0LITEs2L3ZkLJu0XjjzWQbe0p1D4PW2C2b8XXcI1yIc1R1BNBFDGgBhv92fB4cB+ImDQ8aCA57eUIcANqzgCADVurNEsComI0N3CFdj7NcdQTQRSQMgbJYywLwQzM5fzib8PjU56xbHx1UocVH+RyCeqztHpCLwk22KntyqO4fLSQPgVUy2X72RBiDC+YzgHMD+DSdqQ4QZKSkptjxx4JiY4KMA79IdI+IQvqyq8J/hhlVxiq91BxBNxTvtHkEagAiWOjB7AIN/rS0AoxNVtx2lbXwFkmbPPsqE4ZCb0JxkscXJ5zz1RKnuIO5HO3QnEE1k8Dbbh7B7AOFOKSlmGyJ+QncOYnpkxGCzne4coWhTNPNFAnn+rAOvIMLUNgtnvqE7hyew9ZnuCKKJCLbvmioNQIQyqgNzAdj6jGkDtagOBqbpDhGq1nT8QQDv6c4R/mhNa5SaulN4Bvs8fgJnBGPL9vtbpAGIQGmDsn4FRn/dOU4iwr3pg7J/pjtHKKioqNpH/j8AOKI7Sxg74mPjTqo5fU80REzFFgBVumOIRqvEtg5f2D2INAARJiVlXAIszFdUrpLA6xXUIbZ4jmmant6aulXR458BNARyP4AdqsFGv1YLn5A17UagLmYVgM26c4hG+4j69w/aPYg0ABHGqPQ/AcL5SooxPxIkHgIg9B9UwhXf7Aykhx5Kr6QFM/7CzPJsumIEjExa+ORrunN4EuFN3RFEIzFWOTGMNAARJC056zoQDVFRi4H1Vsy+vKIlk9cCWKiiJgE5w5LNc1TU0qnNwplzGfD8fQ2uwTQpcUFege4YnsX4l+4IotGkARDqpKSYcWBeABWb+jMCTNaQohNrsdU+/0RFO461ZARyFNTRLmlB3gQQlujO4X1cnLhwxqO6U3haM99bkB0rvSSAyqrvnfBoB2kAIoSvKjgJRD9QUYtBU0+88wcALFpkHoSBR9TUxqD05MxrVNTSiQBObJeQAuAF3Vk8bFHiea2GyEE/oaGO444B/L7uHKKhaDVdYzpyhoM0ABEgbUDmVQxWteHOtkryfW8HtnMu8hcCWKOgvsGgOaZpev5nk0wzkHj4q34AFujO4jUMFCSel5BCpmnpzhIWyHhddwTRUJZjSzaef5EVdTNN088GFQLwKShnWQbfX1xsVtQyjsUWjYKad2u9du8MKLlXQTdasSKYuCAvFUR/1J3FO+iJpAV5w2TyV8iy/qY7gmgo33NOjSQNQJjbvTOQRUB3JcWI5hQtzj3j2lThsknvArxUyVjA1OEDJiQpqqUVAZxUNMNk8EgAMqmdWYBA45MWzHhYLvurRT0y1wNQ8ciusNda6j7esc2bpAEIYynJEzoCGK+o3OdVVJlV72cFo8YxcFjBeIkBwxdW75rbLJg5m4HfQzYLqs1+i+imxAUz5OkJuxAX644g6sF4ysnhpAEIU6ZpGgZ8CwHEKClIRurixdPrPZ+64ClzrwFWMnETkD4sObuPilpu0WZB3gtEVlcw3tWdxUU2+Nh3VduiGY48+hSxKuhpAJW6Y4gzCiDa/6yTA0oDEKZ2fx4YBeBHaqpxccGSx15p6GeffXHUHAAbFQxsWOCZUPHoooskFs36IvFIwnUAZiGyL3VbAGaVNce1ssOf/ejqiQcA/qfuHOIMCK9Sl7G7nRxSGoAwlJZsXgwLjykqt7vaF/VgY77ANM2AZbCqI3J/mDow+z4FdVyFVphVSQvyRlug2xGBZ7Yz+DPDsPomLcgbfUFeXrnuPJHDKNKdQJxBkPKcHlIagPBDjEAhCM1VFGNCxqJF5sHGft2JmwWV3M1KxNNTUsYlqKjlNm0XzPi7FYzqBMaTiIzNWiwimhuo8HdrXTjr37rDRBrqPuFVALIngPuspp4THH9UUxqAMJM6MGswATepqEWgfxQuyXm+qV9vwD8GgIoNLc72VUUr2WjIjdounn4saWHeQ1bQuhJAOD+v/bphUe/EohkjznnqiVLdYSKWoeYeHaEQWVp2QA2rtdVINyzZPMdCYDOA1grKHYHFXQqW5YZ0eTotOXM8QFNCTsMIWEQ9i4onfRhyLRdjgA4OHdMPQCaArrrzKLIRsMYmLZjV4PtIhL14/eT3AFytO4cAAGxAtwk9iMjx+4HkCkAYYQTmQs3kD4AeCHXyB4ADpVEzANoaehz4DfBchHnTSgAnLchbnrggr7sF+g2A1bozNR2tIeZ7Es9L6CGTv8vIVQD3IOTomPxrhhZhIT05sx+DlquoxcSrCpfk3gBFd6inD876OVtQc5Qr050FSycp+Xt6xYGUMTeBMRo1SzsqdnS0UxDAC2TxzMRFM/+rO4w4M14/+d8AfqI7R0QjvIWuE/pKAyCabMgQMzEqGNgM4GwF5cosRteipTmfKaj1rbRB2X8F8x0hF2J8ZcT7O82bZx5XEMtT9g57+BxfIHA3GAOgandHddYzY4WPjT+1XvTk57rDiPrxhkkdwL4NULVXiGisAHzci67MVPHIdJP4dQ0s1IkKBmZAzeQPAmcWLc1VOvkDgBX0jfYZgZsYiA+pEOF8Lg1MBDBRTTLvOGve47sB5AHIOzhk5BVs+O4E4wYQ+sD532WLCRtg4XnLF1xxVmH+Jw6PL0JE3bK38frJ0wA1J3mKRiLKoysnapv8AbkC4Hlpg7KuB+N1KPheEvD+/tJtP1qxYkVQQbTvSUvOehSAqaBUFRnoOn9xzjYFtTxv3+CxLXz+qp8y43oC/cwCriD17+qqAJQw6G0D+I/P4ncSFuU1+vFQ4S78SX4Myo6tA1Mn3VkizFeIqupEXfReyZQGwMPuu++h+HhfzEaA2isoV+Vj6jl36STbDqLIyMiIqT6W8CGAy0Kvxq8VFOcqedwx3HC/fr4jLc6/KBiFy1+qjlnZhiy0hoVmxIgGEE1AMzCiwSAAVQxUwEA1GNUwcJyBQzBwgA38ylf1a4vo06SYqh00e7ZsIxuGeOPUn8Ky3oTMB05hALdR94nad2WUb7iHpSdn5TOQoaIWMz9auDRX1e6BZ5Q6KPM3xPSiilpMfHvhklw55rQOaclZId1cVFCcI68REYA3TJkO5od154gMlEfdJzygOwUgjwF6Vnpy5jUMDFNU7sODZVFTFdXaTljOAAAgAElEQVSq04kJ+/9U1CKm/JQUM05FLSEi2rZLJwB4VXeMCLAGUZWqTmgNmTQAHpSRkRHDMBZBzSNhFluUumKFWaWgVoMYPv8oABUKSl1oVAXkXYsQIaL+/YPT/1zx9MFjHMmHU9ntMCh4J3Vx7rW2PtIAeFD18YRsgDurqEVMMwqXTXL0aNp5i8xPAZqhqNy4++/LukRRLSEi0rCBWTft2GstWPhSJQWC0gPYwAIbydQt21WnXkoD4DHpAyZ2BWOsiloE7DhulZsqajWWFe3LBaDiefFYv5+eVFBHiIiUNjD7R0z4K4CYHbst/PlfVWC5EKAYj6Ye4113v5I0AB5imqafyVgEIEpBOYaBlKc0HcpSVGSWgUlJIwPmO1KTs36ppJYQESQ9OfMaEK88dX+OdzcHsfzNSDiY0iHEudQ9c7buGLWRBsBD9uwMPAhCbxW1mHjB/MU5Wk+eq9nSl5XsEU/MszIyMmRHMyEaKHVwdjcGvQSgxXc/9uaGAJ5/yzVL1V72FLpOzNYd4kykAfCI1OSsyxh4VFG5b4zKoCvuRGWyHgAQ+tsNoh9UH2s5JvREQoS/9MFZHcjiVwAknulz/rUugJfekysBIfgrDlUN1rXPf0PIVsC1uM5c5W95fuXFADrAMjqAuAPAFwGUgJpLZfGoOXUvHjWX4w8DHAToKIDjYPqSwV8ZBu8C8CmCvg/PRuutRam9m/rbRASeD1Csgr8eCBg2/89TD6moFarCJVM2pydnz2awgudiKXv4kMxn5i7Klb3ohTiDYUPMH1jBwBtowPbh/3yvGoYB/OIqFauOEWURDlWlUV8zoDtIXaQBANCv8LWEKp/1U2ZcD+A6oKozmKIBAN82b3Xuh9L6xMfbnPiargSA+cTXGBZ240DVbQte3gSiElh4A+Rb9fehP9/TkHxpg7LSwLih8X+zWj07vzhHyUY8qlQalWa0FX0XgHYhlooLBmkqgLsVxBIi7AwblHmBFax+DaAG/679/Z1q7D9i4d6fx8CQbaEaIh/dJox28zv/kyL223l70avd2cBdNZM+94Tzx6wygI+I6P+soLX8H6m3rK3tk0YMNttVW4FNBLRSMOaBgN/qsnDh5AY1Hk5KHZg9gIiXqqhlWMb185Y9tkpFLa+TnQDFSWn3mWfBF3wL4I5N+fqul/ow5BcxiJa3jWfCIIylbhOf0B2koSLql/u2Ra+2Y+Z7qOY41St15zkN4RNmLPdZwSUvpv7y29P40pKzXwT4N0qGILpv/pJJT6uoZQNKS85aBeBnCkpttqL3dC8qKor4BUxpAAQApKSYbagq8CYBXUKp0/5cA+m/iUHzZvJj8R2HwUayGx/1q0tE9HK3LXz5FjBGw+Kfk/Pv9BuGcRkBmZbhm3Bb0asrYVhzzvvvf9swq5n8Qbxy/pIct07+AMDwWSMQMNaBQv255M6+qrbDAcxUkkwID0tJGZdgVAZWgkKb/AFg+zcWJi2rQPLN0eh0kTtfSh1HKIERvIuunKj8GHW7he1TAKZpGrctWPnb2xa8UgKmlQDdDLdO/qczQHwrmFbu6dGruLztWSEXJKA0EKDhCrLZqmDR5I+YUKiiFoP+mPKHieeqqCWEV6WkmHFGVdQ/VD0+DABHyxizX6wKbtwRXAoVT/B4FwPIh7/qR3RltucmfyAMGwDTNI3bil65d227H34IGH8B0Et3pqYKxMb6Dl3eAXt79EJ5mzZNrmOBxi58KsdVW1CeiVEVyAawT0GplobfmKKgjhCeNKbfmFiqrv4ngJ8oLs2Wxand7shOBozrQfhCcX0v+Ao1R/qOctPe/o0VVg3Arxa93G3tedf+B4SnQWr2yneDQFwcDnXohH3deqC6xff27Kgb4d1zL/YV2JNMvROPJ2YqKjcgdWDmTxXVEsIzUlJSosrj4pcTU1/FpZlBwwqX5iwCAOo+/m0gqjOY/wigUvFYbhQAkI9mvv9v787DoyrPNoDfz5nJQthUXBBcwIXVBRRc+7m0iiug1eBWSFjMArJorX6QRI9NImpdWBOSsCTQVoXWFrUKQYvaxVbQqiigftalLlRFFgmSZOY83x/BFhVCknln3jkz9++6vNorJPd7e0VynpzlPf1kwLQnbZeJVEIMAJkVqzoPrVo50/HkZQBn2e4TLY0dOuDzE0/GtmOOhRds0WXyeieEsa7retHuZlLXHsEFAvzdQJSIIzMyMzP9cOmHyIjMzMxAoOHQJRBcbjpbgNsrqou/9QuFnPyzOhlY4ELDJ0LMvOo7Lqm+ANGBMmDaZOlz+1e265jg+wFgWNXTP653vA0CTII/rvFHRgR1h3fD5wNPRf0BB+7nk9UtW1KyISa9DHJd14PKBACRDy6KgV069M6JvBWRL8jB7XtXKHCN8WDRovLqkl/s888HFr0jJ0+7DIorIeq7nzvNeA2CTAyYdp6cXPCG7TIm+XYAuGTWU2nDqlbM2X2dP+lu9gqnpmJzv/7YduxxUGev38bXvNTPffuWvPKa4pcFWGQkTFGak+O2/SYKIn+Q/OyCMgXGGk9WPFS+qLSkRSUGTvs9TprWH+INgyCmrxo37FWojMDJUwfKydN+44eNfVrLlwPApfP/cHRKRuB5IP7vbI8qEdR1PRyfDxiIUEbGfz+uCInKWL8/B+944dsBbDYQdaDTEGrRDy8iv8rNLrxXIXmmcxWYO6+mpFVbdYuIysmFT8jJ085C030IK2DijF70hSB4Cp5cKAOmDZSBU5cl4oH/G74bAIbNr80MesHXoTjddpd4EWqXgS9OPBn1B3Vp+oDIfeU1xS/bbRW5uYunb4aIayjuxrxRBacZyiKKK7lZRcUC/CwK0TWH9whOiiRABk59TgZMuwTwjoLoFAB/MdTNpPWA/C9SgkfKydMuk1OmWn1Taqz4agAYVrXip1B9FIJOtrvEGy8YxOY+fbH9yKM+34VAse0+pmzesbFcgVcNRDkQmeu6rq/+myfan7zRhTeLaKH5ZPlt1x7BcaZuIpYBhR/LyQUzZcC0HwDOCVDcDeAVAGET+a0UAuSvgBYDzgkyYFp/GTD1Xul/2yYLXazxx36OqjJsfu2dMPc63ISmwKxTP37xZr/d/b8veVlFZ0P0TzDw36sIxpQvKjFzb4EPcCvgxJafVThBBXOMBwse91I+uzoWlxH1H+4BcIL/A3XOQ9NW4Ceh6S2rJtVDsA4qz0P1j0hteEH6uzsMr+E7cf+X+zx3dbDzEfVVqpJtu4ufKPDr9M7bRi0bMcLGdG1cblbhEhH8xEDUZ+kI9p5R7W41kBX3OAAkrvzRBVmqshCmz+QqntklwaHV1e4uo7ktXX5tRQoCn/UAnF4Q9ALQC5Ae+O8r2Nuj6eVoHdC0G98OAFsBfAVIHaDbAX0fKm/BkY0QvI2Nx34gCfKz0KS4fhfAee7qYOduDctU5QrbXfxGgOvrt3WSzKVLRybCEBBO8W4NhpyhADpHGHXoLgnfBWCygVpEVuRlFVylnsyHGL+M+1enffDK6jI7B38AkEG5jQDe2f3PH2z1SAbxez1UVTofUV+lAh7820yu27Wt8+JEuO49f/7d/1ZRM3fyq07IHVN0spEsohjLzyocBpGHI39p1ncI/pGO4GVlZTw1nizi9sAwbH7tvTztHzkBrn+l+1lzbfcw4fCjU2YAWGcgKuCEdQ58cAmMaE/5YwovUMGjMH+NfF0gHL4wWS6NUZO4HACGzV9xE6LzSEuS0rxhVSt+artFpFzXDak6N5vIUsEP8rOLrjORRRQL40cXnKVh/A5AuuHodxwEh8xdPN3EnhvkI3E3AAybX5sJlVm2eyQeuW/o/JW+v5xSUfPzZ6H4jYkshT4w8QaXj5RS3MsbVTQwrPIHCDoYjv4wENALy6rdpHr8jZrE1QBwRcVTx0K1Cjw1Gw2OKBZfWbWqr+0ikXIcvUWAOgNRXRtTw6bePEgUFTnZRSfC0VXSdOe7SR+LEzx/7oLSDwznkk/EzQBwyayn0jwnsBSR3+VN+9YxDO+xYQuWt/KdwvGlbFHpv1Qx3UiY6pSc7Kl9jGQRGZabXXi8A60F0MVw9OdOGBeWL3T/aTiXfCRuBoDUjMCDAE6x3SMJ9IGm+/YlQd/YvDP4C4W8bSAq1dHAbAM5REbljHKPEmAVgK4mcxXYCk8u8uObQsmsuBgAhlU9/WNVjLfdI2koxg2vqr3Udo1ILFvmNgRUJxoJE1yQm134YyNZRAbkjSro7jiNqwEcbTh6ewAyZN7i4n8YziUfsj4AXPLLpzoBjvmtLKk5otCqzPkrDrJdJBJlNSW1AnnCRJYAM0aOvLW9iSyiSEwcPfUQBGQVIMcYjt4pIsPKqovXGM4ln7I+AAS/DhQDONx2jyTUrV7FzHV0m5zAFAAmdi07sn0g/XYDOURtNiXbPaARgZVQmL5Zt0E87+ryRcXPG84lH7M6AAyvWHWigKf+LRo3vGKlr1+rvPsmpl8YirvtxlFTexnKImqViTe4nXYhVAvFQMPRjaLILF9899OGc8nnrA0Arus6cLwKxPn7CBKc4zmY5fetgtvV1U0H9H0DUWlBJ3i/gRyiVsnJcTMaU0KPAxhsODqsolnlNSWPG86lBGDtB/8r3c68ToEzba1PTQQ47eVuZ1xtu0ckHlr20NdQ3GoiS6FD87OmXWYii6glMjPdVKex8TdoehWuSQogv2JR6cOGcylB2BkAVEUE/2tlbfoeERSf56729ZmYeTWlv4WokVOcKs7M7GzX9HarRN+Tk5OT0qVDaBlULjGdrdBb51WXVJnOpcRhZQAYNn/FlQqcYGNt2hvp1bl7/fW2W0RKVSYDqDcQdWy6hnz/7gSKb5mZmQGn/tAaKIaZT9epFdWlD5rPpURi6RKAM9XOurQvCpkGVV9vwVxRXfIORGYaCRMU5GW7PYxkEX2fdGnfuxyCaLyQ6q551aX3RCGXEkzMB4Bh81dcDGBQrNel/eo9vOqZIbZLRMppFygG8LGBqHbQkKmnC4i+JT+76H4AN0Yheua86hI3CrmUgGJ/BkAxJeZrUouoeL7/3pSVuTsEcpuRMMHVudmFFxvJItotL7toukJvMZ+sC+dVlxh5XTYlh5gOAMMW1HYD5IJYrkmtctHQqpU9bZeIVHl18a8BPGciSwQP5uTkpJjIIsrLLrwT0GjcAL2ka4+UG9F05z9Ri8T2DICnNwAIxHRNag0RyE9slzAhoHITgMaIgxR9pfGQyZE3omSXm104GYBrPFjkd117BMe4rusZz6aEFutLAAlxcElsOsrvNwMCwNya4jchUm4iS1TuuGmM281EFiWnvOyiMQI8ZDpXgdqUDluvc103ZDqbEl/MBoArKmsHADgpVutRmx03tGpFQtykmdIQKALwqYGojo3h0L0GcigJ5WUXjAS0CoDpwfqP9QgOnz17tolHXykJxWwACIteE6u1KDIiMtR2BxNm/8rdLoICE1kiuCF/dJHpndooweWNKrgSKgth/mft35yM4PDqatfEi7AoScVsABCAN//5x+W2C5hSvqikGoIXDUSJejrHdV1f75hIsTM+q3AIHHkYYvZ9Jwq8Kg2hS8vK3B0mcyn5xGQAyKxY1Rkw/oYrihoZcHn5s91ttzBEPXg3AQhHnCQ4YdMH4bzIK1Giyxtd+ENPsBxAmtFgxRtBL3xB+a/v2WI0l5JSTAaAetFzwbv//UQkGD7HdglTKhfd/QqA+UbCVEvHZ7tdjWRRQsrPLjgDHpYDMPs+CdX/88LekLmLp282mktJKzaXAETPj8k6ZIwDTag3NTYGgtOg+MJAVCdFqMRADiWg8dnTBijkKQg6GI7+FyTlwspf3m3iplYiALG7B+C8GK1Dhihwlu0OJi1Y4H4JB3eYyFJgdH52wRkmsihx5I2ddoIH5xkABxqO/rc4uHBetfu+4VxKclEfAHa/ZrZftNch407KXLo01XYJk7oeHawAsMZAlKOQOa7rWnqZFsWb8WPd4xB2agF0MRqs+CKg8qPyhSVvGc0lQgwGgE5H1PcAkFAHkiSRsmtrp+NtlzDJdV1PPZkMM9ulnrrp/dBYAznkc+NHFxzphRtXATjccPQ2gVw8t6b4TcO5RABicwmgdwzWoCgQx0m4MzcVi4tfBLDYUNw9E0ZNNfsbH/nKuHHTDvNUVgHSw3D0Ts/Ry8tril82nEv0H9EfADyHA4BPCby+tjtERTh4mwJbDSQdFHICdxnIIR/KyXEPDoYCf4T5X3K+djzn8sqFpX82nEv0LdEfAEQ5APiUpzjSdodomLfE/cyBGjlwC5CfO6YgIbZOppbLybm9s9MQWgGo6bNkDaJeZtnin682nEv0PTG4BKBHR38NigaBJOzz7of1SJkD4HUDUY54MhPm93mnODVy5K3tA/UpTwI41XB0GCojy2vu/oPhXKK9isEAIJ2jvwZFiembmuKG67ohz9EJMHND4Fm5WUUjDeRQnLs58+Z27QPpT6rgB4ajPahmzaspXmo4l2ifoj4ACIxviEGxc4jtAtG0+xrroyayRPS+nJzbOewmsMxMN3Vn+w7LYH5fE4Vg/Lya0l8ZziVqVizOAHSM/hoUJe1sF4g6T2+FwsRLVQ4LNKQa2WiI4k9mZmagS4fQEoFeZjpbRW+bt6ikwnQu0f5EfQDwoBwA/MvsXuZxaN7i0o8hWmoiS1Un5WQXnWgii+KH67pOl/a9a6AYYTpboAUVi0rvN51L1BK8BEDNSfwzAAA216U8CCDyndYEQQc6F7whMJHIpvdDZQBuMB4MebC8uvRu07lELcWtTCnpLVvmNiiciYbi/icvqyjTUBZZlp9VdB+AXOPBqnPKq4t/ajyXqBWiPgAojFxfJTt22S4QKxXVP18Fkd+ZSdMHxo93eebL5/Kyi0pV9FbzyVrdtWfKZPO5RK0T9QHAgXwV7TUoWjRpBgAA8MKBKQLURRwkOMLbGZ5qoBJZkptdcAug04wHK36zue7tca7resaziVopFhsBcQDwLdlpu0EsVS52P1TgF2bS9Nb8MYXcBdOHcrMLJwrkAfPJsrxrz+B1y5YtC5vPJmo9XgKg5nxmu0CspXTcdg+AdwxEpaqnsw3kUAzlZRdlCzDTfLKu2oXAta7rhsxnE7VNLM4AbIv+GhQVgs9tV4i12bNn16voz8ykyYW5owuGm8miaMsdXXg1oPNh/imOv9SF66+srnaT6pIaxb/onwFQeT/aa1B0CPTftjvYULGodDmAp0xkicqsnBw3w0QWRU9+duEV4uFhAAGTuQL8vcFpuGTJkvsjv7eEyLAY7AMgb0d7DYoOVeeftjvY4gSCkwHUG4g6ymkIGTqjQNGQm33HhQo8AkHQcPTrDYHgpQsX3sf7oCguRf8SgONFvsEKWSHQpB3eyha4/yeKBw3F3T5uZGFPQ1lkUF5W0dkOvN8BSDOZq5C3HQQvWrDA/dJkLpFJsdgIiAOAT3memrgZzrfCacESAB8YiGoXDEbjrnKKRM7ootMh+rQC7Q1Hv5viBM4vq3Y3Gc4lMirqA0Bap+3vwcypVIqtxvS6Thtsl7CpstLdCZXbjISpXpk/atolRrIoYvmjpp3kqD4FwOy7ShQfhcK4cM5C9xOjuURREPUBYNmIEWFA10d7HTJN31h2y1lf225hW9P72XWliSwVmTVx4kSjp5qp9W4cNbWXOs5KAAcZjv7M8TBk/pKS9wznEkVFTN4FoCrPxWIdMkdVXrLdIV6oeLcAaIw4SOS40Fedp0TeiNoqJ6vw2IATWA2gq8lcBbbCk4vLlpQk9Vkz8peYDACOg9WxWIfMcUT/artDvKhYNH29QIxs6qPAHRPGFhxtIotaZ9w494iAYBWAboajtwcgQ+YtLv6H4VyiqIrJAJAadl4AwO0v/UMDHlbZLhFP6p16F4CJ67oZ4bDcYyCHWiFvpHtoMByqVcD00xg7VXVoWXXxGsO5RFEXkwFgWe6F2wB5JRZrkRFvPJZ78ae2S8SThQvv+0pVTL3g59rxo+4431AW7ceUbPcABEMroOhrOLpBgasqakpfMJxLFBMxGQAAAKrPxGwtiogCf7DdIR5V1BQvAWDkh73n6JycnJwUE1m0bxNvcDvt0tAqKAYajm5U6NUV1SUrDOcSxUzMBgAvoI/Gai2KTNqO7Ubuek9A6kFugsLAC120X6DhkAmR59C+5OS4GY0poScgGGQ4OgzIqIrq0icM5xLFVMwGgCfHXvwagNdjtR61TXDXLhz86mtP5GYX3jN2rGv6MSnfq6wuXqeCChNZCrkr5yfTDjeRRd+WmemmBhpCvwVwjuFoFZG8edXFjxjOJYq52F0CAADo4tiuR62V/tlngKCDALenhEIfcBD4PqchVAQYeVNiJycodxvIoT3k5OSkdMkI/VaBiw1Hq0JuKl9UPN9wLpEVsR0AHOdh8GmA+KWKjM/22L2Ug8Belf/6ni0ACsykSVZuVoHp31KTVmZmZsBpOHQxBJebzhZgakV1cZnpXCJbYjoAPD52yCcAbwaMV2lbvkSwfi+7Nn8zCIRD/8wfXXRX/vX/e2Ds28WXrj2CCwT4u4EoEUdmZGZmGn0NbZKSLhm95gG4NgrZbnl1yb1RyCWyJsaXAADRwEOxXpNapv2m/T7511lV79CU4Ie52YX3JPMg4LquB5UJALyIwxQDu3TonRN5q6QmeVmFcyEyznSwQmbMqy65y3QukW0xHwCW51y4EhBumhFnUup2IH3r1pZ98u4zApoa/CCZB4HymuKXBVhkJExRmpPjHmwkKwnlZhdOhyDfdK4ACyqqi28xnUsUD4I2FhXFdBU8ZmNt2ruO//oXoNrqL9s9CIzPzS4scxpC9+6+Pp40HC98e9gJXAGgS4RRBzoNoRIAeZF2ct98M7Xz13KCeE6/L156FcEOGUjp0B4pHTPgBIOQlCBEHATSUgAReI2N0LDCC4cQ3rkLoZ1fI/R1PRq37cDMCeuvhSPvbEn31rn9+zdE2i0a8kcX3aWqt5vOFcHiw44O5gBo9V8MIj8QK6uqyrD5tesA9LeyPn1LSl0dDnnVyEaNXymQdINAbnbhRAFmGYjy4OmZ8xaXtupFTLNf2djNC+EiAGeJ6CkKnAAg1UCfPTUKsM4D1jjA82HR524e1M/6bpH52QVTFGL8sqIAjx3WI3iN67oG9nwgik92BgAAQ6tqrxPor22tT/910Po3kL7F6PE6qQaBzMzMwEHte68VYEDEYYq1XXsGT3ddd5/3FqiqzHr57bMBbzgUQwCcFPG6bfMGoMsdz/n9Taf1fllEYvqbcm520XiBzoHxn2O6MqXj9uGzZ8/eyx2xRInD2gCw+yzAagDnWutASNu+DV3WRW1/pq8UKGuH4D0zqt0W3mDgT3lZRWdD9E8w8HdKBGPKF5V8796C2Wvf6uOpd60ANyhwXKTrGPaRQn7lSKBq0qDj3432YrlZRaNEdBGM38ekz+5CyuXV1e4us7lE8cfeAABgWNXTJwHOy7B0L0LSU8Uhr7+KlB07or1SUgwCuVmFS0TwEwNRn6Uj2HtGtbvVVXUOWPvW5QL9KczvahcNKopaL4CHJp/SpzYaZwVyswt/LIpHIYZ/bghedNoFh5SVuVH/C0EUD6wOAAAwrGrlQwCm2O6RjNp/8jE6v/fPWC6Z0IPAuHHTDguGnLcAdI40S1KDc/vceM3rAG4B0DvicjYI1qsn07u93/vhESPEyAZgeaPvuAjqLQeQZiLvGwq86jSEfpgMl6yIvmF/AFiwvCO89A0AutvukkwC9fU49JWXIZ6VjRkTdhDIHV1wq6j8oq1fLyLoeNxROOSMAUjt1MFkNZveEuCuiYP6PBLJGYHcrDt+JOI9CSDdYDcAWBfwwufPXTx9s+FcorhmfQAAgKHzV14hiscQJ30Sniq6bFiPtC1f2m6yXYHyRBoEXNcNbno/9AqAE1v7tRndDsWhPzgF7Q6J9InC+CTAi4AzZdLg3q16ygEAckcVnSmitRCYnore8ULeuZW/vNv6Ew1EsRY3B9zhVStnKTDRdo+koDqn+1//9IJCSgEcb7sOEmwQ2P2baou3vA6kpuLQs09B577HQCRu/kpGiypQ2U5Sb88ddOy2lnzB+OxpAzw4fwRgesOpDwMBPWfugtIPDOcS+ULc/LTJqVibssnZ/AKAM2x3SXDr0r7qePqyW8762nVd59/vN14VR4PAlwBmpyM4w++DQF5W4TIIrt7f53XscQS6njcYwfYZsagVPwQfaxh5U07v+2Rzn5aTXXSiA12NyDda+q6PxQmeU77QjelNMETxJG4GAAC4ouKpYz0n8DIM3ERFe/UVHG/w42MveWvPD+bk5KRI/WHXiWgh4mgQ8FIbH6qsvLdFvyXGm/GjC45UlQ0KtN/bnzuBAA47ZxAO6BdvT/PFlAIo67Qj/dbR5/f83mN3udmFxwvwPIDDDa/7uUr4vIpF09cbziXylbgaAABgaOWKq0RkGeKwm8+FVXHFEzkX7fM3rjgcBDYDmOPXQSAvq7AAgpLvfjy1c0d0v+R/kN4lKV+hsDfrENarJp/R751vPpAzyj3KcUIvADja8FrbPPF+WLnobiNbXxL5WVweZIdX1U7Qph2+yBAR3LJ83EUt2jL1P4MAvCKIxMOvqL4cBDIz3dSD2ofXCbTXNx/rdOxROPyHZ8BJTbFZLR5tgcr1k0/rsyJvVEF3OHgBkGNMLiBAXdjRiysXlv7ZZC6RX8XlAAAAw+fX3hONF3wkJ5n3+I1DWv2mNA4CkRufVTjEE6wEgC4D++GQMwckw41+bRUOf73rjrcXPnYDoP0MZ38N4NJ51SXPGc4l8q34/UnUtFVwFYCxtqv4myxN67z1+mUjRrT5gX8OApEZP/qOxw8+8+ShXQaaPqYlpi9f24jP/vIKtPVvp9yXBgWurKguecpUIFEiiN8BAMB57upgp+4NSwFcabuLHynwaHrnbTdEcvDfEweB1nPffKrOuysAAA23SURBVDP1gC3h5ZKWcrHtLn6ydf27+PS5v7flFdXfFRbodeXVpctM9CJKJHE9AABNQ0DH7o2VAh1tu4uvCB7pGu4yqjJ3UKPp6HgdBFIagw/O/pW73XaZbyxdqoFNPd/6lUKvsd3Fj7ZueBefro5oCPAEMrK8uphvHSXai7gfAAB8czngTgB32q7iBwLMHvjxi1Oae6WsCXs8NXAHgGOjuVaLKL6AYG48DAJLl2rg0x4bF0Nwvc0efrfljXew6flWbxwIACoqeeU1xZWmOxElCn8MALsNrVoxRSAPwPgrQBOGqurUJ3IuvjeWi3IQ+M7yqjJr7cYFAHjWyoDPX3odX6xZ17ovUtw6r6bkgeg0IkoMvhoAAGB4Ze2V2vQecG4WtCfFdnWQ9cS4i35vqwIHgSaz1m4sVNXiWK2XDD7949+wdcO7LfpcFUyrWFQyPcqViHzPdwMAAAytWHWU43iPKHCm7S5xYqMEwlctH3NpXOxslsyDwMw1G4cD+hh4lsoo9Tx8+PtnsfPTz5r/PJWSipriohjVIvI1Xw4AAJC5dGlq/fZO90FlEnz87xEhVeiC+jSZUjvqojrbZb7rv4OAd6fpTV3aJMqDwEMvv93X8cJ/A9DJdDYBoZ278N7SpxCq+3qvfy7A7PLqkkkxrkXkW74/cA6rrB0G0TIA3W13ibFPBHLj8huHxP2zzZmZbupBGeFrE3kQmPvmmx1CXzuvQONiC+WEtfOTz/Hh8meg3rfvb1XFooqakrFoer8AEbWA709TPp4z5HE4u/qi6eZA44+8xSEPwII00RP9cPAHgGXL3IaKmuLFm+tS+qpKFqB238AmOBjAnY3B0Lv52YW35+S4Eb+KL/y18yAP/tGX0e0QHHrGgG99TBW/PLxncBx48CdqFd+fAdjTsAVP94bnzAFwge0u0SFrPCc8+cmxl7xou0kkMjPd1IMzwtkKLYLgCNt9oPhCBPeHU4OzKyvdna398t3X/a3dfJl0VPHB757Bzk8/gwK/P7xHMNN13ZDtWkR+k1ADAABAVYZWrcwUkQIAJ9muY4ICG0Tx88dvHPIoRBLmt5y4GwSAzwV4oDWDQPlr/3doQ0PjGwAOiXI32kPD1u14/9Gnn3Xabb5s9uzZ9bb7EPlR4g0AexheueICFSkGcIbtLm2isl7Euze18/ZfmdrONx75eRCYuWbDQvB5fyu8cOOMm8846WbbPYj8KqEHgG8MXVA7RFSnQDEEQMB2n/0IA3gSovNO+ehvtdHezS+e+G0QmLXmrdMU3otIgHtpfCrsiZ5286B+r9guQuRHSTEAfOPSRX/omhIOXqeKUQAG7PcLYmsjgEclgAXLx1z0L9tlbPrPINC0j0A8PN3xvUFg925/LwI43XK3pCbAc5MG9z3fdg8iP0qqAWBPl81feUIAuEYUP1JgMIBgjCsoFK9D9HHxAsuW517Yyr1OE1+8DgLpdXWzev4s98cq+kvbhQgQwUWTBvWttd2DyG+SdgDY07AFyztC084B8EOonAvgBABphpfZBeBNQP+mitXQtOefyD3/C8NrJKS4GwREPu815iovkJ52mO0qBEDw2pZT+5ziiiTN5TIiEzgA7EXm0qWBnTsOOjrghXqpoo/A6Q1oDzTt8NYBQAcFDpCm/58CYCuAEICvAN2mkI8E+AiKT0TwjgPn9S0fB995zj2fjypFIF4GgU7HHY3uF/3A1vK0FwJcP2lw34dt9yDyEw4A5Ds2BwERQY/Mi5F+yEGxXJb2S16dPLjPQNstiPyEAwD51h6DwJ0AusVizQ5Hd8ORl/Oes3gkjnfOpFP7/8l2DyK/4ONL5FvLlrkN5TXFlZvrgj1FJRfAJ9Fe88B+3O03bnnORNsViPyEZwAoYUycODEttP2ArGidEQi2S8dx2VdCHM7NcSrshXDczWf2fd92ESI/4E8yShizZ8+uL68prkzpuO2YaJwR6Nz7GB7841vACSLbdgkiv+BPM0o40RoEOvez/yZjap4AV9vuQOQXvARACW+PSwMugMPbkpF2YGccc/3lZotRVHhOoN/Np/baYLsHUbzjGQBKeN+cEfBSg8cpMAXAp63N6NDD/v5D1DIB9a6y3YHIDzgAUNKorHR3VlSXzGzLIMABwD9UwQGAqAV4CYCS1siRt7bPCKbli8rPABy6r88LpKeh15irAOFfF78Iqnf4hNP6b7Ldgyie8QwAJa0lS+6vq1hUen9deNcxzZ0RyOh+GA/+PtPgyBm2OxDFOw4AlPSWLLm/rqK6ZGZdeNfxexsE2h3WxVIzaisHcrbtDkTxjgMA0W57GQQ2AUC7ww623IxaSxQcAIj2g+c1ifZh5Mhb27dPzcjpM27EAxIM8O+Kv9R32pF+wOjze+6yXYQoXvGHGlEzZq/dcKKneN12D2oLPXHy4H5v2G5BFK94CYCoGV5Yj7PdgdpG4XDrRqJmcAAgaoYGhAcR3/KOtd2AKJ5xACBqhih62u5AbeOAwxtRczgAEDWvh+0C1DYelGcAiJrBAYCoed1sF6C2EQif3yRqBgcAouYIOtiuQG0kaG+7AlE84wBA1BzlQcS3lMMbUXM4ABA1jwOAf3EAIGoGBwCi5mXYLkBtxgGAqBkcAIiap7YLUJvxe0fUDA4ARM3bYbsAtdlXtgsQxTMOAETN40HEv/i9I2oGBwCi5vEg4l/83hE1gwMAUXOUlwD8SjkAEDWLAwBRMwTYZrsDtZVut92AKJ5xACBqhgo+sN2B2kYU79vuQBTPOAAQNUfwlu0K1FYOv3dEzeAAQNQMgfIg4l/83hE1gwMAUTNCwgHArxzlAEDUHA4ARM044t1+7wGot92DWq3+sA96f2i7BFE84wBA1IwRIyQMYL3tHtRqb+z+3hHRPnAAINq/52wXoFYSrLZdgSjecQAg2g9RHkx8R5XfM6L94ABAtB9pTuoLAHg62T9CEk75s+0SRPGOAwDRfuQOOnYbgFds96AWe2nSGcdzF0Ci/eAAQNQSgmdsV6AWUnnWdgUiP+AAQNQCEnYetd2BWki8pbYrEPkBBwCiFph0eu/XALxuuwc1T4BXJg/u94btHkR+wAGAqKUUS2xXoP1Rfo+IWogDAFELOUH5Nfg0QDwLBVQfsV2CyC84ABC10MRT+nwiypsB45fUTjit/ybbLYj8ggMAUSt4ATxkuwPtncDj94aoFcR2ASK/mblmw0sABtvuQXvSlyYP7ne67RZEfsIzAESt5el02xXo20SlxHYHIr/hGQCiVlJVmbV24+sATrDdhQAIXpt0ap+BIqK2qxD5Cc8AELWSiKgAd9vuQU1EpYQHf6LW4xkAojbYfRZgNYBzbXdJaip/mjS497kcAIhaj2cAiNqg6YCjNwFotN0liYU0gJt48CdqGw4ARG00eXC/NxQy13aPZKXQh6ac2ofbMxO1EQcAogjU1+MOCD623SMJfZSSoT+3XYLIzzgAEEXg9h/0+cpruhTA09Cxo+ohf0L//jtsFyHyMw4ARBG6eVC/3wOYY7tHEnloyul9n7RdgsjvOAAQGZAudT+F4m+2eySBNVsyvKm2SxAlAj4GSGTIrLXvHKsaehlAZ9tdEpNsdTycMvH0Pu/ZbkKUCHgGgMiQSYOOf1eBseD9ANHgAcjmwZ/IHA4ARAZNGdz3t4BOtN0j0Qj0p5MH91luuwdRIuEAQGTY5MH95irkXts9EoeWThrcb4btFkSJhvcAEEVB01bBb1UBOtZ2F3+TJZMG9c7ibn9E5vEMAFEUiIhu2fFpHgS/s93FrxR4bMuOT8fw4E8UHTwDQBRFS5dqYNMxG8tVcaPtLn4iwOIvd2wa655/fsh2F6JExQGAKMp2vznwTgB32u7iB6qYNXlwnyn8zZ8oujgAEMXIzLUbJkIxA7z0ti8KxW2TT+t7v+0iRMmAAwBRDM38+/or4cgicLOg75CtALL5qB9R7HAAIIqxmWvfPErUeUSBM213iQcKrHUkeO2kQce/a7sLUTLhqUiiGJs8qP+HX+7YdM7uvQKS+Tq3qmLW1gzvbB78iWKPZwCILJqxZuMwES2DorvtLjH2kXrI51v9iOzhGQAii6YM7vN4Oup6AbgLQIPtPjEQUsWsXfXSjwd/Irt4BoAoTsxYs7G3QOcAuMB2lyh5AdAJkwf3e8N2ESLiAEAUV1RVZq15KxOiBQBOst3HCMFrolIycVDv3/LZfqL4wQGAKE7NWrP+AlUphuAM213aRl5Vwd2TT+39Gx74ieIPBwCiODdr7YYhnuoUgQwBELDdZz9CgNQKvIcmDe73jO0yRLRvHACIfGLO3zd0CTu4SoFRApxtu8+3CNYLdHHA05oJp/XfZLsOEe0fBwAiH5q5Zv0JqrjGEfmRAoMBBGNcIQTgJag8G0b40VtO6/9mjNcnoghxACDyuXv/vLFju3TvHFX5IYBzAZwAIM3wMvUKrHMUz6voH4MZ+sKE/v13GF6DiGKIAwBRglm6VAMf93znaEe9XiJeHwV6A9IDQCcAHXb/c8Du/wWAHQC2QvAVFHUAtgP6vgBvqTobPXHe7v7e8R+MGCFhC/86RERERERERERERERERERERERERERERERERERERERERERERERERERERERERERERERERERERERERERERERERERERERERERERERERERERERERERERERERERERERERERERERElIT+Hxak7ORE0IUAAAAAAElFTkSuQmCC;" vertex="1" parent="1">
          <mxGeometry x="-5580" y="-1250" width="40" height="40" as="geometry" />
        </mxCell>
        <mxCell id="JhdC-7hi9hZoy1IBPFO8-53" value="" style="shape=image;verticalLabelPosition=bottom;labelBackgroundColor=default;verticalAlign=top;aspect=fixed;imageAspect=0;image=data:image/png,iVBORw0KGgoAAAANSUhEUgAAAgAAAAIACAYAAAD0eNT6AAAACXBIWXMAAIlvAACJbwECyFNtAAAAGXRFWHRTb2Z0d2FyZQB3d3cuaW5rc2NhcGUub3Jnm+48GgAAIABJREFUeJzs3XecXFX9//HXzPa+m930ThISQkICSaihg/QmUhQRUUBQFMGfIOpXESwIgqKICCgqIChIV1oglCQQSkISSO+kb7LZ3nfm98eZJJtks3Nm5t6Ze2ffz8fjPja7OXPn7OzMPZ97yueAiIiIiIiIiIiIiIiIiIiIiIiIiIiIiIiIiIiIiIiIiIiIiIiIiIiIiIiIiIiIiIiIiIiIiIiIiIiIiIiIiIiIiIiIiIiIiIiIiIiIiIiIiIiIiIiIiIiIiIiIiIiIiIiIiIiIiIiIiIiIiIiIiIiIiIiIiIiIiEiiAqmugIg4LgCMAaYAw4ABwCCgL/rMi3TWBGwAlgLvAe8AtSmtURLpYiCSPg4BvgpcAPRLbVVEfKkZeBm4D5gGhFNbHRGR7k3BXLTCOnTocOx4HziKNJaR6gqISNzygV8DDwKjUlwXkXQzENOjFsQMDYRTWhsXaAhAxJ8GAC8CB6e6IiI9wDTgYmBbqiviJAUAIv5TgrkjGZ/qioj0IPOAE0mjICCY6gqISMx+hxp/kWSbADwLZKe6Ik7RHAARf5kK/D7VlRDpoYZges6np7oiTtAQgIi/vAickepKiPRgbZi5N5+muiKJUgAg4h8jMQlL4v7c5ucGyM8LUFQQpLgwQEFekNwuOjRLi/c9OliQFyQ7a9/P0d4BdQ2heKvoqoamMG1taTeZm44Q1Dak3+9lo709TH1j7L97R0eYbdUhGpriet2eBs6P54FekpnqCoiItc9j2fiXlQS59OwCjpmcw/7DMuldFqSkKEhAIb/ITqEQfLKsjX+91MhDTzZQax+4ngsMBda4Vzv36XIg4h/vAYdFK3TM5Bweu7OcijLN8RWxtX5zB1/9YRUzPmqxfcjNwO0uVsl1CgBE/KEAqCHKxN2szAALX+zHoH6a3ysSq8bmMKdeWckHC1ptir8JHO9ujdylWwQRfzgYi1U7Rx2SrcZfJE75uQEevLUXQbuW8WB8fhOtAEDEHybZFDr9mDy36yGS1kYPz+ToSTk2RUuACper4yoFACL+cKBNocnj0iZHiUjKjN+/m2Uuuytxsx5uUwAg4g9DbAqNHqaFPSKJKsy3bhp9HXHraiHiD1EDgN69gvQqVUy/p8bmMJ8ua2P+0jY2b+0gJztAMAgjh2Ry+IQcevfq2a/Z9poQsz5uZdnqNjpC0NQSpnevIAftn824UVkUFfh6mFu6oQBAxB8GRSswaqh1t2WP8M5HLTz8dAPPTGuiuaXrZC/BIEw9JIeffLOYow6xGvdNGx8vauNnf6xh2rvNtHd0XSY7K8Dpx+Zy+XkFnHREru3kOPEJ/TlFvC8fKIpWqLxEH2eARSvbOPXKSj739Uoe/2/jPht/MIlg3v6whVOuqOSJ/zUmsZap9cqMZo67bAsvz9h34w/Q2hbm2WlNnPOtrRz7lS3MWWi1PE58QlcMEe8rsClUVKiu2t/8tY7DLtzCWx9YJ3MBTCrda2/bzsbKblrDNFHXEObKn1TR0hpbCtwPP2nl6C9v4cf31BDyZqZniZECABHvswsA7CcupZ3WtjBX/l8V//f7Gtra48uJ39AU5t8vpX8vwAvTm6isiq8FD4XgrofruPiGbfHm0BcP6blXDBH/yLcpVNhDJ2uFQvDVH1bx6AuJN96LVrY7UCNvW7yqLeFzvPBmExd8d2vcwZZ4gwIAEe+z6wHooQHAj++p4ZnXmhw5V094DYsLnLnsT5/dwrW3VTtyLkkNBQAi3me11jgvJ/0brz1Ne7eZ3/69zrHzHX9YrmPn8qoTD3dutcM/nmvg8f+m/7BJulIAICK+1NwS5vpfOXcHetQhOZx2dPoHAAePzea8k51LGX3TXdVU12pWoB8pABARX/rLfxpYvtaZMfupk3J44q5yAj2kE+WBn/XirOOdCQIqq0Lc+VfnemEkeZQISER8JxSC+5+oty6flxPgW5cUcuZxeRTkBZg9v5VPl7WRlxvg2Ck5nHxkbo9p/AEK8wP8+7flzJzTwquzmqmtC7P/8EyOOjiHjo4w/3u7mT88Wk9Nvd2d/V/+08DNVxVTmN+DXsQ0oABARHzn9feare/+RwzO5J93lXNQpw1exo1S1kQwwx5dZUA8eGw2F5+Rzxe/t40FS6OvGqipC/HC9Ca+eIbVghXxCA0BiIjvvPhms1W5PuUZvPJQ790af7EzYnAmrzzYm/0G290nPjPNmZUYkjwKAETEd6bPtgsAbv12MQP7Zrhcm/RVVhLkrptKrcq+/WGLMgT6jAIAEfGVyqoQy9ZE7/4vKwly0Wnqkk7UKUflMnxQ9F6AmroQS1YnnmRIkkcBgIj3Kd1aJys+sxv7P/fEPHJ7YG4EpwUCcMGpdisGlq1O/0yK6UQBgIj4ykrLAOCQsVb5k8TCJMvXctU6BQB+ogBARHylqsZuoHn0cC1ycsro4XaTKKuUEMhXFACIiK/YbmPbk3dHdJrt+v5G7RDoK/qEiIivdHTYlcvWCIBjsrPsAgCtAvAXBQAi4iv5eXaNUW297kadUl1n17LnZGvSpZ8oABARXykttrtsbd1u2VUgUdlu9qNUwP6iAEDE+3Qr20lFmd1la4VDGwUJVnkXAPr1VtIlP1EAICK+MnSAXSOzcIUCAKcsXGGX4KdvuQIAP1EAICK+MmxgptXOfZ8uV1Y6pyy0fC1HDtHSSz9RACAivpKXE7BKTbt4ZZtmpTvEJpjKzIDhg9QD4CcKAETEdyaMiZ6YpqEpzKr1GgZIVE19iM82RZ9Quf+wLOvlguINCgBExHcmjrZb5P/hJ60u1yT9ffRpG2GLaaiHTVDiBb9RACAivjPxALvUtB8sUACQqA8WtFiVO3S8AgC/UQAgIr5z8AF2jc37CgAS9uEndhMA1QPgPwoARLxPeQD20LtXkAF9ok84m7+kzXrvAOmazTBKSWGQ0cPsemXEOxQAiIgv2WxR29Ia5pNlWg4Yr/WbO9i0NfoEwMnjsgmqNfEd/clExJcmjbO741Q+gPjZBk+Tx6n7348UAIiILx1i0QMAygiYCNsMgIeMVfe/HykAEBFfmnxgtlVGwEWWjZjszTYD4ETLSZniLQoARMSXykqC9LfYfEZDAPH71KL3pKggwJD+ygDoRwoARMS3xgyPnhJ4/eYO6hq0EiBW4TAsWRk9eBo2UPn//UoBgIj41sihdmPPGyujz2SX3dXUhWhsjh44KQDwLwUAIt6n29d96FdhdwmrrFIAEKstVXY7KQ3qq+5/v1IAICK+1buXXeNTU68YKlZ1DXYBQG6ONgDyKwUAIuJbtslnbDazkd3ZbqWsHQD9SwGAiPhWh2XPfkgRgGuUAdC/9KcTEd/asMUuAigr0qUuViWWr9m2asuuAvEcfSpExLeWrbFb49/PIl+A7K5fb7vmwfZvIN6jAEBEfKm9A6bPjr5XfUYQq50DZXfFBUGrXoAPP2mltU1DLH6kAEBEfOn1d5upqone/XzgqCzyczVRLR5TLDb5qWsI8/I7zUmojThNAYCI9+n2ag+hENx6X61V2SMn5rhcm/R1+AS7HP+/uL/WetWAeIcCABHxnT/+s545C1utyp58VK7LtUlfp0y1e+3mL23jF3+2C8jEOxQAiIhvVNeF+MOj9dx8d7VV+b4VGXxOAUDcJo/L5oD97NIt/+qBWm69r1bzAXxESZxFxJM+29TBhwta+WhhK3MWtrJwRTubt8aW0veSM/PJ1Py/hFx2bj4/uLsmarlw2AQBdzxUS/8+GQwbmMmY4ZkcNiGHIyZmM2Kwmhuv0V9ERDxlzsJWbri9mtnz7br496W4IMh3v1LkUK16risuKOSeR+qtN1TqCMG6TR2s29TBjI9aeOipBgCmTsrh9htKmHSg3bwCcZ+GAETEMz76tJWTLq9MuPEHuOHyQnr30iUuUQV5AX76reKEzzPjoxZOvbKSWXOjL92U5NCnQ0Q84wd319DU4swY8qHjNfvfKZPHZRNwYCVlfWOY7/6qWisGPEIBgIh4wvrNpsvYKZf/qIr1m7UNcKK214S46Pptjm2otGBpGwuWKnugFygAEPG+HjGt+rNNzjbWm7d2cMOv7VYLyL799N4aVnzW7ug5nT6fxEcBgIh4Qn/L3POxeP6NJkfmE/RUy9a08/DTDY6ft7hQmRm9QAGAiHjCkP5m2ZjTHnqy3vFz9hR/e6aBdodHUUoKgxw+QfMzvEABgIh4QiAAt3+v1PF1+8+90aTkNHF68uVGR88XCMBt15VQmK8eAC9QACAinnHK1Fwev6uc8tLuL02jhmYy2WKjGjCb1cxfoklnsVq7scN6XsZBo7MYv3/3GQMH9s3g8d+Uc+UFBU5UTxygREAi4ilnHpfHsldyeeuDFpavaWdTJPtffm6A0cOzmHhA1s6sct/46Xb+8Vz0Meo5C1utAwYxPl5kN3fi9GNyeeqeCgIBEzR8+Ekri1e20dgcpqExzNABGYwfncVxh+aSoVtOT1EAICKek5cT4NSpuTC1+3IXnZ5vFQA4vcKgJ1i70e41u/C0/J05Aob0z2BI/zwgz72KiWMUj4mIb40YbDdhoLJKmWditXmbXQAwaqjuI/1KAYCI92kG2z7k5dhNJnMqu2BP0mz5mhXmqxnxK4VuIuJbmRl2AUCiY8/NLWGaW8LUNYapbwxRWhSkf+/Ylys0NIVpawtTXReioSlMv4qMqBMeu9LYHCYjCFuqQrS1hRnUL4PsLGdn1mdYvrbtHQqu/EoBgIj4VkOzXeOTnxt747h2Ywe3P1jL/95u7nIb4oPHZnP3TaUcPqH7yYUfftLKnX+t4633W6ip330oIhCAEw7L5bc3l0btSv/f283c+1gds+e10rjH752fG+CSs/K59TsllBY5c0du+5o5nSdAkkd9NyLiW3UNdmP7eTEGAB8vauOwizbz8NMNXTb+AHMXtnLqlZW8+f6+9y948uVGjr9sC8+/0bRX4w8QDsPr7zVz3Fe2sGzNvtPj/uqBWs7/zlamz27Zq/EH0yPw4JMNnPy1SuoanLkjL8izHF6xDMLEexQAiIhvNTTaNT4lMdwVd4Tgspu3UV0bPbhoaQ1z1U+qaGvfux6bt3Zw9S3bre6Qq2pCXPfL7V3+3/vzW7ntT7XRTwJ8sqyNW++rsSobje1rtt3idRJvUgAgIr5VZxkAlBXbX+pmfNTC0tX2m9V8tqmDtz/cuxfg3y83dXm3vi/TZ7ewYcve0cLfnm2IaSe+x15sdGS7XdvXzCZQEm9SACAivlVvOQQQSwCwaGXsWQNXrN07YFi2JvbzrOxil7xYghEw2/c60SiXFtsNAagHwL8UAIh4nwZZ96HesgegNIYAIDc79gmDvUr2Pn9+XuyX17IuzmM7Fr9DVmaAwoLEVwT0Ug9A2lMAICK+VdfofA/AkQfn7MxsZyM3J8Dxh+Xu9fOjJ8W2492wgZkcsN/e+fRjPc+Jh+c4siTQNmhSD4B/KQAQEd+ynwRo3yDuPyyTc0+yT2X7gyuLulzLf+rRuRwy1m7/gUAAfv29EoJdXJG/fn4Bfcrtcg7k5wb42XdKrMpG01VvRFeqa9VB5VcKAETEt2zvPrvqou/O/beUcdIRe9/Vd5adFeDHVxdz49eLu/z/jCA8+btyJozpfpe84oIgD93Wi7NP6DroKCsJ8uwfyhnYt/sgYECfDJ65t4KDouzKZ6u4IGiVQEk9AP6lREAi4lu248+xJscpLgjy/H0VTH+/hdffbaambtfzVJRlMGxgBqdMzY2aDXBAnwxmPNaX/73VxIw5LTQ2mbvljIwAFWVBRg3N5LRjcikp7L5+B4/N5uNn+vHMtEbmLmyjpdVkJawoDVJeGmT8/lmcMjWXnDjmL+xLMAjFRUG213T/GisA8C8FAJJsWUCvyFEGFAClQGHk6Px9FlCC6akqALKBXHZtNZYP2AyQdgCdF1I3A02dvq8D2jGT7aojZesiR23kqN7jZ3WRnyWDVR9rLEvF0kV1XfRfOi8nQK7lngGdmSx9OZxwWGxj8HvKzICzT8jb5x2+rcL8AJeeXcClZyd0mpiUFUcPANJxEmAMc0Cczb+cZAoAJFFZQB+gX+ToDfQH+kb+3ZddDX4voCg11XRNLbA5cmwBNka+booclZGfbWb3oEMcYNP4xLICQHZnM3lSPQD+pQBAoikHRgBDgYGRr4MixxBMo9+Tr7DFkWOURdk6YAMmGFjV6VgZ+boBLfmLSXVd9MYnlhUAsjub1y4dewB6CgUAAjAAGAPsD+y3x+HMlGIB0/sxOnIc08X/twBr2D04WIUZ6pAuqAfAXTavXWNzmJbWsKPzDyQ5FAD0HAFMgz4e09iPAQ7ANEZq5L0hBxOE7Z/qiviFTfdzrCsAZBfb1666NkTfiti3R5bUUgCQnkqAgzCN/YTIv8dhJtaJpI3a+ugjJqUx5ACQ3dmmA65tCNO3wuXKiOMUAPhfNqahnwpMihxj6Nnj8j1SLNnr0kFDU7jLXfj2pCGA+JVZLp+s7WKrYz+LYUWNr+fsKADwnxHAUcCRkWMsoL436XHLAKMtT9shlq2AZXfFlq9dXUN6vfm0DFC8IAhMBI5jV6PfL5UVEvEKmxUAQNQkO7JvtgmU6ix3ZRRvUQDgPQcAJ0SO4zBr52VXsp4aIIRJwtPVbUctJvHPDl0lC+qcTKgI8zkoxefRfE9ju/ysyIGd8Xqq4kLLOQAWczHEexQApF4ZcDJwGnAKJolOOgkBW/c4KjENeA27Mu11PrYDjZhlcfVA7BurxycDs6Y/BxM4FES+L40cJXt8LcMEaH2BCkziIw3HJIl6ANxn+9rVqgfAlxQApMYhmAb/NOBw/NlotGAS16yPHBuBzyJf17F7g++X24MOTPARrwAmCOjNruyIvdmVOGlw5BiAyaAoCaixSAMMUGR5Fyt7s33t6tQD4EsKAJIjAzOGf17kGJra6lhpo+ukNKuA1Zh0t7K7MOZ12QJ82k25ICY4GIwJDIYCIzETPEdiMizqsxlFjeXM87w49gEQIyfLMgBoVA+AH+ki454M4ETgAuAczJ2gF60DlgJLIsfiyPdr2X0sXZwTwvSebABmd/H/WcAwdgUFhwFfTlbl/KLecuZ5ZqYCgHhlWwYAmgPgTwoAnBUAjgC+iGn4+6a2OrupBOYD84AFkWMpZnKdeEsbsCxyAMxEAcBeGprt7jpt9rSXrmVZthDhnrYGNU0oAHDGCOBy4BLMnVuqLQc+AOayq8HfmNIaiTgsI2h3dxpUABC3kNr1tKYAIH45wNnAVZiu/lT1M24EPup0vIe525cepqdlAsy0nDpbZZkwSPa2dbvdaxdMszefMgHKvhwAfAtzt1+a5OcOYSaXvYPpFn4bM4Yv0uMyARbk2TU6W7YpAIhXZZXda5du6ZaVCVA6ywDOwjT8ybzb7wA+BN4EZmAa/USWqYk/9bCm3c5+g+0uX0tXt7tck/Q1c26LVbl+vdMrAOgpFAB0rwjTxX8tyRvbXwJMA14HpmMS5ojIHkYNs7t8PfVKIz+6uogsrQaISUcInn61yars4H5qSvxIf7Wu9Qa+g7njL3P5ueqBV4D/Aa9hkumISBT7DcokNydAc0v3HSQrPmvnmz/bzm9vLqMwf/cgYNW6dmbObaWtLcy4UVlMGZ/tZpU9Y/7SNuYubAXgsAnZjBm+e16qhqYwP7irmkUroyfhDATg8Ak943VLNwoAdjcIuAn4GiYVrFvWAC8CL2C69+362URkp+ysAEdPyuG1Wc1Ryz76QiMvvNnMF0/P58BRWYRCYV6Z0czLM5oJdRrmPvSgbP7+q14MG5iel8Yt2zq4/IdVvDF790vO8YflcOZxeeTlBFi0so1/vtjItmq78f8DR2ZRXqohAD9Kz3d57PoANwNXYzaKccMi4N/AM5ileSKSoAtOzbMKAABq6kLc/6/6bsu8P7+VU66oZPa/+qbdxLamljCnf2Mrny7f+65++uwWps+O7z7ky2e5ea8kbkqvd3jsyoBfAiuB7+J8478U+DlwEDAWuAU1/iKOueCUfHr3cvYytnZjB795OP3yYz347/ouG/9E5OcG+PLZBY6eU5Knp/YAZGIm990KlDt87s3Ao5HjY4fP7WU5mNz2/TGvaQWmZ6UicuzYWW/HVrw7tuHdMRzyIMpKKDHKzQnw46uLue6Xzs6VffHNJn5+XYmj50y156fb9ZTE4vqvFqn738d6YgBwAvBbzF25UzowM/YfAJ4ledvXJlt/YAwwGhiF2bRmcORrvNsY7wccD1wPnIl6SOKWZrlYrF3xhUKemdbEm+87N5Vmi+X6dz+prHJ2a4+DRmfx/a8VOXpOr1AioPQzAPg9cL6D51wO3A88QnrtjlcCTAQOBiZghi9GR37ulkGYnoADMCsjJEY9LRHQDsEg/OP2co67bAsrP3Nmzf/QAX7cobt7wwZmOpYTYdjATJ66p4Kc7PSMOpUIKH0EgEuBu3Gmuz+MWaP/APA0/t8xLxeYjNmueBJwCOauPBVv7EHAxcBDKXhu3+upPQAAvXsFeemB3px1TaUjjdwXT0+/iW0Xn57PqzMTHwYY0j+Dlx+sYHC/9AuSdugpPQDpPngzCngL+DuJN/51wO8wd8InA0/iz8a/DJPV8NeY7ILVmNTCt2N2MBxBaqPag1P43F5ldZHpqT0AOwzpn8Fbj/ThK+ckNintiInZXH1xoUO18o6LT8/njGMTm+d87kl5zHisL0MHpPe9Y0/pAUjnAOArwBzg6ATPU4tpLIdhxqmXdVvae7Iwr8Gt7Noo6HngRsxdf07qqtYlPwZVbrO6yPTkHoAdSouC/PlnZTx7bwUHjc6K/oBOsjIDXHVhIc/f15vsrPR7MQMBeOzOcr53eRG5ObH9fqOHZ/LoHeU8/ptyx1ddeFFP6QFIxzCuBLgP+FKC59kC/AkzYbAm0UolWR/MToVnYSbY+WmmzruproD43ylTczllai7vzWvl4acbmDmnhRVdzA8IBGDsiCzOPiGPy87NT/s725zsAD+/roRrLynk78828My0JhYsbdstGdIOQ/pncMTEHC47t4DjDs1RgJmG0u3dfghmXH5oAueowuQG+CPg/LoZ94wEzgXOAY7En707i4H/pLoSHqQhgDgdPiF7Z5ra6toQC5a10RaJA4ryA4wampl2CX9s9KvI4KYrirnpimJqG0IsW91OTb15A2UE4YD9MulTnr5j/NH0lCGAdAoAvoiZPBbv7J1WzIz+n+KfDXiGYn7vL+LsssZUWIUJYFpTXRG/0h1a90qLgxw9yWsjXqlXXBBk0oHK5d+ZhgD8IwO4EzM+H48wZpLg/wHrnKqUiyqACzGN/lH4KwKtw+RIqMbsf9AIbATewKyqaEhd1fxPPQAizlAPgD9kA/8ALorz8UuBb2KW9XlZBnAKcCVwBmZin1fUA2sxGf0+ixwbgG3A1k7HtlRVsKdQD4CIM9QD4H2FwFOYhjFWTcAdwK/w9k58QzA7E34Nk3EvVTqAFZgNjZZEjoWYAKoqhfUSEZE4+TUAKAFeA6bE8diZmCWCKx2tkXMCwEnAdcBpJH8yXwvwCWYJ5dzIMR/TXS8epiEAEWdoCMC78oEXiL3xbwfuwoz1ezFXfw5mKOP/AeOT+Ly1wPuYwGhG5PDT6geJ0BCAiDM0BOBNeZh88bEm91kBXALMdrxGiesDfAf4BmaCn9vqMBsXvYaZfLcIn7+JewAtAxRJIvUAeE8AM+Hv+BgfNw0za3674zVKzEDg+5iJfW4nHv8IeAl4FZMN0Is9ICIikkR+CgB+Anwhxsc8AFyLtxq8ocANwFWYjXjc0IFp6F/AJEbyW/pi2Z1SAYskkYYAvOVcTIIeWyFMt/of3alOXAZhfoev4s7r3oFZzvg4Jte/ZuenD6uLTF2Dr69FIp4RQzDt6w+dH3JgDgT+iv1YSwizbM4rjX8vzE57S4ErcL7xXwj8ABNgnAL8DTX+6WarTaHn3mjqMqe7iMQmaN8y+nrCtNcDgADwF8wWtjY6MHfYf3erQjEoxKw4WAXchJnA6JSNmBwGo4ADMbsVbnLw/OItGzDJlrq1YGkb9zxSl4TqiKS3pmbrG3tfBwBeHwK4itgS/VwBPOJSXWwFMHMVfoNJ5OOUELtS5j6Lt+Y1iPtmYvF++tHvaqiuC/HDq4rJydakAJFYLVzRxr9ftk574uv8KF6+QpQCy4Fyy/J3YO60U+kw4J7IV6dUYRr9+zBpdqVnOg8zodNK/94ZXHpOPsdNyWVQvwwG98uIeQ94L2trD7N6fQer1rVT3ximpi5EKIHR2Opa58ZOaupDjg3F1DeEae9wZpi5sTlMS6sz52ppDcdyl9yt1nZoaHLmXB3tYeoa932uzAwY3K/rXQ7bO2DVunY+29Rh+3SbgP4xV9JDvHxFuAOzTM7G/4CzMUMAqdAfM85/Kc69pguB32N6NHwdZYojMoHVmDkxriorCTJmeCZnHJvH5ecV0KvUGyOFi1e18dQrTUyf3cIHC1ppa/f1/Cvxv/8CZ6a6EonwagAwGDNpzmaZ3BpgIqnZwjeISeDzK0x6Yie8FTnfq/h8hqk47vuYwDhpSgqD3HZdCVdeUJDMp90pHIYXpjdx19/qeH++dooWT/kGpnfWt7waAPwauNGy7BmYHoBkGw/8GTjCofPNxCwT9PrOhJI6WZi9GQ5M9hNfe0khd36/NKnP+dGnrVz78+18vEjTXcRzaoHh+HzFlTf69naXj5nMZ+NfJL/xzwN+icmul2jjH8as2T8UmIoaf+leGyZzZNJ3sLz3sXr+9ER9Up6rIwS33FvLsZduUeMvXnU3Pm/8wZs9AF8HHrIo1wTsR3KXv03BpCMe48C5ZgI3A+84cC7pWT4P/BvoejaTS4oKAnzyfD/6lLv3tHUNYb74vW28/p6vV1dJevsIOBLw/ZiUF3sAPm9Z7h8kr/HPxKwwmEnijf8CzN4EU1HjL/F5GjNixDsuAAAgAElEQVThtCmZT1rXEOavTze4dv7quhBnXlOpxl+8bBFm4p/vG3/wXgBQCJxgUS4E/NbluuwwFpNX/3bMGGy8VmMa/gnAk4lXS3q4x4GjgHnJfNL/vuVO49zQFOa8a7dqop942ROYYd+0SbrmtQDgBOxm/k8DlrhcFzB3WR8BkxI4RwMmI+BYTMOvmf3ilLnAZOAazGoY1y1f2+74OVtaw1x0/Tbem6fGXzynA7Op2jHAF4Ga1FbHWV7LBDjZslwyJv4di8mrH2+QFMbcpd0ErHOoTiJ7agfuBx4ETsXkwzgekybacdW1Ido7TEIVJ3SE4LKbq9TtL3uqw7y33VaAaQdrMI39RkwwvRR4E3ibNGv0O/NaADDBstxrrtbCuIX4G//FmDWibztWG5HudWASk/w38v0gYBxmqdJ+QDFQRPef+cOwSDccDodxYv5wOAzX3LKd516PaypDGyZnxluYAHszsafHvhcYbVHuFGBbjOduJvE5Gh2Y5WaJCpHGjZjEz2sBwDiLMpsxWfLclIWZpBerFkwSn9tJwVItkU7WEXvP0z9xdv+Kbn3/zmoeeT7mSYVNmHTbd5L4MqzXsQsA2jBDgSJpxWsBQB+LMlF3RXNAFrG/Nm9h7vqTMTdBxNdu+1Mtf/xnzHkFFmNmYK9wqBqzgW9alBvq0POJeIqXJgFmYsZjotnsdkUwufeXx1D2Wsy4qxp/kSh+/0gdv/xzzD3b72LWXjvV+IN9D4nNjYmI73gpACjCbmCx0u2KRNxnUeY9zD4Ef0Sz+0Wi+tszDfzg7piHo+cBpwPbHa7OFstyeQ4/r4gneCkAsJ3AY7NM0Am/B57dx/+1Aj/CzBNYlqT6iPja82808e2fbyccW6i8HLO6wY3NvnIsy3kxY6pIwrwUADRgt+yjr9sViegAzge+hbkDacVMOnoCOBizH0Cqth8W8ZU3ZrfwlR9U0R7bJ2YdcDLuJV4ptyznpeukiGO8NAkwjOmSGxClXLT/d1IIMxRgMxwgIl2YNbeFC67bSktrTLf+W4CTMBk03TLCslxS91xIQ3nAWZgVF/WY1RfzU1ojAbwVAIBZ3hetgd8fqAC2ul8dEUnEvMVtfP7b22hsjqnxr8asvXd7Uu0Uy3IKAOJ3PPAY0H+Pnz+B2fXVvc0lJCqvdW0tsCgTxLypRMTDlqxq58xrKqmpD8XysEbMUr+P3anVbo6xLOe166RfHAi8yN6NP8DFmEypkkJee2PbZs473dVaiEhC1m7s4IyrK9m6PabGvxWzG+hMd2q1m0OxHwLw2nXSL24F8rv5/7Ow2/xNXOK1N/ab2E2suwgzDCAiHrN5awdnfKOS9ZtjmvHXAVwCvOJOrfby5RjKeu066QcBzDBONJe5XRHZN6+9sauBdyzK5QFXulwXEYlRdW2Is765NdZdA8PAVcBT7tRqLxXA12Io77XrpB9kYZfY7VySt7Rb9uDFN/Y/Lct9G5M8SEQ8oL4xzDnXbmXB0lj35OEG4K8uVGlfrseucdpBkwBj1wqssihXjMnzICngxQDgBcty/TE79olIirW0hrno+q28P7811of+DPidC1Xal/0wAUAsvHid9IMXLcud4WotZJ+8+MaOZYeQ72C3g6CIuKS9Ay69qYo3Zse8AebvSH4Q/0diT+2rTIDxedqy3OnoNU4JLwYAsSwYzgT+jsaQRFIiFIKrb6nihelNsT70YUzXfzJdhbqbk+kd7PZbGIBZMihJ5vcAAOAQ4A9uVEREunfzb2t47IXGWB/2LKYxTuYGWgeR3KEGMSs79rWfyp4Od7Mi0jUvBgAxLRyOuAL4utMVEZF9+9kfa/n9I3WxPuxVzDLemJYJJKg3pjtau/ol30uW5Q51tRbiGzmYO4NYj1ZMBjERic8/sfis1X44MPybG0vj+Yy+CxQm8fcBk4hmVhx17XxoL5D4VWBu6qK9xvNSVUHxlizi/6A2ojTBIvGyCgDu+WFpOBCI+bM5FyhN5i+DmRv0Soz1VADgvEVEf43bSX5wKB6UQWIf1jrgqKTXWsT/rAKAYDDmz+QSoE8yfxHMnf+rMdZTAYA7HsTudT42VRXsqbw4ByCc4OMLgdcwGaZExGGh2GbprAVOxm42uFOKgf9FnldS7wPLcloJkGTpGACAmezzFPAtB84lIvGpxOSDX5vE5xyE2VNEd5PesdSy3GBXayF78WoA4EQQkAHcC9yFyRcgIt2LOZNPN6qBzwGLHTxnNEcBHwEHJ/E5JTrbAGCIq7WQvXgxAID4lgLuyw3AdGCgg+cUSUcbHTpPAya968cOnS+aAHAd8AbJn2sg0W3ELsOregAEgDacmbzT+diCxgRFunMmiX/OWjB3/slSBjwTT13PGdJXkwCTZz7RX+fVqaqceEsLzgcAYUxmqt9hZgiLyO6yMXdr8X6+2oHzk1jfk4E18dT1spGDwhsvPkkBQPJMJ/rr3Ip3e6XTkldf7HC0Av3ycsgKxrx/RBDTVTgPOCaOeomks1bgJ3E+NgxcCfzHuersUzHwZ8wa/5jHjS8bOYi/TD2IYED7zyTRdosyWWhfl6TyagAQdQ7AIeUlPHfiFAoy49qqeyQmIv0DUBLPCUTS1EPAYzE+JozZYvdh56uzl/OABZi9BGJuwa8/cDgPHz2BjEBA288ll00AAKYXSpLEqwFA1B6AMGFOG9Sb1089nIrcuN4zQeBaTJKSr+Pd10IkmcLAV4E/WZZvipS/x6X67DACs7b/aeK46w8At08ew92Hjt3Z8CsASKoay3JZrtZCduPVRi9qD0AoEiIc1ruU9888ioPKiuN9rr6Yu57ZwBHxnkQkjbQD38RM5pu5jzJtwBOYXfb+4WJdSoHbgU+A0+I5QUFmBk8eP4mbxo+Itw6KFZJHPQBJ5NX18RY9ALsML8pn5hlHcNk783h6zaZ4n3My5mL3JPBTkrt+WcSLXoscQ4HDgGGYCbqrMHu923brxiMbE4T8GCiP9yRDC/N49sTJTOy19w2CpgAkle1YrQKAJPJqAGDRA7B7jFCYlclTJ0zi7k9WcvNHi2kLRY0huhIALsTMZH4M+BmwMp4TiaSRNZEjGbKArwA/AoYncqIzBvfh70dPoDxHbYoH2AYAXu2VTktefbGj9wB0USIAfG/cfrxz+pEMK0xo6+8MzEVoMXA/sF8iJxORqLKAKzBzch4igcY/Mxjg15PH8MJJU7pt/DUNMKlsbzarXa2F7MarAUD0HoBuYoTDepfy8TnHcNnIQYnWIwv4BiaV5RPApERPKCK7KcKsIFiG2TUuobv+Cb2Kee/Mo7hx/IiozbuGAJKql0WZEAoAksqrAUBcPQCdlWRn8rejJ/DciZPpl5eTaH0ygIuAD4HXgVPRxCCRRAwEfg18BtyNmWcQt5yMILcdMpoPzprKpHKt7PWgvhZlajHJ2iRJvBoAJNQD0NnZQ/ry6XnHcs2YoWQ4E/KfALwELMLcudhEtiJiHAf8CzOR8EYcyMNxeO9S5px9ND+eMDKm5GCK4JPKZo+GKtdrIbvxagCQcA9AZ71ysrjviHF8cNZUjupTlki9OhuNuXNZB/wNONypE4ukmVJMzo2FmARcF+LAeu+CzAx+e+hYZpxxJGNLCxM9nbjLpgfAzVUl0gWvBgAxrwKwcXB5Me+ccSR/P3qCE8MCO+QBlwHvYlIM3wD0d+rkIj6VgRkqexyzv8AfgAOcOHEwEOCrowax+PPH8d0Dh8fds6dJgElTjtm0KZrP3K6I7M6rAUBMeQBiEQC+MnIQS84/jusPHB7PfgLdOQi4C/NGfgm4BG08JD3LBMzY/lrMZ+BiHMzv/rmBvZlz9lQenjqBQQWJnVaTAJNmrGU55V5JsrTJAxCr4qxM7j50LN8+YBi/mL+cfyxfF2/ugK7suPs5NQD1YbNd6X+AVzGpU0XSyQGYSbIXAWPceIIJvYq5Y/IYPjewtxun96v+wP6Y+6EGzHVzOVCXykp1wTYAWOJqLWQvXg0AXOsB2NPwonweOuogfnjQSH4+bzmPrFhHu3OBAGEoBC4FLg1AQ9jkM/8P5qvXPqgiNoLAocCZwNnAeLeeaHhRPj+dOIpLRwx0fPc+H3YAHAB8ATgJGEfXE5DDwApgDvACZu+ExmRVcB8OtCynHoAk8+pnYA1RNvyYUlHK+2cd5fgTr6hr5LaPl/HYyvWOBgJ7CkBL2PQI/A/TVZqsTGsi8SjF7A1wBiYnv6u34hN7FXPj+BFcMKw/mc4O0+1U39ZO0aOv2BS9H7jGlUrYORGTGfH4OB5bBzwF3IlZuZQKszEBYzRlKA9AUnk1AFhNlHXBk8pL+PDsqa5VYFltA7/5ZCWPrlhPY3tSlqZ+igkEXgJmYPZmF0mlMZi7/NOBo0lCj+EJ/cu5cfwITklCV78PAoBBkec+w4FztWN2eLyF5C63K8TM7o/23lmP+X0libw6BBB1DoB79+bGqOIC/nzkeH41aQx/WfoZ9y1ezep6V4fvD4wc/w8Ttb8BTIsc6hqTZBgEHANMxdztx719XiyCgQCfH9qPG8fvx5SK0mQ8JQABb88CPBuzy6JTWY0ygW8DX8Jsf/6cQ+eN5gjs2pkZbldE9ubVACBq+57oJEBbvXKy+P74/bhh3HCeX7uZexet5o2N29x+2iLgnMgBZlXBjmDgdWCz2xWQHmE0prE/BnOHn1Aa3lj1y8vh8lGDuWL/wexXpMUynfw/4A7c6aEtx8wLuAX4Oe7fSx1rWe4tV2shXfJqAJDyHoA9ZQQCnDe0H+cN7ccn2+u4d9Fqnli1gZrW9mQ8/WDg8sgBZofC9zBja7OBuWjIQLqXgZmst6OxPxq75CyOCgYCnDyggqtGD+GswX2dXoYbE4/e//8Q+IXLzxEEbsW8Hy4B2lx8rrMsyykASAGvBgCe6QHoyriyIu4/cjy/PWwsz63dzCPL1/PqhkpXJw3uYb/I8aXI9y2YWb+zgQ+A+ZglNW5+sMW7sjHDSQcDEyNfJ2B6llJiQH4ul48axBX7D0l0p07HxDACkKxY4TLMXXmyXIBZIXA57txTjcLkRolmC6mboNijeTUA8FwPQFfyMjK4ePgALh4+gM1NLfxz5QYeWbGOudtqk12VHMxY2xGdftaKSb06H1iAyVK4ANiU7MqJq4oxjfuOhn4iZolYwql2E1Wclck5Q/py0fABnDKwt2uz+dPERODPJL9j4jJMpsabXTj3+Zbl3sYbl/Qex6sBgKd7ALrSNy+H6w8czvUHDmfB9joeWbGOp1ZvYlVdypbgZmMuKhP3+PkWzIqDZZFjaeRYiYYRvKwP5o5qx7E/5m87Ag/1ZhdmZXLW4D5cOLw/pw7sQ26GV5ONxpQK2O3XNweTMtmx/OQx+gHmGvCww+e90LJcsiYkyh68GgD4ogdgX8aXFXHH5AO4Y/IBzKuq5bm1m3l27aZU9Ax0pU/k2HNNcQdm+WXnoGAVJj/BZ5itOsVdFezeyI/s9NWze9zmZWRwxuA+XDS8P2cM7kNeRkaqq+Q0twOA64g9g2IHZqXQR5jgPYB5/xyNmecR66zK3wPvYDIJOmEypkcqmmYUAKSMVwMA3/UA7MuEXsVM6FXMTyaOYk19085g4J3NVcmcM2AjA3M3OQKTxnhPNZhAYEdAsA6T731t5PuNKM1xd/pgJt0NjnwdBPSLfB2AaeSTtwYuQUML8zhtUB/OGNSHE/qXk5/pv0Y/hlbdzQCgDybJj6024HfAPZi1810pxWxK9l3s530UYnIOnBRDXbpztWW5l1BG1JTxagAQvQfAU22nnaGFeXxn7DC+M3YY21paeWldJdM2bOW1DVvZ0Nic6upFUxI5xnVTph6zRHELsBWojHxf2enYFPm/ekxQ4UfZ7Ho9SjAZzHb8uy8mR/tAdjXw/SKP8a3MYICpfXpx2qDenD6oD+PKUjaf0DEemQR4G2Yeh43FmHH1hVHKVQM/wWxT/iz2qZpPxEwMfNKy/L6UYDaBsvGvBJ9LEuDVACB6D0AyauGi8pxsvjxiIF8eMRCAhdX1TNuwlWkbtvLmpm3UtSVleaHTCiNHLAlkajDBQF3kazVmuKG+08937BPeiFnxsEPn/cNbsMt5nsOu7tFsoACzLGpHF3sJZgJdCeZOqpTdG/sSzBbQaW9UcQHH9OvFKQN787kBvSnJ9urlwrcqgK9alv0Ak4I5liQkK4EjMUHAiZaPuRWTJyCR9KdXYT5X0TQALybwPJIgr36iLXoAfNgF0I2xpYWMLS3kO2OH0R4KM3trNdM2bOWNjVv5cGtNstIRp8KORlVSKAAcUFrIsf3KOaZfL47p24sB+Y7t4utJHpgEeAl2PUMbMUnB4slAVo/ZQOhd7OYZjMH0Mvw7jucC0/D/P8uy/8QEAZIiXg0A0r4HoDuZwQBH9SnjqD5l/HTiKNpCYT6uquHdLdW8V7mdmZu3s7ZBw+0Sv6xggHFlRRzdtxfH9DWNfu9cX49SuMmtAODy6EUAuAITBMSrGpOQZx52kwOvJf4A4JuYeQ3RhDHzGCSFvBoA9LgegO5kBQNMqShlSkUp32EYABsam3l3SzWztmznvcrtzKuqpSF9ewkkAcFAgNElBUwuL2FK71Iml5cwsbw4HWfrxyTFkwBHYfI3RDMDs2NoopYDvwZ+ZlH2aMzWw7Em5ynC/u7/NcxyZEkhrwYAFqsAklEN7xqQn8v5w/px/rB+AHSEwyyvbeTjqho+rqrl4221fFxVy6amlihnknSSEQgwoiifCb2KmVJRyuSKEiZVlFCc5dWPeuqkeBKgzfa4YJbnOeVOzJwDmz0fLsQuWOjsJ9jd/YNZySAp5tWrgq/zAKRCRuQub3RJARcNH7Dz55ubWkxAUFXLgu11LKmpZ0lNg18nGUpEABhWlM+40iIOLCtkXGkRY0uLGFtaSI6Hk+/ITlMsyrQCVvsVW2rC9ALcb1H2PGILAA7A5DOwsQh4OYZzi0u8GgCkTR6AVOubl8MpA3vvtb/6+sZmltQ0sLSmnsU1DSYwqG1gTX2TXlsPKcvOYkRxPiOKChhRlM/I4nzGlRVxQEkhhbqrT0iKhwBskuR8gvMJuB7DBAHRJt4ehLmb32J53j9gn376p+gezhO8egVRD4DLBubnMjA/lxP6l+/285aOECvqGllT38Sa+kbWNDRF/t3E6vomNjY267V3UE5GkAH5uQzKz92toTeNfQG9clKe0l/cCQDKLMpscOF56zGZ974SpVwAk1HwKYtzXo39MsPZlueUJPBqAKAegBTJyQjuXJLYldZQiLX1TaxpaGJdQzObmlrY1NRCZXMrGxub2dzUSmVzC1uae/a2ApnBABU52VTkZjO4IJf+ebkMLshlQL45Bhfk0j8/lz6aeZ8yAftJAG4EADaz8d1Kv/0/ogcAAIcQvbEeC9wVw3PfhO7fPMOrAYB6ADwqOxhkZHEBI4u7z/PRHgqzJRIIbGpqobq1jZrWdqpb29je0kZ1axvVke93He00d3RQ0+qN+QmFWZkUZGZQkJlBaXYW+ZF/F2dlUpqdRe/cbMpzs6jIyaY8J5vy3GzKc7Lok5ujpDk+kOIdlGySSfWOXiQu0y3LRVulkIMZUrDdd+BF4C3LspIEXr1KqQfA5zKDgZ13u/FoD4Wpa2+nLRSmvq2d1lCIhvYOmjtCNLV30BEOUxtlImNHOExtazsFmRlkRybG5WVk7NyhLicjuDOHfWYgQFFWJrkZQQoyM9WAS2duxAo1mD0guhPt/+O1BZNXoH+UcqOi/P8D7L3b6L60ADdalpUk8epVTj0APVxmMEBZthn/Vje5uCWA1bXEjQBgLWbmfHcOwOwtsdmF519I9ABgEPt+iX6I3TDCDrcSe14BcZlX1wupB0BEvMKNAGCNRZkgcIoLzw373kmwszy6nqx4IfDzGJ7rQ+COGMpLkng1AEjL3QBFxFssJwK6EQDMtSwXy112LGx7FfbcqfDzwKPYvyatmJTH3pjYI7vxagAQtXmvaWvn9Y1bk1EXEUlTKZwIaJsI50TgMBee33Y7lc77Pl8APIH9en+AWzD5DMSDvBoARH1zhsJhrpn1Ca2hdN4WSEQ8wI04YTVmHN7GHwCnN26wvfbveN4rMbv3xdL4P49JOiQe5dUAwKqDf1ltA79fuNrlqohIOorh5sGtjoInLMtNAW5z+Lltr/0BzH4EDxDbpPElwKWk98atvufVAMD6TfPzect6fNIZEYlNU0cH50z7kA67yURuBQB/Ahoty/4AcxfuFNtr/yPAt2M8dy1wLu4lMhKHeDUAsJ7iV9Pazo0faHWJiNhpbO/gjNc+4OX1lbYPcSsA2Ao8HEMd7geud+i595zcty8HxnjeduDLwOIYHycp4NUAIKZuo78vX8cTq9xImy0i6aSpo4NzXv+Q6Ru3pboqO/wKkxTIRhC4G5N9L9pmPtEMTvDxXenArFp4wYVziwu8GgDEvMjvypkLWFbb4EZdRCQNtIZCXDh9DtM2xLx6yM3FAusx3fux+BKwHJNX3yalcFeGxPm4fQkD1wCPO3xecZFXA4CYJ47Ut7Vz6dsf0xZSggAR2V1TRwfnvv4hL35mu7vtbtxeLfhn4O0YH1MB3A4sxaTY3S/Gxw+KsXx3wpgdAR908JySBF4NAOJqxWdXVvP1GfOUJlhEdqpta+fUV9/npXXWY/57cjsACAMXY9IDx2oQZqndCmAO8EvgEsxOfuWYDXvALOcbAZyGCRi63u4zds2YMf8HHDqfJJFX9wKIuw1/ZMV6+ufn8uvJY5ysj4j4UFVLG6e/9j6zK6tTXZVoNgKnAzOJf3z/4MiRLNswmQFj7b0Qj/BqD0BCa0fvWLCCexaucqouIuJD6xqamfq/WU40/slKGPgpcD5Qn6TnS8QnwGTU+PtaWgYAADe8v4g/LFrtQFVExG9mV1Zz2IszWVTtSFuazIzBrwMnAHGPV7gsDDwEHInJZig+5tUAIOFh/FA4zHfe+5Sfzl3qRH1ExCf+sXwdx730Lhsam506ZbK3DPgAmIr3ts9dhxmmuBKoS3FdxAFeDQAcSx9568fL+Na7n2j7YJE01xEO8733F3HZO/No7nA0A20q9gxaCkwC7sWBG6IEhTAJi8Zjv4mR+IBXAwBH3/D3LV7DGa99wLYWpQwWSUfbW9s4/bUPuPvTlW6cPlWbBjZh0vCehsmtn2xh4DnMxMKvAZ6fSSmx8WoA4PgGEi+vr2Ty8zP4aJtt0i0R8YMPtlZz6AszedU+ta/fvAKMw3S9f5ak55wOHI7J6T8/Sc8pSebVAMC2B2BdLCddXd/E1P/O4s9L1qa8T01EEhMKh7l9/gqO+u8slseeBTQEfA+7Gfep6gHorB0z+W5/zC57b+DeTnvtwAXA+y6dXzzCqwGA7Rv7FGKcidrcEeLqWQs49dX3WdvQFHPFRCT11tQ3cdIrs7n5o8XxZP9sAi7E5NW3ebAXAoAdmoFHgRMxiX1uBP6LszvvzcCs8Zc056U3dmd/x2wqEU0RJtvVm8CwWJ+kOCuTO6ccwJWjh3j2hRCRXULhMH9avJabP1pMXVt7PKfYCpwDzIp8X0P0nfFewsx+97IMYAIwBpPnfwgmXXBnp2C3C+ANwG8drZ14klfbvYeBr1qUK8YsRxmKGScbHc+THdmnjN8dNpYpFaXxPFxEkmBZbQNfnzGfdzZXxXuK5ZiGfFmnn9kEAC9jJuL52TDM759hUXYE4MpsSvEWrw4B2Pbp7aj/GkxiinfiebJZW7Zz+IuzuHzGPDY2tsRzChFxSWN7B/83ZwkHPft2Io3/G5hrxLI9ft5TpgN9E7vG/xPU+PcYXg0AbOcAdO7BqAJOBp6I6wnDYf62bB37P/0mP56zhKqWtnhOIyIOenL1RsY8/RY/n7c83rX9YcwGOZ8j/ux6Xu0ptZUPfN2y7L/crIh4i1cDgFh7AHZoweyV/QPMTNaY1be184t5yxn+5Bv8ZO5StrcqEBBJtg+31nDCy+9x4fQ5fBb/ZN0q4CzgR0DHPsr4bRJgPC4BelmUawP+6nJdxEO8+sb+M3CVRbnemEk9XTkG0xvQP5GKlGRn8o3RQ7n2gKEMLshL5FQiEsWSmgb+b84Snlq9MdG++Q8xS9lWRylXBZRFKfMapgfBj7IxKYX3syj7H+AL7lZHvMTvPQDdBTBvYzJYJZS6sqa1nTsWrGDEU9P50ltz+XCrEgmJOG1dQzNXzVzAuGff4snEGv8QcA8ml/5qZ2rn2RslG1di1/gD3O9mRcR7vPrGvg+4xqJcX2CLRbkLML0K0SJ9K5PKS7hq9BC+tN8ACrMynTilSI+0sq6Rexau4oEla53I378ak7J2egyPsekBmIaZX+Q3BZiZ//0syq7AJBlyK7mQeJDfewBs6/8kcAhmq82EfbSthm/MWsDAf73O1bMW8F5ldY+ZSizihDnbarhg+hxG/edNfr9wdaKNfxj4E2azmlgaf7Br8Lx6oxTNd7Fr/MH0mqjx72G8+sb+A3CtRbmBwIYYz30x8JvIYx0zrDCPi4YP4KLhAzi43CbXhkjP0h4K88Jnm/njojW8vnFfU3ditgYzwz3e4H4rJplYd97AZN7zk5HAPMwKgGg+A0ZhJlFLD+LVAOD3mF2wohkErI/j/IXAT4DrMJNkHLV/cQEX7TeAi4b358DSIqdPL+Irm5taeGjpZ/x5ydpEZvTvqQ1zo3ALie1NX8neGfP2NB04IYHnSLYAZtjCts7fAB5wrzriVV4NAH6HaZyjGUJiu2MNB27FLB10ZThkfFkRFw0fwNlD+jK+TMGA9AyhcJg3Nm7j4WWf8dTqTbSGHO1dfg1zfVjkwLnSMQC4AnjQsuxKTPpgrXfugbwaAPwWM34VzVBgrQPPdxAmWcjpuPiaDCnI4/TBfThjUB9O6F9OfqZNYi4R/1iwvY5HVqzjnys2sL6x2enTr8Ls4PeMg+fcgllO3J03geMdfE43jQA+AvtjDXoAACAASURBVEosy38Vs/eK9EBeDQDuwmxIEc1wnFvqA2ai4A+B83B5gmRuRpDj+pVz5uC+nD6oN8OLbIbqRLxnTX0T/1mzkX8sX8+8Kic3pdupHrgDuBOzG56TNgN9opR5CzjO4ed1Qx5mk6OJluU/AI5g30mSJM15dQ2bE3kA4jEHkwhjLPB94ItAjsPPAZhtiV9eX8nL60120jElhZw8oIKTB1ZwXL9yirS8UDxsflUtz63dzLNrNzNnm2u5MRqBP2Ia/njT+DrBqzdKe7oX+8a/HZNsTY1/D+bVN/YdmAY4mpGY9atu6YvJR3B15N9JkRkMcHjvMk4eUMFJAyo4tKKUzKBX/1TSE7SFwszaUsULn23h2TWbWFHX6ObTNWHydtyOuUN30yaif7bfwWQW9bJrMPlTbN0J3OhSXcQnvNqq/Bq7N+coTKILt+VghgUuB04iyfkTSrIzOa5fOcf3L+fYfuUcVFZEMODVP52ki0+21zFtw1ambdzKW5uqqG+La3uNWLRgZqPfTuzLe+O1kehr5b0eAHwBk/bcdlLRKmAcpodFejCv9jPbThlOVkPcgvmAPQEMBi6LHCOT8eQ1re08t3Yzz601N0Ol2Vkc3bcXx/brxTH9enFIeQkZCggkQRsam02DH2n0k7g1diXmjv8+TIPsNV7+cJ0EPIp94x/CLPtT4y+efWP/ErjZotwYYInLddmXAHA0plfgC5jcAilRlJXJ1L5lHNuvnGP69mJSRQnZQa8meRSvWF3fxIzNVczasp23N1XxaXUiy+nj8ilmye+jOD+5z9YGom8YNhOzt4DXHAP8l9iuPbdhcqCIeDYA+DlmC89oxuLMWuBEFWKWEJ4f+ZqyYAAgJyPIxF7FTKko5dDepRxaUcr+JQWe/WOL+9pDYeZW1TBry3Zmbt7OzC3b2eD8Mj0bYcwGXb/DrOdPdRZtmwBgFnBUEuoSi3OAxzEz/21NA05FE/8kwqtDAKlaBRCveuDfkSMPOAX4PGYv8tJkV6alI8TsympmV1bvDI9Ks7OYUlGyMyA4tHcp/fJcWeAgHrCqrpG5VbXM2VbDzM3beX9rNY3tKb3urwL+gVlzviqVFdmDzbXGK9eZHb6GGTKJ5fq9HrgENf7SiVcDAK/NAYhFE/Bs5MjG5BD/PKZnYECqKlXd2sZrG7by2oZdOdj75+cwvqyYCb2KGFdaxPiyYsaWFpKT4cWXVbrSEQ6zpKaBudtqmFtVy9xtNczZVkt1qycSu9Vj9pj/G2Ytfarv9rvixTrtSybwK0wypFiCkmbgQux2TpUexKsBgN96APalFXgpcgSACcBpkeMIUvz6b2xsYWNjJa+u37XEOjMYYP/iAsaXFXNQJDA4sKyIoQV5WoqYQmFgbX0TS2rqWVRTz6LqeuZV1TJ/e12q7+z31I7JnPcY8BQmCPA7L7zxB2ImIcc6F6EDk89kluM1Et/zagDg5x6AfQkDH0eOX2H2ID8ZEwyciv22na5qD4VZWF3Pwup6/tWpozYrGGB4YT6jSgoYVWyOkUX5jCouYEhhnlYhOKS5I8Sy2gYW19SzpKaBhdV1LKlpYElNPQ3eaug7awJewaTofRGoSm11YuKHIYCzMbn9o2Us3FMYk+znWcdrJGnBqwFAuvQAdGc7u+YNBDB7mZ+ECQqOwW4bz6RpC4VZWtvA0tqGvf4vOxhkv6J8RhbnM7ggj4H5uQwuyGVQ5N9DCnPJy9C+BwC1be2srW9idX0Ta+qbWNPQyJr6JtbWN7GmoSmZS+8StR0zA/0ZzKQ+vy4r83IA0B+zM+oX4nz8D4C/OlcdSTdeDQDSsQegO2FgfuS4G5N46EhMMHASZo8Cz7agraEQi2vqWVyz797eXjlZkWDABAV9crOpyM2mPMd8rcjJpnfkZwU+2ySpuSNEZXMLm5pa2NLUSmVzK5uaWtjc3EJlcyubm1rY3NTCuoZmtntjbD4e7cD7mJn7rwGzIz/rCZIdAGRj1urfSvyTiG/BZFQV2SevBgA9oQegOy2YLUinYzYnKsWM/R2L6R04BO/+7bpU1dJGVUsbC7ZHX2uemxHcGRz0yskiNyNIYWYmxdmZ5GVkUJCZsde/MwIBMgIBirvYQ6EkO3OvzIkNbR07t6ht6uigucP8u6UjtHNMvbq1jdq2dura2qlr66CurX23n9W2Rr66nyEvVZawq8F/E3Blp58U89IkwCzM7nw/xmx1Ho8O4NvAnxyqk0jS/QDzwYx2TElVBVOsELPU8BfADEzAYPN66dDR3bESeASzzGwwPcMaor8uH7hch3LMzP6VFnXp7mgm/uEC6YG8ehcZtiyXrj0A0dRjJl29Evk+Hzgc0ztwGHAo0Cs1VROfaAfmYbLczcQEksnKv+8lNtcaN64zWZjP6+WYBGK5CZ6vCtP4T0/wPNKDeDUA6GlzABLVCLwROXYYiekhmYIJCA7GYxMLJam2Y+5kZ2Ea+9mkxxK9RCUzABiCSR9+FqYHz6kkYbOBizC9GSLW/B4A9NQeABvLI8fjke8zgQMxwcChwCRMKmWlA0w/lcCcPY6VKa2Rvx2CyaQ3H9Nr8ikmqc5mzGvdeQVEEVCCaewHRL4ejAnEY13GF00Ys0rgRkzOEZGYeDUAsB0CUA+AvR1dvvMwa4rB/P1HYpYgjsMECAcB++HhVQeyUwhYjWmQ5rKrsf8shXXyG9trzYDIcaqLdYnFVsxKgadTXRHxL68GABoCSI52YHHkeLLTz/MwvQM7goKxmEBhOGaJkiRXG6Y3ZyHmb/Upu/5uTSmsVzqwDQC8IoxZ238TsC3FdRGf82oAoEmAqdUEfBQ5OsvAzA4fgQkI9vyqOQbxa8JskrMKc1e/OvLvRcAyTBAgPdsC4BrMpE2RhPk9AFAPQHJ1sKtxer2L/+8PDI18HYTpMh0YOfpjxkMLklBPr2nBjBlviHxdz67XccexOSU1Ez/0AKwFbgceQoGgOMirAYAmAfrTxsjRnSJML0JfoDdmDXSvTsee3/fCLJnyilagptOxPfK1GrMUayO7GvvNwCb8lRtfvGMNZt+Qh9EkP3GBVwMA9QCkrzrMWPbCGB5TiAkCyjDv2SLMPIXcyL+zMEuqsiJlY9GM6X4PYxpxgAbMBbc9Ut8GdjX4fs15L13zYg/ATMzd/mPojl9c5PcAQD0APcOO9erbU1oLEfdswmwM9hfMckMR13k1ANAqABFJhlT1AIQwSzdfAV7F3PWn7aYS4k1+DwDUAyAiibAJAJoxvU/9E3ietZjlmwswDf/rmCRCIinj9wBAPQAikgibAGAlJh9GLjAscgwHijFLY4sj5fIxOyZuw0z83IZp5Bdj5o+IeIpXAwDbbrnDgJfcrIiISEQzuxIwifieV++gbXsAbsRE4yIiscrErCaJRkONkpa8GgDYygPuSnUlRMR3soF/YZJTiYiHfAUzDGB7fC411RQRH8rBDB3aXl8WpaaaIu7yew/ADn8BKlJdCRHxvCzMenuv7OonkjJeDQA6Yiw/CPg7GqsTkX3LBB4Hzo7xcbquiCTRJcQ2BLDjuDEVlRURz8sGniK+64pm/Ysk0cXE90FtA05LQX1FxLsKgWnEd00JA0uSX2WRniveACCM2axlavKrLCIeVIpJsxvv9SQMLE16rUWSIF3mAHSWBzyHydwlIj3XAOBN4MgU10PEk7waACS6QUcvzCYbBzhQFxHxn4nAbGCCA+fSJEBJS14NAGwzAXZnIPAOcLgD5xIR/zgb89kf5ND5FACIJNHnSWzMrvPRAJye3OqLSAoEgJswQ4hOXT/CwPJk/hIiPd05OPsBbgWuS+pvICLJVAb8F2evGzuOFUn8PUR6PKcDgB3HM0BJEn8PEXHf4ZhG2o1rhgIAkSQ7E/c+zIuB8cn7VUTEJZnAbUA78V0LpgMrLcqtTNYvJCJwBnYf4FmYCYOxfvCbgR9j8oKLiP+MBd4j/huBf2CyAy6yKLsqSb+TiGAm7dl8iL8OfIP4J/3MAyYl6XcSkcRlYib6NRPfZz4E3M6umf02PQAKAESS6FTsPsxXRsp/nfiDgFbgN5iMYSLiXZOBufz/9u47PIqqe+D4d7JJSChJCDWEDtI7SBdQuggKKBYQFbG+qNhFUcSK/FQEu76ighULCipFepMiNYYSOoZOIKT3/f1xk5cYk+zdOrub83meedLuzJxAZufsnXvPdfxdfyZqqfHC4jX2O+K+X0kIUdQA9C7ouwvtMxxI0dyvuO0MqjfB4tbfTAhhr6rAhzg3ve800KeYY5/W2PeIO34pIUTx+qN3Ud9bZL8O6GX0pW27gOuQ4h9CmM0C/Ac4j3PX9BpUWeDi6LxeHHX5byaEKFFf9C7s+4rZtxbODQ4q2LYjiYAQZhkKxODcNZwHvIoaN1CSwxrHOebS30wIUaqr0LvA/1PC/sHAmzg2Q6C4RGB0/jGFEO51BbAO56/bc6jZRLbs0ziWJABCeFAf9C7yB2wcZyjqhcDZFxMrcByYBFRxyW8ohCisE66r5LcaqKt5Xp1ehr+d/eWEEPp6o3ehP6hxrCjgJ83j6WypwKfIEqNCuEJf4Hdcc20mAxOwb5GzrRrHlQRACA+6Ar0LfqIdx7wJNdLfVYmAFfgLtcZANUd/USHKoADUgl+bcd21+DtQ34FYNmkcO96B4wohHNQTvYv+YTuPWxX4CNevFpYDLAHGoRYlEUL8W2XgUWA/rrv2ElH1QBwdrKsz3uC4g8cWQjigO3oX/6MOHr8jsF7zHPZumcBCYAwQ5mB8QviTDsAnQBquu87ygG+A2k7GtkrjXJIACOFB3dB7EXjMiXMYwI3ojQJ2dEsHfsg/j1QaFGVJZVShrj9w/XX1J6qX0BWWaZzvhIvOJYTQ0AW9F4InXHCuQGA8aqqPuxIBK5CNWn3scaClC+IWwtsEo5by/h7Ha/XbuhHfgX2D/GxZrHleIYSHdEbvBeFJF56zHKoU8AHNczu7HQbeRS18FOrC30MIT7IAvYB3cN2U26JbGqqgTyU3xK8zA+GkG84rhChBJ/ReGCa54dwW4GacW3TE3i0VWAQ8ArRBqg8K7xaCqrHxCa6fWVP0upgB1HTj77JGI45Tbjy/EKKIjui9QDzt5jh6o57h52jG46rtFPAFcBsQ7ebfUQgd1VADW7/DuUW3dG/8b+DeG38BnWmA0gMghAe1R++FYrKH4qkHvIT7xwmUtO0GZgEjgepu/l2FAPVYagAwHdUb5oqy2ra2FNTS3DU88PsV2KER12EPxiNEmdcOvReMZz0cVwBq9PGHuP9dUGnbwfwYxqJf8lSI0gSget6eRD0XT8dzf88ngOdRdTo8ba9GfLtNiEuIMqsNei8cU8wKEAhHTXPaUExcnt72oQocjUESAqEnCDXYdiJq1L67BvCVtq0FbqD01frc7XAxcRXdtpsWnRBlUGv0XkCeNym+opqiHkdsw/xkwIp6R/UTaoxEP1SyIsq2yqgZJy+hit+kYs7fZgbwGao4kDdIxHbMG0yLTogyqCV6LyYvmBVgKRqiChRtwDPPTXW2PGAP8DlqCeXLUe8AhX8KRt1g7wQ+QK1Z4ery1/ZufwD3A5Fu/L3tVQ69a3ShWQEKURa1QO9F5UWzAtQUjVqdbDmqRLDZiUDhLRPVtTkXVVBpIDLjwBdVBHqg/s4+QfVCZWH+35cVOIrqcWjqtt/eObXR+z3+a1aAQriTmc/eSpOn2c6VFcHc4TiqQMo7qCIm/YDB+ZuzNcydFYwabNmuyPfPA7tQ66TH5H++D9VVKswTDDQBmqFuqK1Qs2Uuw7uugwRgASqxXI3+tWwG3WvwtFujEMIkkgB4TjIwP38DNdCxIBnojvd0yUcCffK3ws6hVnErvB3I/5jkufD8XiTqBt8cdbNvlv95A1SRKm90DPgZNe5kDapuhi9ooNlOEgDhl7w1AcjSbBfs1ijca1f+9hqqd6AP0B/VS9DcvLBKVDV/61bMz84AcagR1fGoQYjH8j8/jryAFlYTNVOjXv5WF7WOff38z31lwGYs6ob/E7AV1VXua3QTgKNujUIIk3hrApCh2a6cW6PwnGTUQKOCwUa1uZQM9MP7i/9Uz99KWqEtE5UIHEclBqeAs/lbAqp3ofBHX7uZVETd2KujKubVRBWzqZb/sWCrhyqj64sSgBWoGgHL8I/iOE002+1zaxRCmMRba85XRj2LtuUT1Ep+/sxADYrslb/1BqJMjci98vhnMpAGXMz/mF7M56moHqOL/PvRURoq+ShOMFAh//NALi00E4B6F17wMTz/ZwVbGOrvs+DrCPxzMadMYD3qZv87anChNz/Pd8Q21DiK0uQA5VGreQrhV7w1AQhG9QLYiu9n4Dr3h+N1mvDPhECK/whnZaO68tehbvprUQmUvwpC9bzZ6kWMw3tnMQjhFG99BJCFGnVe2UY7T9YM9yZx+VvB9KT6qESgJ6q6W0u8d8CY8A4XUbUq1qNu+lvw7xt+US3Qe4QY6+5AhDCLtyYAoAaOSQKg50j+9nn+1xVQhWAuz986owoUibLrEKoYT8ENPxb/69K3R0njVYra7NYohDCRtycAzWy0qYPqypPnc/+UiurCXVvoe1X5Z0LQDin844/yUFMztxXZpI7DP+kmAJvcGoUQJvLWMQCg6oXfptGuOWpFL2G/yqh1F1qi6hK0zP86wsyghLZ01N/+LlRVx22o5W2TzQzKR8RjOwHORV0j8u8p/JI39wDoTr1pgiQAjrqAKtyypsj3a6MqzRUkB02ARnj/dER/dRH1Nx6b/3E3am2HI5TtbnxHtUGv9+sv5OYv/Jg/JAAdUaVHhevE52+Li3w/DJUINC70seDzaLy7R8nbnUXNrT9SaNuPutmfMCsoPzVMs91St0YhhMm8OQHYo9mui1ujEIUlobqai1sfPQQ10DAaqIXqRYhCjdOIyv+6Br5VvtlVUlBFkM4AJ4G/uXSTL7jpp5oTWpmkmwAUTYCF8Cve/I4tAFUMyFZp1ESgCtIV6gsCUUlAHVSVvEjU/11koa1qoc+roKrseZOCwkSFt0TU3+qZ/O0El272pyhb0+u8XT1U0mXrtS8F9bdYUiEpIXyeN/cA5KGm4PS30S4C9Rhgi9sjEs7K4VJJYF0FFfvKo+Zth6NmfoSheh1CUUlCELanjVJon0RUyeF0VNEpK5dGyhdUF8xF9XoUvtnrrlMhvNNY9N74rEBu/kKY6gX01ut+zqwAhRA+w0CtYKnzmjLapBiFEPn6onexbjQrQCGEz+iF3utJGpfWhhBCmCQY1QVr64LNQyrdCSFK9z16CcA8swIUQvzTfPQu2slmBSiE8HoNUWNQdF5LRpgUoxCiiPHoXbT78O5ZDUII87yN3uvICdSAUiGEF4hEjcbVuXgHmRSjEMJ7VUdN69N5DZlqUoxCiBLoPgZYZFaAQgivNRO9149sZIEsIbzOSPQu4DxUnW8hhACoz6U6D7a278wJUQhRmiBUbXqdi/gnk2IUQnifuei9bliBTibFKISw4Vn0ewE6mxSjEMJ7NEJVc9R53fjVpBiFEBqqo8q26lzM65EZAUKUdU+j/+6/m0kxCmEaX7tJfgDco9n2DuAz94UihH+YN88aGpxJpzxrbk3DatQw1NoLPm/ezy+22HtgUz1b7SpVrJz68D1z13giJuF3Eq0B1tN5OZbjuRXYNmqUkWt2QPbwtQSgDmqN9HIabc8ALYFzbo1ICB80b541ODA9d4xBwM0G1p5WtUiSEMJxiWCssJL36fCxll8Nw7CaHZAtvpYAAMwCHtBs+xMw3I2xCOFzfvo8Z7wV4zlUQi2EcDEr7DKseY8Pvz1oqdmxlMYXE4CaQBz6i3XcCnzhvnCE8A2/fGmtnJ1j/S9YpdStEO5nBWZkhwZMGjXK8MplxH0xAQB4HJiu2TYF6ALsdl84Qni3eR9aw4PK5a3AoIPZsQhRllgxFpzNMK6/5x4j2+xYigowOwAHzQBiNNtWBH4Ewt0XjhDea948a3BwSO6vcvMXwvMMrMOqh+TNNjuO4vhqApADTER1sehoipoR4Ku/rxAOC0rLe9SK0cPsOIQow8bM/yxnpNlBFOWrjwAKvA1MsKP9B8B9bopFCK+z8HNrdA55cUB5s2MRoiyzwvGc0IDLRo0y0s2OpYCvvyN+EjUgUNe9+fsIUSbkWPPGIjd/IUxnQHRweu4ws+MozNcTgDRgLGoVL12vAg+5JxwhvIzBjWaHIIRQ8gi4xewYCvP1BABgE/CYHe0N4C2kJ0D4uQ8/tAYBrc2OQwihGFi9aiCur48BKOwr4GY72ltRCwy97J5whDDX/E+t9QnIO2x2HPbKzc1m7/4NHI3/ixOn4jh15hA5OZmkpSdTqWIkYZWqElW9MXVrt6LZZd2ICK9pdshC6Mo9kxEQ6i1TAgPNDsCF7gKaA+002xvAS0A0qrKgT9VwFsKWgAAq55kdhKbc3Gz++HM+GzZ/x87YZaSlJ2ntZxgGdaNb0bXTcHp3H01UjcZujtRz8vJyORb/F3GHNnPiVBwXk85wMekseXk5BAeHEhQUQmRELWpHNaNWzSY0qNeWihUizQ5blM5SLZTKqFL1pvOnHgCAWsBG7C9xugAYAyS7PCIhTPLDXGuHgLy8rWbHUZq09CQWLX+PRcveI+HCcaeOZRgG7Vr1Z/iQJ2ndvI9rAvSwnJwstu1azMr1c9jx1+9kZKRo72sYATSs1562LfvSvs1AWjbthWH4w1Ne/2I1AmqMGGtIAuAmLYB1QGU794sDrgP2uDwiIUzg7QnA2o3f8OnXj3Eh8aTLj92uVX/uuPl16tZu5fJju0NGZiq//f4OPy9+k6Rk16xfViWyNr27j2Zw3/uoGinLPngLSQDc7wpgEfYva5oI3A787OqAhPA0b00AkpLPMuODW9nx1+9uPY/FEsSoYc8wcugkLBbvfNpptVpZuupjvpn/PIkXT7vlHBZLED27jOLG657zq0ckvkoSAM/oiUoCKjqw71xUzYA0l0YkhAd5YwJw4PCfTH/7Bs4mHPPYOZtd1oMnH5jndYMFLySe5O3/3sn2mCUeOV9gYDCD+97HTcOfp3xomEfOWSAvL5cDh7dwLiGesLCqNG3cjaBAnVXd/Y8kAJ7TF1gIhDqwbwwwAjjg0oiE8BBvSwC2xyzh1ZkjyM7O8Pi5q0TW5rlHf/WaRwKxe1fz2ts3kJyS4PFzV6tSl/vHfUS7Vv09cr6Y3St5d/bdnD576H/fiwivwZ23zKBn17JXpsKbEgB/HyGyHBgAXHBg39bAWtTAQiGEE2L2rGLarJGm3PwBEs7HM/nVqzh0ZJsp5y9s45/zmfr61abc/AHOJhzjhdcHM3feJPLy3Dv5KXbfGqa+PvgfN3+AxIunefOD0az542u3nl+Uzt8TAFADAnsBjgwxrgm86NpwhChbjsbH8Mpb15KVZW4J9OSUBKa+fjWnzhw0LYYlKz9i+jujTEuEClitVn78dTovvTnUrpkG9vpozgPk5hY/5d1qtfLJlxNN/7soy8pCAgDwF9A9/6O9RuD/j0qEcIuMzFRef/dmp28yFcpHULFCZSpWsHdyzz8lJZ/lxTeu0a4z4Eobt/7ER3MmYLV6T3WG7TFLmDJ9gFt6I06ciuNYfOkvuUnJ54jdt8bl5xZ6vHNorHscQyUBc1DT/XRFoMYQyIBAIew0+8uHiT9h/8za6lXr06v7LXRsM5j6ddoQEnJpLG9K6nniDm5mZ+wyVqz9nJTU83Yd+8SpON7/7F4eve8ru+Ny1N79G5jxwRi3d7k7Iu7gJl54/WqmPvm7SwcHJpzX63Q9l/C3y84p7FOWEgBQhX5GAFOA59B7Z5+A3PyFsNuBw3+ybM1su/apVqUuY0dNo3vn6wkIsBTbpmKFSDq0GUSHNoMYPfJFVq6fy5ffT7brXey6jd/SreMIune+3q74HJGUfJb/e+dGh7q6wypVpUuHa2nToi/16rSmapU6hIZUwmrNIyX1AqfPHuLw0Z3E7FnJ9pglpKQ6MtxJ/V9NmzmcKY8vxmIJcugYRekmO96YFJUVZS0BALUGwPPAZuBToLqN9vPcHZAQ/mjuvElYrVbt9v16j+PO0W8RUk6/fEdwcCgDr7ybbp2G8/HcB1m3Sf9ynf3VI3RoM+gfvQuuZrVamfXxOM4nnrBrvxrVGnLDsKfp02NMsTdkwwigUsUqVKpYhcYNLqd/n/Hk5mazadsCflk6iz1x6+yONWbPKj758mHuHvuO3fsK31RWxgAU5zfUugHLSmlzCNVbIISwQ+y+NezavUKrrWEY3Dl6Bv8Z97FdN//CwipV45H7vmLUtZO190m4cJzflr3r0Pl0LVr+Hlt3/qbd3jAMhvSfwMxXdtK31x12vRu3WILofvlIXnlmNVMeX+zQlMdFy9+XkfllSFlOAABOAgOBiUDhMlxW4BegN3DWhLiE8Gkr1n6m3XbM9S9zzYAHnT6nYRjcPGIqY0dN095nwZK33DYKPfHiKb78Xj8hMYwA7rntPcaPmUm54PJOnbtdq/68+cJWRl07ucRHKSX5aM4Ezp2X5/JlQVlPAADygJlAfaAT0B+oCwwF4s0LSwjflJGZyh9bftRq27n9UIYPecKl5x8+5HF6dbtFq+3FpDNs3PqTS89f4LNvntCebWCxBDLxns8ZeOXdLju/xRLIzSOmMvXJpXbNnkhNS+TDz//jsjiE95IE4JIMYCvqkYDc+IVw0I6YpaRn2F5YMzg4lLvHvoNhuH6W7f3jPqRa1XpabVetn+vy8+878Adr/tCfZTB21DTtpMVerZr14eVnVlMlsrb2Pn/u+JUt239xSzzCe0gCIIRwqbiDm7Ta9e893q6bkj3KBZfnlhEvaLX9a+9qlz8G+PrHKdoDIDt3GMbQgRNdev6i6ka35KVJKwgPszXm+ZI5857yqpoFwvUkARBCuNSBw1u02vXrdYdb4+jd/Raialxms112SsepiAAAHPhJREFUdgZ7D/zhsvPuiVvHztjlWm2rV63PQ3d/7pZekKJqVm/E0xPnExystzRK/Ik9bN620M1RCTNJAiCEcKmjNqq/AUSE16R+3bZujcMwAuh2+Qittq4sD/zdgpe12945eoZHV+Zr0qgrt984Xbv9D7/oD6gUvkcSAO8SCtwMvIKafngNji1nLIQprFarVjGaRvXbeyAa6NpRr+hn+dBwl5zv+Ml97Pjrd622HdoMonOHYS45rz0G9b2PTu2GaLXdf2iz9nRO4XskAfAePYA44CtgEqpY0UJUJcIVwJOougWyLoHwWukZSVqV3SLCanggGmjc4HKbgwGDAsvRunkfl5xv8YoPtJ79WyyBjB/zlkvOaS/DMLj71re1HwUscnOtBGEeSQC8QyNgEVDciKhg4EpgGrAdOAF8huopqOah+ITQojuYLigoxM2RKIZh2KwLcO3Vj9o1OK4kmVlprFw3R6ttj86jtMYnuEu1qvUYNuhhrbZbdy3WmtUhfI8kAN7hOaCSZtuawG2onoLTwC5UHYPrAOeWShPCSRU055unpDlWs94RPbuM4u5b3/5X0mEYAQwb9DA3D3/eJefZsv0XUtMSbbYzDIPhQx53yTmdMfzqx7XGH2RnZ/Dnjl89EJHwtLK4FoA3GuzgfgbQOn97EFXUaAewClgJrAUuuiA+IbQEBZYjJKSizeV/T5464KGIlMH97qdLp+vY9OdPnDv/N5UqVeXydtcQHdXUZedYu1GvhG6H/BUOzVY+NIy+ve5g4ZKZNttu2PwdV3S9yQNRCU+SBMA7RLjoOAFAh/ztEVRCEAusBzbkb64b7ixEMSIjanHiVFypbY78vYuMzFSHa/87IjKiFoP73e+WY6ekXmDbrsVabQf3vc8tMThiSP8J/LJ0ls1xC1t3LSYzK83pEsXCu8gjAO+wz03HDUD1DtwLzAEOoNY/+AGVIPQEPPcKLDyhLjAaeOfehxs8ZUYAjep3sNkmNzebLdv9Z475tl2LyMnJstkuIrwG7VoN8EBEempUa0ij+h1ttsvOzuDQkW0eiEh4kiQA3uFjD56rJjACeINLjwh2AbOB+4HLgXIejEc4LhDV2/MA8DXwN3AU+AL4T3LyudZmBNWkURetdouWv+/mSDxHd8W/K3uMxWLxro5X3SmBcQc3uzkS4WmSAHiHd1GzAMxgQfUS3JEfx2YgGbUuwqfAw0BfZMaBNwgHBgEvAMuBC6j/p1nATRQ/i8TjWjS9Qqvdnrh1bN62wM3RuF9eXi7bY5Zqte3TY4ybo7GfdgJwSK/Es/Ad3pWKll25wLXAY8AEoJa54RDEpbEEhZ0EYoCdqMcWe4C9wHmPRlc2VEP9+7fn0v9FQ3ygDkTDeu2pW7sVxzQqAr736T00btiJyAiz/+Qdd/DIVpJTEmy2q1m9EXVrt/JARPZpWK8DYZWqkZRc+srn+6UHwO9IAuA9soFXgddQL/oDgIFAd9QN2RtE5W9FH2KeBXajkoJ9qLEGh/K3NE8G6IOqAi2B5oU+tkD9O/us3t1uYe53T9tsdzHpDFNeG8DUJ5f6bBIQu2+tVruOba92cySOMQyDerVbErNnVantziYcIzUtkQrlXTVmWZhNEgDvk4fq1t2KSggqogoBDUTdeM2rHlKyakDv/K2oU1xKBg6jnlMfB46hll22PXHatwUBdYAG+Vv9Qp83xk8frVx1xW18t+BlMjJTbbaNP7GHya9cxRMTvnX7+gDusEczAbi83TVujsRxtaNb2EwAABLOx0sC4EckAfB+KaiSwAVDphugEoHeQB+8/51izfytewk/T0UlA2eAc6jehIT8zxMKbQU/S3JzvLrCgeqFtlr5H2ug/k+qoZ7J10KNsyhTIsJrMnTgRO2FcU6e3s8TU7sx6rpnGTZwonaZWrNZrVZ2x6232a5ccHlaNNMbG2GGetF6jyYSLhz3yscYwjGSAPiew8CH+RtAEy69++4DRJsTlsMqoLq9m2u2z+ZSUpCBesSQCaTnf13wseDzTEp+DBFO8QNhK6N6Xgq2cFSlxoKvPbd8mw+77urHWLLyI5vPlgtk52Ty5feTWbz8fYYPeYIre4716Ep5jjhz7jApqbaHwDRueDlBgd47uaZWzSZa7RLOH3dzJMKTJAHwfXH5W8FUwsZcSgi64p2PDJwRxKVeBeHFyoeG8Z9xHzFt1gitBXIKJFw4zn+/eIgvvn+Gnl1G0aXDdbRucaVXFqE5dHSHVrumjbu6ORLnVCivtxpiwoV4N0ciPEkSAP9zIH/7JP/rcNTc/p5AR1RXfKQ5oYmypnOHYQwd8BALlti/8l1GRgrLVs9m2erZBAWF0KpZLzq2HULbln2JjmqGYZg/IUK3OE7zy3q4ORLnhIbqLUUiiwL5F0kA/N9FYFn+Bup5dAugG6qHoD1q9Lm3zDQQjksH/gTWAeufenh+KmpNCFONvXEaR+Nj2Bm73OFjZGdnsD1m6f/m21coH0GTRl1o2rgrTRp1pWnjrqY8Log/uVerXZNGnd0ciXNCQ/T+7XJzc9wcifAkSQDKnlzUXP4Y4KP87wWhxhJ0LLS1Q8oEe7skVOGm9aib/jrU2AcAWrfs14G8PJNCu8RiCeKZRxYy/e0bXLaqXGpaIttjlrA9ZgkAAQEWoqOa0vyyHrRt2Y9WzfsQVqmqS85VmjNnj9hsEx5WnbBK3j3ZQ7cHIC8v182RCE+SBECAGlgXm78VLGhuQSUF7YFWQDNUT0FD5O/GDKdQKz1uz992APtNjcgOQYHleGLCPN78YAwb/5zv8uPn5eXy9/Hd/H18N0tXfYxhBFA3uiVtW/WjW6fhNG3cDcNwfeHT02cP22xTu5bu+Fbz6KxjAJIA+Bt5IRclyUVV+ttT5PvBQFMuFawpGMF/GRCCcFY2qmbCTi7d8HegEgCfFhQUwhMTvmPh0pnM+fYpcnOz3XYuqzWPo/ExHI2PYcHiGURG1KJnl1EMvOoe7RHvtqSkXiA1zXYZi9ouXHLYXXSf7UsC4F8kARD2yuLSI4SiKqN6CIrb6iNrTxR2AVU9MZZLhZIO5X+dUcp+Ps0wDIYNnEiLJj358PMJHDi8xSPnPZ94ggVL3mLh0pm0aXEV1w5+lPatBzp1zDPnjmi1i45q5tR5PCE9XS8B8PZpmcI+kgAIVypYnGZrMT8LRSUBUahaBbUKbQXfi8I/ViI8D5xAFTg6gap4GF/oewdQ9QnKrMYNOjF9ygaWr/mMb396gXPn//bIea1WKztjl7Mzdjktm/ZizA0v0+yykmpUlU7n+T9AtSp1HTq+J6Vn6NXX8vaxDMI+kgAIT0mn+EcKRVXJ3yJtbJVQSUUF1GOJMNTfsyvqlCYDOagqhVmoQkLJqBv7hWI+Fnx+DlXqON0FMfg9wwigX+9xXNnzVtZs/Iaff3uDo/HFdSy5R+y+NUx66Qr69R7HuFveJDREbyBcgTMJR7XaRYTXcCQ8j0pKtr2YEeCRgZXCcyQBEN6moMqfMwJRCUJR5Sm+hyERsKJG1ctDTg+zWIK4ssetXNnjVg4c/pNV679g/eZ5JF487ZHzL1s9m5jdK3no7s9o3qSn9n46z/8BIit7/yJHutMZw8OquzkS4UmSAAh/lIN6V15Ucd8TXqRxg040btCJO0e/yf5DW9iy4xd2xS7n4JGtbp2DfvrsYaa8NoCJ98yhe+frtfbJ0HxuHhHm/T0AxzUTAOkB8C+SAAghvI5hBNCkUReaNOrC6JEvkpGZyr4DG9kdt5bde9cQd2gzWVmufdKSnZPJ6+/dzN0p5xh01b022+uMnA8MDPaJhY3iT+zTalerpr9VFi/bJAEQQni9kHIVaNuyL21b9gVURbrjp/axd/8G9sStY/e+ddqj8ktjtebx0ZwJVKpYhR6dbyi1rU4CEBzkGzNjdXoAqlSOpmIFqSLuTyQBEEL4HIslkLrRLakb3ZIBfe4CVDd+zO6V7Iz9nZ2xy0lOcWwoidVq5Z1PxhMd1ZT6ddqU2E4nAQjygQTg+Mm9Wv9Wsgyw/5EEQAjhF2pUa0CN3g3o13scubnZ7Nq9grUbv2H95u/sflyQkZHCa7Ou562Xd5S4CmFGZkmrTF/iCz0Au3brLRdRt3ZLN0ciPE0Kswgh/I7FEkT71gN58K5P+fjNI4we+SIVyts3Q/TUmYN89/PLJZ8jwGLzGPYsg2yWXbHLbDcC6pXSGyJ8kyQAQgi/FlapKtcPe5p3X9tD3ytut2vfhUtnknix+CrMOt37GZmpdp2vJFZrHrF7V7N01ces2zSPpORzLjluXl4uf+1drdW2dfM+Ljmn8B7yCEAIUSaEh1VnwvhPaN70Cj787H6yc2wXY8zKSmfh0lncesMr//qZTvd+ZpbtxwS2HDyylRkfjP3HQL3AwGD69RrH9UMnUSWytsPHjju4kZRU27Njo6OaUTWyjsPnEd5JegCEEGVK3ytu58kHfyBAowsfYNW6ucUugqPTA5CdneHUAjrHT+7juWn9/zVKPycni8UrPuC+J5ry3y8mlthLYcvKdXO12rVr1c+h4wvvJgmAEKLM6dh2MLff9H9abc8nnmBP3Lp/fT84WG+AX1LyWbtiK+yL754mLf1iiT/Pzs7g19/f5v4nmrFgyVt2FUvKzEpj3aZvtdq2aSkJgD+SBEAIUSZdM+BBGtXvqNV21+4V//peWEW9qnhnzumtGVBUTk4Wf+78TattekYyn371KI8/34W4gxu19vljy4+kpdteBCg4OFSe//spSQCEEGWSYRjcNHyKVtviegB0n707mgCkpF4gJyfLrn0OH9vBUy9ewadfP2ZzjMPyNbO1jtmlw7V2L5QkfIMkAEKIMqt96wGUDw232S7+5L9L5eoOinO0QmGlilUcuvFarXksWDyDp17owfFi4gY4cPhPYvet0TrelT3H2h2D8A2SAAghyiyLJYjmTXrYbHch8eS/3lFXq1pX6xyHj+1wMLZAul8+0qF9AQ4d3c5jUy5nxdrP//Wzr3+colWjIDKiFm3l+b/fkgRACOEymVlpHD62gyN/79KaZucNqlXRu5GnpJz/x9e1o5phsdieSb3vgN4z+eKMueEVp6bfZWSm8vZ/x/HpV4/+bzbC3v3r2bZrsdb+vbrfoj1bQvgeSQCEEE7Lzs7g82+e4PYJNXnk2Y48PLk94x6M5vuFrzo1Dc4TKlWsotWuaEITFBRCdFQzm/udPXeUC4knHYotIrwG055dR6d2Qxzav8CCJW/xylvXkpaexJffP6u1j8USqLUqovBdkgAIIZxitebx6swR/LTojX9UvktJvcCX309m1sd3YLXmmRhh6XQW9QH1uKCo0hYLKky32l5xqkTW5pmHF/Dq5DW0bnGlw8fZunMRDz3dRjuWXl1vpka1Bg6fT3g/SQCEEE5ZsfZztscsKfHnqzd8yWffPOHBiOxzMemMVrvi1hJo0fQKrX3XbfzGrpiK0+yyHrzw5DJemrSChvXaO3SMc+f/1mpnGAGMHPqUQ+cQvkMSACGEU1Zv+MJmmwWLZ7Bg8QwPRGO/A4e32mxTPjSckHIV/vX9Ni2u0jrHtpglpKSet91QQ8tmvXl96mbuu+MDyoeGueSYRXW/fKTW443SBAWV02qXmpbo1HmE4yQBEEI4RXee+2ffPMHyNZ+6ORr7JJyP5+Tp/Tbb1a5V/M0wqkZjrW7ynJws1m2aZ3d8JTGMAAb0uYtZr/5FWxeX6bVYAhl17WSnjxMaqjeFMeHCcafPJRwjCYAQwilhlapptbNa83h39l0sWv6+myPSt3rDl1rtGtRtW+LPunYarnWM7xe8QlZWulZbXVUqRzPlscXcOXoGgYHBLjnmkH4TqFu7ldPH0Z1d8deeVU6fSzhGEgAhhFM6tx+q3dZqtfLx3Af46bfX3RiRntzcHO1kpFWzPiX+rFe3W7SOkXDhOEtWfqTV1h6GYXDNgAd55ZnVTq0MCCqhuGnE8y6Jq2KFSCLCa9hsd+x4LMfi/3LJOYV9JAEQQjjlmoEPUatmE+32VquVz799kvdm3213qVtXWrh0ptaguIAAC21a9i3x5w3rtdd+x/z9wlccXrnPlssadmb6lD9o3KCTw8cYd8ubLi372+yy7lrtvvxBb2qicC1JAIQQTgkpV4FnH/1F691eYb+v/oTnXuvvthtiaU6ePsA3Pz6v1bZty36EVSp94Z9rBjyodayk5HO89eFYu1bts0dkRC1eenolzS6zXd2wqLrRLene+XqXxtOuZX+tdpu3LdB+HCNcRxIAIYTTalZvxORHFtr97nFP3DoeeqYtG/+c76bI/i0p+SwvzxhGZlaaVvu+ve6w2aZPjzFUjojSOt7O2OW8+8l4txVI2rJtIfsPbbZ7v2PHY9mw+XuXxtK98/XaYxPenX03O/763aXnF6WTBEAI4RKN6nfkyQe+t3swWlLyOV57+3pmfnSb23sDEi+e4oXXh5S4SE5RNao1oGtH24P8ggLLMWKIfq2DlevnMm3WCJdNDQRIS09izrdP8eYHo8nNzXboGO/OvpvTZw+7LKZKFavQrdMIrbbZ2Rm89OY1zP/1/xyOX9hHijwL4aduHPF8lGG13uPJc9as3pA60S3YtO1nu9/hHvl7F0tXfgwGNK7fsdjKe86I3beGqdMHceJUnPY+Y2+cxmUNL9dq26h+BzZs+YGk5HNa7U+cimPNhq8IDalE/TqtHa65n52TyeLl7zP97RvYGbvMoWMUPlbcwU1c1XOsy9YAqBXVhCUrP9Rqa7XmsTN2GWvzCydVjoiiQnnbqzX6FMN4/dv5U1NtN3Q/w+wAhBDu8cNca4eAvDzbVW7cYNuuxUx/+wbtbvaiwipVY0i//zCo7302n7/bcj7xBF/98Bwr1n6mtQJegfp12/LG1C123Qh3xi5n6v8NtOs8oHoaru4/gU5tr9YaUJmbm8PuuHWs+eNL/tjyo8uL6dww7BluGfmCy473zifjHa4BUT40jCqRtQkOCnVZPDqCgkJoVL8DQ/pPIKpGY5cd12oE1Bgx1tArP+lmkgAI4afMTABAveN+ZYZagMZRQYHl6NB2ED0730iHtoMoH6r3bjAvL5fYfWtZtX4Oa/742u7ZBhZLIK88s4YmjbrYHfPsrx5h4ZKZdu9XIKpGYxo16EjVyDpUjaxDUFA5srLSycrO4PSZQxw+tpOj8TEurylQmMUSxBsvbKFe7dYuOV5S8jkeeqYNiRdPu+R4nhQUFMLEe+Y4tTRzYZIACCHczuwEAODQkW28OnOEdg360gQEWKhbuxVNG3elZvVG1KjW4H8JQU5OFknJZzlz7giHjmxj74GNJCWfdfhcNw2fwo3XPefQvtk5mTz1Yk8OHdnm8Pm9QZNGXZn27FoMwzVDxXbtXsHz0wd69cJQJQkKLMeMl7Y5XR4ZJAEQQniANyQAoN79vfn+LeyMXW52KFo6th3M0xN/duoZ+IXEk0x66QqXDqhzBcMwMIwA7fEZ94/7iP6973TZ+Rctf5+P5kxw2fE8aUCfu7jvjg+cPo43JQAyC0AI4VZhlary7KO/MXTgQ2aHYlPzJj157D/fOj0ArnJEFM899huREbVcFJnzLJZAJtz5CSOv0V/l75sfn3d4HEdxBve9j9tufA3D8L33nnEOTK30dpIACCHczmIJZNwtb/Lso786Xa7WXVo1681zj/5a7Kp/jqhVswnTnl3nkm5jZ1WsEMnkR37hqitu48brntWuFng+8QQLF7/l0liuu/oxHrzrM4KDPTuoz2l2Duz0BZIACCE8pkObQcx6JYYBfe7yqneBA/rcxZTHFxMSUtGlx61WtR7Tnl1Ll47XuvS49mjR9Ar+7/mNtGulqvJZLEFMvOdzgoJCtPaf/9v/aU9t1NWnxxhee26DywYZekLjho6XWPZWUgdACD9lRh0AHUFB5bi8/TW0at6H+BP7SLgQb1osFcpHcN/t73PDtc+4bN57UcHBofTsciOVI6LYu38DWdkZbjlPUVUj6zD+1lmMu+VNKlWM/MfPwipVJTc3h9i9q20eJzsnk9zcbNq3HujS+CLCa9C/z3gqVojk0NHtZGZ6xdT4YgUGBvPAXbMJD6vu/MGkDoAQwt28ZRCgLTtjl/PZN49z5NhOj563U7sh3Hvbex59JJGcksA386fy+6r/kp2T6ZZzVK9an2GDJjLgyrsJCixXYrvs7AwemNSa02cP2TymGgW/neiopq4M9X8ys9JYtW4uK9bNIe7gRrecw1GBgcE8MP4T7VUfbfGmQYCSAAjhp3wlAQBVAW7brsX8tuxdtscsddtUMcMwaN96IDcMe9qhBXNc5WLSGRav+IAVaz/nzLkjTh8vODiUjm0Gc2XP2+jU7mrtqXvrNn7LG+/r3diaNOrKq5PXuK2npMD5xBPE7F7JoaPbOX5yH4kXT5ORmUJOjmfLA1coH07jBp24ZsCD1Ilu4bLjSgIghHA7X0oACjt15iAr189ly7aFHD62wyXHDA+rTo/ON9Cv9zga1G3nkmO6ysEjW9m64zf2HdxI3MFNpKResLlPSLkK/6uJ0Lr5VbRu3seh8QtWq5XHn+/CwSN6fyZX9riV8bfOonxomN3nEookAEIIt/PVBKCws+eOsnXXIvYf2szBw9uIP7lHayndkHIVaNygE82a9KBV0960at4HiyXQAxE7Lyn5HGfOHeZC4mmyszNITUukXLkKBAWVo3J4DapE1qFqZG2XFejZGbuc56cP0G5fsUJlBl11Lw3qtqN9m4F2rwBZ1kkCIIRwO39IAIrKykrnbMJREpPOcCHxFGnpFwGwBARSoXwElSNqUq1qPSqHR3nVLANv98Lrg9kes9Tu/SpVrML4MTPp1e1mN0Tln7wpAfCNlFgIIVDPuqOjmnnF3Hp/cufot3h4cnu7ByYmpyTw1oe3EhRUTnvZX+E9pA6AEEKUcdFRTbl+6CSH9rVarcz+8hG7l38W5pMEQAghBCOHTqJl014O7Xvu/N8cjY9xcUTC3SQBEEIIgcUSyCP3f+lwXYSUFNuzF4R3kQRACCEEAJERtZj6xFIiwmvYvW9UzcZuiEi4kyQAQggh/ic6qimvTl5rV72Eti37UjWyjhujEu4gCYAQQoh/qFm9Ea89t57rh06yWWAoIrwG993xgYciE64kE2WF8FM/zrE2N6x5u82OQ/i2i0lnWLl+Ltt2LSLuwCYys9IAVSO/S4drue2m6VSrUtfkKH1HdmhApVGjjBSz4wBJAITwW/PmWSsGpeclmx2H8C/pGckkJZ+lcngUwcGhZofja84Pv81SxewgCsgjACH81KhRRgpWTpsdh/AvoSGVqFGtodz8HWI9YHYEhUkCIIQfM2C+2TEIIRQD40ezYyhMEgAh/FguAV+YHYMQAoAcixHwtdlBFCYJgBB+bOTtxnowfjY7DiHKOgNmDB1rHDM7jsIkARDCzwUaxoMYXDQ7DiHKsIOhRsBUs4MoShIAIfzc0LHGsbzcgEFAqtmxCFEGnQkICBgycKzhddefJABClAEj7zA2GuRdBySYHYsQZch+izXgqmtvNfaZHUhxJAEQooy47ragZYEEtAVjudmxCOHnrFb4NDs0oMOw241Ys4MpiRQCEqIM+nFO9lWG1fI0WK9CXgeEcJVs4DsjL2DadXcYXr8+slz4QpRhP86xVicvt78RYPTAatSCvOpgBJsdlxA+wWpNIyDgDFbrUcOwrsoKsaz0ljK/QgghhBBCCCGEEEIIIYQQQgghhBBCCCGEEEIIIYQQQgghhBBCCCGEEEIIIYQQQgghhBBCCCGEEEIIIYQQQgghhBBCCCGEEEIIIYQQQgghhBBCCCGEEEIIIYQQQgghhBBCCCGEEEIIIYQQQgghhBBCCCGEEEIIIYQQQgghhBBCCCGEEEIIIYQQQgghhBBCCCGEEEIIIYRn/D8KN5jAUKIFGwAAAABJRU5ErkJggg==;" vertex="1" parent="1">
          <mxGeometry x="-5610" y="-1396" width="42" height="42" as="geometry" />
        </mxCell>
        <mxCell id="JhdC-7hi9hZoy1IBPFO8-54" value="" style="shape=image;verticalLabelPosition=bottom;labelBackgroundColor=default;verticalAlign=top;aspect=fixed;imageAspect=0;image=data:image/png,iVBORw0KGgoAAAANSUhEUgAAAgAAAAIACAYAAAD0eNT6AAAACXBIWXMAAHYcAAB2HAGnwnjqAAAAGXRFWHRTb2Z0d2FyZQB3d3cuaW5rc2NhcGUub3Jnm+48GgAAIABJREFUeJzs3XmcnFWVP/7Peap6qaruquqkIRACBtJdnZgQ1OiIIwouKIu4L7j/XEAkCkRU0FEBNwRBYAR3FMZtBAZ1kEXBEdldItIQ0l3dgQAhmJCl9uql6p7fHwmOjviF5NzaP+/Xyz9E7uc53XY/feo+97kXICIiIiIiIiIiIiIiIiIiIiIiIiIiIiIiIiIiIiIiIiIiIiIiIiIiIiIiIiIiIiIiIiIiIiIiIiIiIiIiIiIiov9LGl0A/b2Vq/JLoXg/RA8HsBBArMElNVoRwHoBfiWBfOer5/ffX8uL9c0ZWqoVeb9CDof89ftfBDCz81/JAFAFZgUoAIAoSirYCmCrAo8Hgi2AblXRrVoJbw1Dt4qEH8/l1myrZe1ERLuCDUCTOPNM7d6SLZyv0A8CCDW6niZVBeSS2WLfR7/1LZn1G720O5qcPR+KGn7/pQTVBxHgQexoatY71fUCfTCsPevZIBBRPbEBaAJnnqndm7O5awXy8kbX0hJUbpwt9R3trwlY2h1NzF4LoNHf/xyAcQD3qOpoKAjdG7jQKBsDIqqFcKMLIGBLtnA+//jvAtHDw7HClwGc4iNu5yf/Zvj+xwE8D8DzRAROHZw4RBOpDQDuVWA0UB0NNFidz4+PN7hWImpxnAFosJWr8ksBvQec9t9VFVVZ/rUL+9daQvrmDC111aAVv/+bobhTRG9zLnRHOV9ZDUxON7ooImodnAFoMAWOk9b749MMwgJ9P4BTLSFakfdDWvL7vycEr1HIayRwiCaCKWjqjyq4XQJ3ew/cLdu3P5BtdJFE1LzYADSYQA9vdA2tSoBXWDM0kFdAfVTTcL0QHCLAIXABphFUYonUHQCuh+gNxczEPUCbfKVE5AUbgMbbr9EFtCoVPMMe0rbf/7ACLwbwYqicHU2kNgvwWwh+Edaea7LZe7c3ukAiaiw2AI3X1+gCWli/NUAB7ZCFMHsq8CYo3jSL6UosnrrTQa+S7uCq0pbxjY0ujojqL2h0AUSNJIqHG11DA4RV8CIRuQiz+kgsMXJzNJ46sa9v0Z6NLoyI6ocNAHU0AX7V6BoaLFDooRBc4kKhx6LJ1G2R5MjJsdj+8xpdGBHVFhsA6mji3HcAVBtdR5MIoHihqF6o4a5HosnUNdHkyKuBw/iokKgNsQGgjlYoTN4vIpc0uo4m1AXFq6D682hi4/pocuRzvcnFCxtdFBH5wwaAOl4x0/dRADc2uo4mtg9UPxWoWxdNDN8QSYy8EVjR1eiiiMiGDQARVs+Wsv1Hi+pFACqNrqaJBYC8UqBXRhP5RyKJ1NmRual9Gl0UEe0eNgBEAIDVs8XcxClB1R0kiq8Aeh92HvdLT2qeAKdLBQ9Gkqn/iCVTBzW6ICLaNR3yCnTzWrkqZ9qd7ZIL4i39/2FLfP3zlscSU9oNANOYHgCALidd1UD6oC4QyFwAc12AQYGbC5W5Asx1wB4CzAUwD8BeNa+z8W4UDc4v5sZ+Be46SNT0uLqX6KlsGi1mgeLO/7YdAKZ2NWPBgkhfpnd/FwQLASxUkf0FbiEgCwEcAGCOl1ob63AVd3g0kbpXBOcXM10/BtbMNLooInpybACI6mHDhnIBuB87/vMPooMj82VGDoToQU70QFEsB7AEQCsutjtQFZdFE7NfgKbOLuW6vs1GgKj5sAEgagI7t+PdCOCX//tPV3TFBgpLUMVyDfRfoPJCQJejdX5v94Hg4mii8nEg9blStv9yYPVso4sioh1a5UZC1IFWzxa3YxTAKIAfAADmLY9FZqaeHTh5oYoeAsW/oukfH+h+AL4dTeQ/BaS+WMrO/y5wM9+2IGowvgVA1Eo2jRbL29O3FbPj55Qy6WNK2fSeIniWCD4K4CYA040u8f/hGQC+GU1sHI0kRt4M3n+IGoq/gEStrVrMpO8pZtLnl7Lpw0u9vXMRuFcD+nUADza6uH9iiUB/Ek2k/tSXGHlpo4sh6lR8BEDUTjaNFkvANdjxH/T3j4xUQnpUoHitAoeguZr+gxz019FE6qcO+OhUNv1Aowsi6iTNdDMgIs/y+fHxciZ9QTGbPjTkMA/AByC4Hc31nv7rAmAslhy5aM6coXijiyHqFGwAiDpEPp/eUsqmv1XKpA/RkNtPRU5pomagS1VPmqoG6yLJkZMBhBpdEFG7YwNA1IHK2yY3lDPjF5Uy6UMcMASRzwN4tNF1ARgU1QujidRdkfjQwY0uhqidsQEg6nBT2fQDpcz4p0vZ9H4CHC7AlWj8oUjPFQnuiCZS3xwcHOlvcC1EbYkNABE9wRWz6ZuK2fSbMRvaTyCnA2jkwjwBcHxpRsciydTrGlgHUVtiA0BE/6BUWvtYMTt+TimbHobqqxT4n4YVI5gviqsjiZEf9vUN7dGwOojaDBsAIvp/caXcxLXlbPplIvpsFXwfQEO28xXo21woGI8mUseDJ5kSmbEBIKKnpZiZ+HM5k36XBpUhUXwFQK4BZQwA+GY0kbouMje1TwOuT9Q2uBEQ0d/oTw69xqmc4VSeKYKe//1fdOerclIBAAVUoBWBzKiiBEFWRbYDbksIstk5bIS6h8T1/rFYvG+0EV9LrZS3P/AwgFMHBg747Izr+oBCTwWwZ53LOEIquCeSHD6+nJm4us7XJmoLbACIAABL+2LJ2durO47hhfzDBPNf/0kX8MT8s3QrEIUgCWC+qAIQuCf+BQmgwQyiiRQUmBYgB9FNAjzkXCgdEr2zkA1fD6wp1OEL9G779geyAM7FvOWXRKan3y+qnwAwr44lzBWV/4okU98vd3WdiMdb8/tI1ChsAIiwtC+amH1ItXan6gnQA2APqOyhwDIRd7QDVkUTs1AdnkIQ/CVQrFXFneiW60pbxlbXqhbvNo0Wy8BF2GPppbGZykqFnoYdU/V1IYp3RmdmD9H+xe8o58fuqNd1iVod1wBQx4slZ29HA4/UFZFeUV2o0CMh+lnMuj9GE6lqNJH6SywxckN0ILUSCxY0+ZG/AB5fUyhmx8+Jdskzdr5CmK3j1feXwP02mkydCe4iSPS0sAGgjtafHHqN7pz2bzIBgHkKfSUcLo7mo1tjyZFcJJH6QySROjuRWLao0QX+M1u2jOeL2fFzQg5DEFyM+m0qFIbijFhi5NdcIEj01NgAUEdzTs5sdA1Pl6r2C/BcAU6fxcxkNDFcjCSG74wOpE5EEz7Oy+fTW0qZ9IdDTpYBuK5e11XooVLBn2OJ1MvqdU2iVsQGgDqaE1nS6Bp2n0QFcjAcLokmUtORZGpdJD701URi+f6Nruxv5fPj46Vs+mgBDofg/jpddlCBG2KJkdPAPQOInhQbAOpoAnQ3ugZPAlEcIBJ8aBZTD8SSqWwkmfr+nDmL9m10YU8oZtM3lTL9z1KRU1Cf9QFhhX4plkj9CPOWx+pwPaKWwgaAOloznINbC6qIi+IdU9XQw9FE6i99A6lvzm2K5+KrZ8uZ8YuCajW1c1fBmlPg2OhU+a6e+JLhelyPqFWwAaDOpphpdAl1MM85HF+exYZoYuShWGL4o2jw736hsG5zOZN+VyDBSwQ6UfsryrJAqqsjyeHX1/5aRK2BDQB1tEB0TaNrqBsBAN1PIV+OxlMzkcTwnZE5Qwc3sqRCZuzmYm/k2aJ6IYBqLa8lQL+oXLVzXQBRx2MDQB0tcHpmo2toCEFIIAdLNbgzGk89Go2PfBqNepNg02ixmJtYBXHPA+RPNb6aKPRL0cTwpcCKrhpfi6ipsQGgjpbPT14jgnsaXUdDCeZD9LPRxEgpkkj9J+bPH2xEGaXM5N2lbN/BUPkMUOtHM/LeaCL/34ODI/21vQ5R82IDQB2vmOn/V0C2NrqOxtMuAd4SLfZtjiRHbu3rW7Ss/jWsni3lxj8nQfBcAPfW+GJHlGbdHZGBA/ar8XWImhIbACKsLpWyffuJ6p8bXUmTEFE9xIVC90YSqbF4fPjoehdQ3D52b6m/9HwR+XfU9GUNWSYaviuaGHpO7a5B1JzYABABAFaXirmJZ4ece7UAq1V1Cu37luDTJsBIReQX0cTww3VvBDZsKBcz4ydD5HUAttTsOoq9FcHNsfjIETW7BlETarrtQ4kaKZ+fvAbANX/3D+ct3zMxhRgATEtpPwDodtJXUd0bEiwIQti7qpgHyKBAB+CQRCBxqEbRNk227FsR/CKSTD2oWjluKvvAr+t15VJm/Od9fYvudOHQd6GoSRMiQL+K/iIWT72nmEvXZX8CokZjA0D0VDaNbv6bbeseBICppzt2wYI5/dneF1YlWKHAEojsL9D9oRiAtN6pdaLYXxC+KRJPpREO3lPeVp/jdwuFdZsBHBNLDJ+qkLNRm3tXSAXfiyWHw8XMxPdqkE/UVNgAENXShg3b8jtmFK75v/9TIrFsUUVmXu2qeggCWSqQfQGNNqDKXSaCFKru9lgyNRpyoTfmcmvrsJkPtJidOK93IPW7wOEKAHvV4BohVbk0khxJlDPjF9Ygn6hptMn0JFHryWbvW1fMpC8o5yfeUM6mF5ey47FSb+88BFgpkOsBbAK0qdchqGJ5RSrjscTIdcDSvnpcc2p7+lYN47mA3FmjS4ioXhCNpz5To3yipsAGgKiZbBrdXNqe/loxO35UKZveq5Sd6A4gb1LR/27eVxVFFHpkJDG7JZpY/Ml6XLG8Nf1oKbv3ixU4p2YXEZwVSaS+VLN8ogZjA0DU3CqF7PhV5czEa0rZ8cFSf2muQE9T6F0KTDe6uL8lQA/gvhBNpLb2J4deU/sr3lwpZ9Oni+h7sAvLMnaFAKfF4qmvgEcKUxtiA0DUSjZs2FbMTpxbzk68oJxN94ace7WK/rbJmoE5VQ1+FkkO3wwMxWt9sWJm4jLAvRDAo7XIV8GqWDx1fi2yiRqJiwD/wcLeSLL7SFG8HMBCqFQR6MOA3FjK7H0tcHOl0RUSPeFvX1vsTw69pgJZBZUXCNDd4NIgKodGE8EWkdRpxUz6glpeq5Sd/FNkztDBUg2uBbDcd74KVkWTw4VSZoLrAqhtcAbgb0TiqWOjie4JUVwN4EQAR0H0GChWQvVn0cTGsWg8dVSj6yR6MvnM5M/LmYnDytl0j6i8UwT3ouGbGWmXKr4SS6buGRxcsnctr1TeNrmhN+ReBMivanIBlU/zJEFqJ2wAdookUmeL4McAFvw//rVFEPxi53nqRE2rmBv/QTGTXl7KuqRqcAGAbY2sRxXLSzOVR2q9qG7btslcKbv30QC+U4t8hX4pGk+trEU2Ub2xAQAQTabOEuD0p/mvi0LOjSRG3lzTooi8mMyVc2MfKWXTc8OqrxLon9CoWQGRkACnReKpcey5bF7tLnRzpZRNHyfAJ1GLr1Xw1Vhy+D3ec4nqrOMbgGhi+AQodvW5ngj033mUKLWSXG7i2mJ2YkWpp3tvFfwANT9y98mJIBWdntkQ7Rs5oZbXKWbTZ6vibfD/dYqqfJsfAqjVdXQDEEmmXgfIxbs5fF5pRt/ptSCieth836ZyJv3OUjYdg+jnIVJoQBVhhPTrO94UqN2CxXIu/Z9QvBZA2XN0SKA/4AFC1Mo6tgHoHUi9SBQ/Agz7sQuO8VcRUd1VSpmJT5cy4/0isgoNWCcgKofGEqnNkTlDB9fqGqVc+vpAgqMUyHuO7nKiV8SSqYM85xLVRUc2AH1zhpYGDj8H0GuMGvFRD1GjFTPjF5ay6bkiskqAXD2vrUBCqsEd0cTI52t1jUJm7GaBvBSA190UBehXh+sicxbt6zOXqB46rgGIzE3t46qh6wAMmMPE3EAQNZViZvzCYjad2HEeAbJPPcIbAfTfIonhO1GjRwKl7Pgfg5A7FILHvAYL5ks1uG5g4ICE11yiGuuoBmDOnKG4zOKXgO7nJVDxuJccoiaz4zyCdBKQL2gdFwsK5OBoIvVoIrFsUS3yC9sm1wQVfRm87xooy6Zd+D+Bw7i5GrWMTmoAgikX/BCCpd4SBbd6yyJqQqXs+KfK2fmJnW8NuDpddnBWZ8Zj/al31yK8UJhYW4U7FIqNnqOPiCY2XuI5k6hmOqYBiCRSX4DiVT4z1eE/fOYRNaebp8qZ9DtDLlgC0TV1uaQgpILL+uIjX69F/HR2cl1Vg5cA2OQ5+vhYYuTjnjOJaqIjGoBIPHWsAJ638NSryrn07/1mEjWvfH4sXcpMLAskeAOgmZpfUAAnekIkOXwLanCvms6PpUX0CABevxaFnh3tH/b6YYOoFtq+AYgmhp4jIpfC73Gek90ye5zHPKKWUciMXV3KTgzs3GK45rsKisqLoonhh4CFSd/ZxczEn1XdkQB87oUQIJDv98QXDXnMJPKurRuAWGz/eUDwM0CjHmO3hJy8KpNZX/tPQERNrJwb+0hQrS5XwQO1v5osiCW7H+7vX5zynVzOTd6lTo4AUPQYmwxJ6GrMWx7zmEnkVRs3ACu6EO7+CQCP7+dKSdUdk8+Pj/vLJGpdhcK6+8qZ9CIoPgtFtZbXUkV/NdD7ehJLDvedXc6P3y5wrwcw7TH2wNjUVE0OJSLyoW0bgGgyf4FCD/UYOSuovq6cm7zLYyZRWyjl0mf0hqv71342QLtCqN4Qi6e8b8NdzE7+SlTeB4+PNRQ4NpIcOdlXHpFPbdkARAeGjoHiRI+RKoLjitnJ2pwzTtQGtm1b90g5k16kCM4HtJZrAwIVXB5Lpk71HVzMjf8QKmf4zBTV83qTQz4/jBB50XYNQGTOon3hgsvgcdGfCD5WzKQv95VH1M7K2bGPakj/VTyvrv8/RBXnxRJDn/AdXMqNfw7Qb3iMDAca/CQyN7WPx0wiszZrAFZ0STV0JYA5vhJFcUExkz7fVx5RJyhvm7yrmE3PVQl+WsvrKIIvRhLD5/rOLWXjJwG4yWPkPFT0B2i7ey61srb6YYwkCl8E8Hx/ifrLYi79MX95RB3FlTNjr0dVPgjVmi0QFMjHIvHUv/tNXT3bG3JvADDqK1Egh8USI7yfUNNomwYgGk8dKVBvzwQVGO+W2WOB2q5sJmp3pcL4N6Ta85xaHi4kgg9HkymvK+63bZvMaRhHAdjgK1Ohn4vEhz1+SCHafW3RAETmpvaB4D/g77n/dqehY/iuP5EfxeJ9o8Xs/L0UWru3aBTvi8SHvuozsrw1/agq3gB/rwd2QeRy7g9AzaAdGgBBBZcDGPSUVxW4Y6dzayc85RERAODmqXJ24gWq7uJaXUEk+FAksfg8n5k7t/z+sK88AUaiU1MX+Moj2l0t3wBE46kPCvAyX3kq8lG+7kdUO+Xc5IdF9W21WhcgcKfGEkNez/4oZdPfBuDzEcNxkcTImz3mEe0yn/vj111vYmT/ADoKoM9LoOKyUi79Hi9ZT9PKVTnT+9KXXBBv6f8PrV9/BygCWC/ArySQ73z1/P77G12QL9E9nvlszFRuBxCpRb6KnlTOTHh8JLCwN5rovgXA8zwFbkWXLC9tGfd9LDHR09LKMwAi0Evh648/MFqKl3xuHkTkQwzAUgVWOaejK1flLzr+eO1qdFE+lB6//+5IGMOAbK3JBVQu8rtj4PopDSpvBPC4p8C5mNVLPWUR7bKWbQAi8dRKAV7iKa4YVPVYbNhQ9pRHVAshQE/qihaubZcmYOvW9KOl7N4LIOp9ZkMAUcFlvYkDvD0iLG9/4OEAciyAiqfII2LxkXd4yiLaJS3ZAPQmUgeI4Eu+8kRwYqEwsdZXHlFNiR4ejhW+3Ogy/Ll5qpSZWCqQm2sQHgjC1yUSy/f3FVjIjv+PAJ/xlaeiF/T1De3hK4/o6WrFBiAIQb6LHVOjHsj3ipn0f/jJIqoPga488ZT8kkbX4VMxO/4SVVzhO1eA7gqm7gaG4r4yi9n0OQr8j6e4wWpY+FYA1V3LNQDReOoEj6f8rS319nh7vYeojsICfX+ji/CtnEu/RQXf952rQCKaCN0Lf/c8h5B7N4DtPsJE5e3ReOpIH1lET1dLNQB9fYv2hODznuKmRPBWbBotesojqisBXtHoGmqhnEm/SxVeN/TZQfeLJId/4yutvG1yg4rHJkzkG4ODI/3e8oieQks1AC4InQtgwE+afKSYSd/jJ4uo/lTwjEbXUCvlXPokhXpf5yAqL+6Lj3zdV145M3E1IN/zk6b7lSvePuAQPaWWaQB6B1IvguBdPrIU+HUpO+7zuE+iRmjrT4vl7MTHFf4W+z7BiZ7gc+V9qTt8EoBJH1mq+iGeFUD10iINwGHhwOGr8LNxUVGB4wFwAxqiJlfOpj8RqHhv1lX0e/39i1Newh5fUwDkrQBmPaQFIsHX0DL3ZmplLfFDFkluPAnAQZ7iPjKVTT/gKYuIaqyQG/8gRL/rOTZcDdydALp9hJWy43+EyDk+sgB9TizpcwMjoifX9A1ALLZ0L1E/79zumPpPf9tHFhHVTykz8T51erXn2DmR5PBNvsJKmernIfCyoZEqzpkzx99ri0RPpukbAIRnLwCQ8JCUQ1B5Lzj1T9SSyvmJN/jeLEhUXhRNDn/OT9rktBOcAMB5CJs3VQ1O95BD9E81dQMQiQ8/X4G3+EmTj5S3P/CwnywiaoSdmwWlvYaq/FtkztDBPqKmtqdvBfRbPrIArOpNpA7wlEX0D5q6AYDI2fCx8E9xWyk77vsZIhE1QDnX/2zPBwhJUA1ugKf1AL0hPQ3ABh9RAdBGWz5Ts2naBiDaP/wqT4f9VCQkK8Gpf6I2sboU7QoOVMWUr0QFErHE8DU+srZtm8xB9QQfWQBeH0sMH+4pi+jvhBtdwD8RQoCzfQQp5MLS9vFRH1nUfC65IO7j1dCGWbkqx8Z0N2zZsvax6ODiQzDjfgdByEemQl4R7R96byk/aZ4tLOUmro0lUlcq8CYPdZ0L4DnghxjyrClnAKLJkXcDsswcJHgsEqp6WuBDRM2ktGVstUC9bA72V0HwDcxbvqePKBfGKgA+thp/ViQx8gYPOUR/pwkbgIW9UJzhI0lVTt62bTLnI4uImk8xN/GjQN0lHiO7IlNTt/gIKm9NPwr1szeAiJ4F+JnpIHpC0zUAsUTPyYDu5yHqxnJ2/EoPOUTUxAq5yQ+JwNu5HgKMROMpLx9CSvHieQDWm4MUz4zFR4415xD9jaZqAAYGDkgo9DQPUTNVF3zIQw4RtYBipv9fBch6CxT51ODgkr3NORs2lBXw8z6/uDOAw5p13Ra1oKZqAKZdeCU8nPYnIt+Yzo/5fVeYiJrY6pJUq4dAUfWTp+FypXq9j6RyNv0TAcyPFRQyHEs+yi2CyZvmaQDmz48CONkao0AeszNf9FAREbWQQmHdfQjhJF95qjgo2r/oOC9Z4k6Bhx0CVeUMYKmX/QqImqYBiJT6jwdgXn0rKl8uFh/c5KEkImoxpe3prwnkN77yNAhdDNj35C9lJu8G9DIPJT0jmph5r4ccomZpAIZ6RPWj5hjBY6VIz1c8FERELaqYHX+FABkfWQJ0xxKhn/nI0pCeAfjYvEg+CazosudQp2uKBiCakPcA2MccpDgTm0Z9vHdLRK2r4gIcA08b5yj0JT2JJebd+MrbJjeI6jc9lLRvLJ7nGwFk1gwNQAiQU60hAqRL2fnc75+IUN6evk01uNBXXkir/+EjR5x+AUDBmqOCj8HHOSnU0RreAMSSqbcDGLLmOOgngZsrHkoiojZQzo19RMXDO/gAINgrmlj8SWtMoTD5uEK/5qGiA2OJ4Zd7yKEO1vAGQFU/5iHlvnJ24mp7DhG1k0hQfbGvVwMV7jPAiqg1J+zkywrk7fXAPHNKna2hDUBfYuSlPvb8V8UXwYMyiOj/2LZt3SMqeoGPLAF6IvH8ZdacfD69RUQu8lDRK2PJ4WfZc6hTNbQBcFAfu/WtK+f28bblb19i5I2xZGo0Eh8uRxMpF02kNBIfLseSqdG+xIj5ZC8iqq9yduJjUGz0kSWib0wkli2y5vTI7HkAtltz1Mkp1gzqXA1rACIDB+wH4Bh7kpzt5dn/vOV7RpOpNQ56pSoOFJFe7FxkIyK9qjjQQa+IJofvw/z5g+brEVH99IRfBS+zhCIVmfkva8r27Q9kIXqxvRy8NTI3ZX+DijpSwxoAceETABj3tZaHS9nw983FzJ8/GJ0qj0PxzKf8d1WWRot9aTYBRK2j9Pj9d6vghz6yVHFQZM7QwdacoOIuhn1fgG6pYKW1FupMDWoAhnoAvM8co3ousGbGGhMtxX4LSHIXhgxESzFvu40RUe2VM+l3ezswqBpcZo0oFNZtBuDj9cL3cmMg2h0NaQBiSXkr7Nv+birFS+b3/mPx1Duh8tSf/P8vlWX9yaHXWK9PRHXjBPiAjyABRnqTi15izQk5XAD7GQHzIsmch8ep1Gka0gCoin3KSvANbNhQNtcCnLu7Yx2Cs6zXJ6L6KWTTP1FgzEeWuNC3rRn5fHoMqr8w16LyfmsGdZ66NwDRxOIVAJ5rjJlFWL5lraW/f+gYCPba3fHOYcRaAxHVV9jhdfCwIFAEi+Lx4aOtOS7A+dYMAK/sTS55hocc6iD1nwEQ925zBHBVacu4+bWeahD6qrGQHmsNRFRf+Xx6TMT+qRsAKhKYd/WbykzcAuAuY0wQoMpTAmmX1LkBWNoNxVutKc7JJdaMHYd7qKljFu7FTdSSipnutwEwLyAGdL94PHWUOQWwn1ugeC+AkDmHOkZdG4BocvYoANbX5+4u58dvt9YSaNX8Dq6qj6M9iaj+1hQU8LJDYEVwnjWjnO36KYDNxpgF0fjwEdZaqHPUdwZAYZ/+F7VN2wOIzB1+vghS1pwgwLg1g4gao5xNfxLQkoeoJX19Q7v+JtHfWTOjkMvtpchx9gzqFHVrAPr7U4MArFNlW4qZ2R9bawmq4uNMbojibB85RNQQDiq7/RbQ36qG5evWjLDDpbAuThQcGY8vnWOthTpD3RqAiuhbAXRbMkTxfWC9adq9v39xSh0OsmTsrGZrIZv+iT2HiBqllEufJSLmk/lE5RDr7qD5/Pi4ALcaS+nNFsamAAAgAElEQVSuBJXXGjOoQ9StARAR8/Q/ApinyFygF3hZuhfoGR5SiKjR1H3WQ0oQKfbZ9/ZXMe8tAMVbzBnUEerSAPT0L04BWGGMGS1m0vcYM8IKHG7MgADZ0va0+U0EImq8YnbiPEAz1hwBXg/j+SbFePG/YD4lUF/a1ze0hy2DOkFdGoBw4N5gzVDBZdaMWGLoY4B62DPbnWPPIKJmIcAXPMR0ReMjp5sSNmwoQ/ADYx1hF5LXGzOoA9SlAVDAumd+JZid/ZG5Dg0+bM0ApFTMTrIBIGojO2YBxP5GgOgJ9mrc96wJCnmzvQ5qdzVvAHaeVf0vphDBDcXig5ssEbHY0mdBsLepjh18HN5BRE0m0Kr5Dy+AfWKxpc+yBJQyk3dbzysQ4LDo4Mh8Swa1v9rPAMzidTDumKfq4f3YcMW86YcqpkrZ8c+YayGiplPIJT4OSMUcFK6YHyeIyFXGiAAz+jprHdTeat8ACKyvpOTK2eo1tojDelX1RcY6IIH8GPz0T9SmVpdU3HXWlJ0LjU33VhG5wlyH6ButGdTeatoA9PcvnivAoZYMhfwCmJy2ZEQSG8+AmPfI1lI0/3FjBhE1sWhIToT5pEDtiiVTJ1sSitvH7oXgfkuGQF44MHBAwpJB7a2mDYALVY+B8bUYAD+11iHAO80ZglFs3LjFmkNEzWvr1vSjAv2zNcdBTjIX42CdBeia0vBLzXVQ26ppA6AqrzZGTJW7wzdYAgYHl+wNxT7GOhDAceMfog4QUnzamiGqC7HnsnnGOsw7jYqat1+nNlbLBiAE4DBTguqv8PiagiViasZ92r7zn2bymcmfW1OIqPnlchPX+tgeODI1+wnL+Hw+PQZg1FjGEeCx5fRP1KwBiMSHngdgwJIhgX3630HNG2KoBh5O6SKiVqFwV1ozBPomcyGi1g8eC/oGliw110FtqWYNgCBk3XK3GlTlF5aAZHL/Z0BgmoYD4Mq5Kl/9I+ogpb7yx2A/mW/+3B37oOw2rer1phoAqKscac2g9lS7BkDwMst4BW7J59OmRXcz6DI/y1PIH4HJnDWHiFrIhg3bIGpahQ8A07Pyb5bx5fzk7wFstWQ4CBsAelK1aQDmz48q9GBLRAB75ws1b0GMQN1F5jqIqOVIVb5szfDwCLIqwE2WAAEO4euA9GRq0gBEC32HAuixZKio6Yc+Hl8yDMB0PjeA2WJuwnwGARG1nmI+fTmAWVOIYF4yuf8zjBnWD0Nd09XwC40Z1IZq0gAI8HJjxJZSZtJ09G8lqNhO5QKgIr+zZhBR61LoamvGtOs+xRQw2/VL2NcjsAGgf1CTBkCNz/8F+DWsW+5qYG1CEEb1PGsGEbWuEORCDzFHWwYXi2v+AsjdlgyBsAGgf+C9ARgcHOkHcKAlQ43PvACEAV1grGGG7/4TdbZCNv0TBUxbkYu4RTDfa9W0IZpC/wVY2m2rgdqN9wagPKv/Ys11kF9bxsf6U2+31hBAbrOMJ6I2Ifp7Y0DQl0iZ9gQQ4H9sNSASic8825hBbcZ7A2Bd/S/Qians+IOmIgJ9u2k8gJDCvAKYiFpfCCHzYwCFvs8yvtjbexcA21HFAR8D0N/zvwZA8S+24fIbexHyPFsNmMnlxk1TbkTUHgqZsasBsf3xhZjui9g0WgRgWhgtyoWA9Pf8NwAiz7cNxx2W8YODS/ZWIGnJCARrLeOJqN3ohGk0kLC+Digit1vGAzjEOJ7ajNcGoDe5eCFg23pXKrbnbaVK5UTLeABQBy7+I6K/UtjvCTPafZxlvFNYG4A9e+KLhowZ1Ea8NgDinOn5P4BMoTAxbqoB5iOIUert/po1g4jaR6wr9O/WDIUzvZosXTAvTA4Qeq41g9qH1wYggJqm/wH5PYzv/zunKVsNmsHm+zbZMoionWzZsvYxANstGYHIEsv40pbxjQDWWzJEbK9oU3vxuwZA5Dm28c6289685XuKSK+pBOAPphqIqC2JqGl9kiriwELT+iQV4yyAYLlpPLUVrw2AArZzpx1MDUBkuvwW0/UBQOX75gwiaj8O5nNBon09x9pqUNsHFBU2APRX3hqAWGzpXgDmGiI0pLa99wPgFZbxAFwxl/6xMYOI2lAxt8/VatyTX0IwrVEKBaFRy3hA90skDhywZVC78DcDEJ61ffoHHs7n01ssAap4lqkCxWZYN9sgojZ185QY1wGoqukxqVRxr2U8AEwH08usGdQevDUATtXaAKyxVxHsZRktoh5qIKJ2paK2P8CCPSzD8/mxrQAetWQEVa4DoB28NQAiYmoAFHqfZXwstmw5oGFLBqA32sYTUTsLFNdZI6J7PNO6J7/tMYAI3wQgAD4fAYhtAWAgYvr0reEZ2+IaAGFEr7BmEFH7Kvb0XG4OmXFHWoartQEAZwBoB38NgML0jqtqYGsARF5sGQ9gJpsdtR1CRETtbcceIWVLhEj1Xy3jAxXjOgAdsY2nduGlAYhGl+wNYI4hwpV6u8csNYjTAyzjVbDBMp6IOoMqHrGMd7BtCISQeSHgnIGBAxLGDGoDXhoA7akuMkas33na1e7XIKYGBKjqn0zjiagzBHK/abxib8vw4vbwGICqJWNGwwst46k9eGkAgqruZwpQ2/N/AN0C9FgCBPpLYw1E1AECqGk3PgEiwIro7iesmQHE9CaAQhZaxlN7MK6a30nEdsyl8ajN3uTQC2zbcwCR7uD6ki2CqO5WrsoZf/KbXhHAegF+JYF856vn99s+fXsQVHFtNcB5loz+ZOkV+Qx+trvjBXhQgd3+4KXA/rs7ltqHn0cA0H0t410gD1vGBy5kXACobuvWtKmjJqKaiAFYqsAq53R05ar8Rccfr12NLCifT48Bajq0rKJV08mpqmpasBywASB4ewvANgMAqKkB0ECs79XmjOOJqPZCgJ7UFS1c2+gmAJBttuFqWwhoPBVQnVtovD61AU8NgG0NgKh7yDI+gBuyjFfIXyzjiaiORA8PxwpfbmgJxg8tAWSh6foBbK8si3AGgLzNAJgagJALbDMAin0s4wPRSct4Iqovga488ZS89VP0bnPO+AlcMc8yviq2BkCBhZbx1B7MDUAyuTAJIL77CVKyHgJkuz6gGtxjvD4R1VdYoO9v1MVFxLR1uSqStus7UwMgQP/Oezd1MHMDUJHIAst4NU6lYcfXYHqbIax6h7EGIqozsR//vdtCQehuy3gR22vL5W2TGwHMmDJcaNAynlqf/RGAqumHSGB7AyAeX2LdhAi5XNct1gwiqi8VGBcf7758d+hOa0Zf39AzDcMdgMct1w8gbAA6nLkBqGp1rilA9THb8NnFputDHbCmYMsgogbob9iVd5wJYHoVUCV4nrEK06NTgdju3dTyzA2AQExb8Apgep3GhQLTGwCATNvGE1GHMh0KpGJbiKfAVst4CTgD0Ok8NAAwdZEK2W4Z75x1DwKYziAgog6lyFqGByqmMwEC4wwAADYAHc7cADjogC1BbRtqBLZXENX4S0xEnUnFtoFYNaR7ma4PNc0AqNo+vFHra/gjALU2AFo1/RJB1NpFE1FHUtPsJayL8CQwNQAwzt5S6/OxEZCpAQjE1sVCjQtZBJtM44moIwViXYTnTLOn1jUA4COAjmduABRqmwHQwNRFiyBhGR9ywUbLeCLqTArZbAwwbWAWOFsDYr13U+vz8AggMP0QV8WZHgEIbBtqqFTXW8YTUYdyMJ4gKjHLaFWXMV0d0msZT63PtIPeDq4bkN0voNJTtLyHpyJh6O4fia7OPI1G1DCXXBDf/V++JrByVW73f3kbTasbICFDgJg+vEiAaeM3z3R9an0+FgF2W8aHQrbtLKFq+Q1EEAR50/WJqCOFQt2mnfjUeO+qihrvnTDdu6n1eVgDYPshyvXYGgA1fg2BKncBJKJdNqO2PUREbPcucbBtYmY8j4Ban4ezAIxd5OO2BkAAUxc9E4AzAES0y4LQrPHeIabHNxIYGwDj7C21PnsDIKYGQIE1s6brq5p+iYKuLjYARLTLguneki1BbbOXgfHxKZQzAB3Oxz4AlgZgFoBtHYtxGq1rJjDt5kVEnSkctq4fsn14ma2o9RwTzgB0uEY3AMYOFrBOo2V7uQiQiHZdNraloY8AgpBxEaDxLQRqfT4agC7DWNv0vw+bRk3v0hJRh9q4saGzh8GMdQaAjwA6nY8GgIiI6i7a0ntAUOP5aAAM01BNMAU1f75pJ0Mi6lANvndUu5zx/inWNQTU4hrcAKiHRSiGbQABJIpzTGcJEFFnShQH+20JtnuXOusiPvMiQmpxPhoAyw9R2EMNpl+iSkWNv8RE1IkqFWe8d4jp3tUVMm/k42ERNrWyBs8AAMBCYxcrzjK62jXDRwBEtMtcz1TUlmC7dzk3a713cgagwzW8ARgYCGyn+QGmX6JuJ32W8UTUmVy1q9GPAIwzANbXCKnVNfoRAGZnA+s6gKplsBPbkZxE1Jm6BcbjfG0fXkKhsK0BUOtWwtTqGj4DUO22dbEixgbAVbkIkIh2WbU6s4dlvIiY7l2qFduHJ+EagE7X8BkAV9Fey3hRWwMgAeZaxhNRhwoF+9kCbKvwVUKmeyeM925qfeYGQIApy/gQQgOW8Wr8IRYNPcMynog6lextG6+244Shxnunmu7d1PrMDYAC24wRg6brq2Qt46uB28cynog6k0D3MgaY7l1QtT2CQLDVdH1qeT4eAWyxDBaIbQpenO2HWLGnaTwRdSSntseH1g9PznrvNN67qfX5mAEw/RC5wDYDAJFNpvEacA0AEe0GMU3BAyHjhyfz+iU2AB3O3AAEUNMncOsPcci5DabriyYt44moM4nCtA9AqKqbjSXYHp+K7d5Nrc/+CEBgnIJ3tmk0kYdN1weMu3kRUUcSmF4hdgLbhxfjh6cAxns3tTz7IwBR6xoAUxcrCB6wjG+KEwmJqBVFLIMF+pBlvIpxBsDxEUCnszcAlbCpi3TW51jVyphpPDQMHGZ9n5aIOsmey+bBeP8U51abajAvQuQjgE5nbgCc+S0AmN6lLRTWpS3jAaA38fALrRlE1Dn6Zirme0ahMHn/7o9e0QXjhycH4xtU1PLMDUCP2FayAlgIQAzjZ2DcDTDQ8CGW8UTUWRyqz7aMV7VtwtObyO+LHcep77ZIUOUjgA5nbgByuTXbAFh2tIrEYvvb3sUXzVuGayDPMl2fiDqKVvFMy3iBbQOzELC/ZbwC+UxmfcaSQa3Px0ZAgMC0mMWFQqYfZkAeM42GG7Zdn4g6SRDY/gBLgL9Yxitkoen6wHrLeGoPfhoA4EHb8GChZbSIrjNdXq17ehNRJ1HYDgJy9j/Atg9NqsZ7NrUDXw3AelMRYpzO0uAey3hA4rbxRNRZbAfxQLHWNtw4A2H+0EbtwEsDIKrrLeN1x0LA3RZW3GYZD2gYCxbMsWUQUSfo708thvHeGRZ3l2W8GBsAFwTrLeOpPXhpAJy5m5SFltG5XN8ttusDsVz0aGsGEbU/F+irrBn5TOJGU4DoQtNwzgAQfM0AwPo8SRfZxq8uATJrSXACNgBE9JSc4EXGiPKOe9Zumj8/CoXpKGKBbdaW2oOXBiCsPeuNEftjj6V9tgi1vdKiWGG7PhF1BCemVwBVsdEyPlLoWwbb3inolsp6y3hqD14agJ17AVjeaw0i09PLLDUo1HYmgGBf03gi6ggi2McyPgjUtABQBMst4wFs3b79AdM+BNQefL0FAADjlsEigfWH+lbT9YGeuXNTpl9sImpvO+8RpkOAoHqHZbiIHGi6vsB4fgq1C58NwKhptMD2Qx3GVabxAKaqeLM1g4ja11TFvcscUum91jLcqbN9WFK13aupbXhrAFT1Xst4UVtXW9468TtAnSUDKi83jSeituZEXmmNKBbvM/0BFojpcSkQmO7V1D68NQChIGT6oVboQTAubIHKZg81EBE9KVExfvqG6R4V2fEIYtBUQmD7sEbtw1sDEDhbAwAgGZmzaIElQETvM9awN/w+FiGitnFYL4CkJUECXW0aP2teAKg9OmO9T1Kb8PbHbuebABssGTIbGD+B60228Qj6Eqk3GTOIqA3F4o+9EcZZSq0Ev7CMF1Hj9D8e5imA9ATfn3ZtswCh4PmW4T0h/ZHp+gAUYl/kQ0TtR/A2a0SpUDXdoxTyAlMBKlwASH/ltQFQYwOgqi+0jN+2bd0jCsyYaoAebBlPRO1J4Ux/fAXIAZM5Yxm2BkCMH9KorXhtAALrmwCQ5wMrumwZsB0NDMzBvOV7GjOIqI0MDi7ZGxDT838Hvd8yvie+ZBiwbQGs4AJA+l9eG4CKhv5oS9BoNFEwrQNQqOkdWwCIlqePt2YQUfsozlZPtmaIwLRGKRxUDrHW4OCM92hqJ14bgOn82ARge81FBaYf8h6pXGwZDwAi+lprBhG1lddYA3oD9y3LeFUxPSIFsGk6O2mdIaU24nsRoAKwbXOpzvRDnsk8+JCI5C0ZTmFdaUtEbUQUw6bxQHbbtnWPWDIUMDYAcpttPLUb7++8C/R2Y4KPaa4/mSoQ9MTjI0dY6yCi1teXGHkjBCFbitxlGd3fnxoUYMSSoWK9N1O78d4AOBcyzQAA2Ks3MbK/JUAqoR8ba0BV8HFrBhG1vqpglTVDgEtNNYTdC2DdKdXZDiGi9uO9ASjnK6sBTFkyAqhpT/5SYex7gKolw8H2SiIRtQdRfZ4tQV0hO/5fthpC1nNKyuVc993GDGozNdj2dnIaCutKU+v0+wxUHrMECNDdn1zCxYBEHSwWH34bANOryaoyCcB4UJk70jQc+jtgjWmPFGo/Ndn3XgXWZ00vt+4HoAF+bawBFbhTrRlE1Lqc4MP2lMD0anJvYmR/hdgWIUrABYD0D2rSAEjgrA1AvC9ZNE3Bh6v4orEGiKppa2IiammBQJ5rDYmEZy8wFaF6lLUGOL3TnEFtpyYNQK/gtwBmLRlVdabHAPl8egyQrZYMAF07pwCJqMPE+offDSBsClH8xfr6HwTWBmAm2i23GjOoDdWkAdi2bTInCtNrLwKYnnntDPlva4QTMa8AJqLWoyH5qDUjgDMt/gOGegAcaklQ4LYtW8ZNe6NQe6pJAwAAEFxvTFgembNoX0tAN2bOMtYAAVYAC017gBNRi5m3fE9VLLHGFHp7P2cZH0vgUAAxS0YAtd6LqU3VsAGw/9BJNfRKy/hM5sGHAGyyltEX7znbmEFELSQ6Pf0lsb53D92AzffZ7j8q5plQCcI3WDOoPdWsAShmJu6BYqMx5vXWOgKVn1ozNNC3WzOIqKW8yRqgCP3EGCEqYn0VeUNh+9r7jBnUpmo3AwAoRH5pzHh5f//iuZaA3u7gszBtCQSooj8WH36rLYWIWkE8Pnw0VPusOeXe7nMt4yP9QwcDWGgs4zrjeGpjtWwAoDCvA+iqBu51loAtW9Y+BphnIqABPmXNIKLmVwU+b81QwYPYNGo6GTUQeYu1Dg9rsaiN1bQB6JHpGwFUjDFvNhciuNwaoSpLBgeX7G2uhYia1ty5qX1U5CB7kl5oDAhU5I3GjNkeqfzGmEFtrKYNQCazPiMK6wYUL+nrG9rDElDKps+EomrJEECKs9WvWDKIqLlNVfXrMC/+w0w5M3GxJaB3IPVCAPtYMhS4bfv2B7KWDGpvNW0AAMBBrzJGhF1I3mDMmBGR3xozIJA3AIf1WnOIqBmtiKoG9lX3ojfCuPd/oDBP/wvkSmsGtbeaNwBBtfsKwPbpWyH2xwCVLg8b+mhXJL7RtLCHiJpTX3/hK4Dadv4DIBW1HiUewP4GVFUqM1cbM6jN1bwBKBbX/EUgpoMoBHhxNGp7/l4s3jcK6AZLxs5ijod1e1Aiajou0HfZU3RDoTB5vyUhlki9BArT/U6Bm4vFB617oFCbq3kDAACqeoUxIiRd1Xdb6xAR68IcCNATSaRMu3sRUXOJJYY/DiBiTwp93ZrgIO+1Zghg3YOAOkBdGoDAuSthfBtAgeNgrLeYSV+ggPlMbIGPI0KJqHnIJz2EzJayY6ZHhMnkwqRATa8+A6gEVfczYwZ1gLo0AIXC5OMKWBfhHRBLpF5izHCe3ouNRROLfdwwiKjBYomhTyiQsOao6BUwftCZRs+7YZ+JuKlQmHzcmEEdoC4NAOBtSuo4a0C39q5SWPcGBATuNGsGETWeSshHM+/KfeWTrCGi+h5zhiin/+lpqVsD0IWeq2CcflfgddY9AbLZ0QcB+YMlY2ct8Vhi2HxcKBE1TjSeOsvHtr8qeis2bNhmyYj0D70AgHUTopmQ6zYfg06doW4NQDZ773ao+WyAbg0H5pW6oWrlffY5AEAhZ6KO30Mi8iqA4FQfQaGK+5A1QwJ5v4dSrs3l1pgaEeoc9f3jFeA71ginOA7GnboKhXX3SYBRay0AYpH44vM85BBRnUUSw+cAiJmDRO8vFNaZTtwbHBzph4/9ThTfNmdQx6hrA1DK7H0dgEctGQKM9CVGrIsB4QL3AWsGAIi4lcCKqI8sIqqXpX2C4GQfSVUNmTcZK87ouwFYH0U8Usqlf2WthTpHnaevb65A5HvWFCf6EWtGedvkXapIW3MAdEcS+Us95BBRncSSM/8JaJc1R0XWT2fHrH90QyI4xVoLFJfCuOsqdZa6P79Wmf02rD+kiqP65gwtNdcSVE+wZgCAQN8Sjy8Z9pFFRLXV1zf0TFU5ykdWl9OV1oxIYuT1ABYZY5wLQpdZa6HOUvcGoLz9gYcB+bUxRlw1ME+7TWXW/QaQh605gEg1qPLgDaIWUA2Cn8J+4h9UZSKXS19nzRHYZzQB3DCVWfuQhxzqIA1Zwa7wslDlHdbzAQAgJH6eA6rioP7k0Gt8ZBFRbcTiw28TQcpHlgbOvGq/dyD1IgAHm4sRLv6jXdeQBqCc7fs5BI8ZY3rQ7U601pLPrP2ZCh605gBAVQPz+gYiqpkwAjHv1Q8AENw/lZm4xRoTVL28hviXUqb/Wg851GEa9A776llVXG6OUf0g5i23v8YTBO8wZ+ww0Bcf8XODISKvIonU91UR95GlITUf2NPTvzgFwTEeyvkusHrWQw51mMZtYhNylwCw/tDOjZSnzFtnlreN3SHQu605AOBEj+eCQKLmEh1cvEKAt/jIEujd5a0Tv7PmhAJ3Kuz34Bl0ySXWWqgzNawBKG+b3KCC/7TmCPAJLFhgPsYzcKFj4eGMAADBLKrmhUFE5NGMuwYeFv4BqiENmxuJyMAB+wEwH3EOyA9LW8Y32nOoEzV0G9tAgi/D+kdXMD9SiB1vrSWfH0sL9EZrDgCIYIjnBBA1h0h88VcgMC8YBgCF/CSXWzthzREX/gyAHms5InqRtRbqXA1tAIrbx+4FcJM1R1RPx/z55t34itnuN8D+WAIAoJCz585N7eMji4h2z5w5i/YVOPMpfQCgiulydr75kWNPfNEQAPOZJgCuL2bS93jIoQ7V8INsRIPzPcTsFSvGzBtyAGsKAHzt7R8uVWDd74CIDMoufAsEIR9ZgbgzgJunzDlB6AwA5l0IA4iPeyd1sIY3AMXc2C8B/Nmao5DT5swZMq/wLWXTnwSwxZoD7Di3IBpPneEji4h2TV//yDdEdaGXMMXGYnbyHGtMT//ilCiO9VDRPYXs+G885FAHa3gDAAAiuNBDzNypiniZ6gur/n8+cnbQT/OtAKL66k0Ov7gaqHlt0BNc4N7mIyccuM8BCFtzRPVc+Fm0TB2sKRqAYqbrxzCeEggAEDk1mVyYtMbkchPXKvQucz0AIBKqSPV2NMn3mqj9HdYbgvxCvKz6BwR601Rm8rfWnNjAyHIF3uihooeLuTi3HiezJvmjtGYGirM9BCWntftTHnJQ7i8fDYivzTX2iMRT5lceieipRZKP3qCKfh9ZqjpVzMa9bPGtTs+Bl3uufp4b/5APTdIAAKVc17cB+5a8Any4v39kxFzQhg3bBNVPm3N2EsGb+hIjb/KVR0T/KJIc/rCoHOorL1CcCKwuWXOiA0PHADjCQ0nrS9ku+y6qRGiiBgBYMwN4mQXorobUy0r+YnbyHBU84CMLAKrQH/DVQKLaiA4uXiEqPtYTAdix418xP+HhfI+l3eICL/ckEZy5815JZNZEDQBQyqa/K0DaHKR4VSw+4qPbRriKowE4H1kCdJdn8Xs02fedqPUt7ZOK/gb+frcqxd6Il3tILDFzksJ+AqFAJ4qZ+T/0URMR0Hx/iKoQfMFHkIp+BVhhftc2n0+PKfBlHzUBAATzY4mRa7zlERGiyZk7VdXLc38AgMpZ2DS62RrT17doT4V4WZfkVD4D3FzxkUUENF8DgGIm/UMAaz1ELYnEcyd4yEE5mz7d15HBAKDQo7hVMJEffQOpb0JlmbdAwf2l3PjnfUS5UOgLABLmIMWaci59hb0iov/VdA0AgKpCzvQRJCJn9vcvnusjq1t7XwZF1UcWACjk3N7kopf4yiPqRLF46p2uCm/v+yswU4oWvCwijCaHng3AvHUwAGign4GnR5FET2jGBgDl7PhVAHzscT2nGjjz7l0AkM2OPggJPuMjaycRDd1QLDzmMZKoc2zaPAoVvczP2/47BKrvwcaNPnYCDUGDrwNetiFeXc5M/NRDDtHfacoGAIALRFZ5ynpvLJF6uY+gUnbsiwK920cWsGNR4M9//g5UKlzUS7QrSqXN+OX1HwQg3u5hInptMTfxIx9ZkeTIhwE830eWE3cquOsf1UCzNgAoZMZ/A8BH1ysKfAvzlsc8ZKGY7X4xoOb3gp8wPZ3FNf/9dl9xRG1vdqaEn159LKrVaZ+x24uZidf6CIoMHLCfqH7OR5YAV/jYhZDoyTRtAwAADvgoAPPpWwD2j0yVPU3frylUEX6teuzIM5kH8csbTvQVR9TGHH7+87dhZibnMVMVYbwSgJcV9lLtuhhAn4eoclWC0zzkED2ppm4AprLpBxReDgqCQD4STSxe4SNrOrv2xpCTb/nIesLGjbQiDpoAACAASURBVL/Hrbee5TOSqO1cd90HkM9v8BuqwRmlrek/+IiKxUfeAdFjfGRB9LypzNh6L1lET6KpGwAAKHd3fQECHyvlwoC71MfeAABQyI+foMCYj6wnTE5cg7tXf8NnJFHbuOnGk7HpL96W4AAABPKbUm7cy3R9f//iuSp6vo8sAI+WeiJeFjAT/TNN3wDg8TUFgf6bp7SDYonCRzxloZztXyECn3OR+PM9l+L+NV7WIRG1jdtu+yweeeR237GbitnxV/gKq4TchQD29JElKqdj02jRRxbRP9P8DQCAYmbicgC/95Gl0LNiyeFn+cgCVpdcSF8Br+/nKn7/uwtw/1oeHkgEAHfe/iVMpP/bc6rMdsvs8+HpuX8kOfx6UbzDRxaAu4q5cW75SzXXEg0AAKfqToafP7Q9CvkhFiyIeMhCeevE70TgdVc/heJ3d56PiQnuGEyd7Y+rL8bY+FV+QxUQde/OZB58yEdcZM7QAlH5jo8sAFUoTgJf+6M6aJUGAOXc5F0QfM1LmOKZ0ULU2/7+xUz6ApXA80YdittuPQuTk9f5jSVqEX/4w4W4957LvOcq3MXF3MSPPcUFqAaXAxjwESaKi0o5PwsSiZ5KyzQAAFDq6T0d8LQnv+LEnWd0e1HOjL0eomt85T3h1lvOwPjY1b5jiZraXXecg/vu/YH3XIH8ppyb/LCvvFgi9XEBXuop7qFiT9cZnrKInlJLNQDYNFqEYqWnNIELLo3Flu7lKQ+lzD7PBbDNV94Oijvv+CLW3Of/ZkjUjG757aewduzKGiTLQ8XsuJddQQEgmhh6jgLe3t0VDT6Ax9cUfOURPZXWagAAlHLp6xXia5n8HhqeuQzwtZv4zVNd6H2uAl739lUAf/j9Rbj3nu/5jCVqOjfdeDLWrbuhFtHbS9nwMvhasDtveUwR/AhAt5c8xeXF3NgvvWQRPU0t1wAAQKhaPQWAjwM7AMgrI8nUKX6ydhwapOJeAajXk7sUij+uvgR33cFXg6kdOVx33XG1eNUPCkx3y+yzAX+frqNT018VYMRT3OaQBqd6yiJ62lqyASgUJh8Xhbf3+UVxbm9yyMsRoAAwlZn8bSChN6EGK3nXjl2JG2/01q8QNVylMoOfXv0W75v87ORUqkf6WvEPANHE8AcA/f/bu/PwuMp6D+Df35mZNDOTWUoKhbKVkkyKpUWtihdQyg4C3isVRdYLYoUu0FYE8aoU8XIRoSl0ASrIlX0RUBZZBAEFUbiIsrVJStlKaWlKZiaZmSwz53f/SIOldEky75lzZub7eR6ePk9pfu9LSOf9nve8i5FrfgFAVWd3di5fb6oe0WCVZQAAgEy69WYApuYK/ZZad4RGNY0xVA9dyeX3CvR8U/U2turdZ/DA/afBto1sYSZyTabrfdx555FIJs2s7d2Eiuop3ck3njRVMBhNfAGQq0zVg+ChnLkdCURDUrYBAAAQkG8DMJWcd0Sf3gM0jDBUD5lU2xWqBj8sNtLe/hruvutYYPQkIyePEZVacLvx+/3mN1PR22P0MM1/KVhnm7reF+g/6lcEdwIw9RnRjl7fdwzVIhqysg4A2faW1RCcabDkF0Mxa77BesilW2arwJEl/NnsOoS6e94MjTJzyRFRqYSjiVOkUPizbRtdL/sRgX4/27X8OoMlfQVLbwMw1lhFkTOz2WUm7jkhGpayDgAAkE22/haAqVO4AGB6ON5o7P0eAOSSraeorQ5t5tcQeu2/haOJU5ypT2RW3cjEdQrcBIgznz+iP8uk2q4wWTIYa7oMUGP3BgB6TTbZ8jtz9YiGruwDAABka2tnC9Bqqp6qLA7FGz5jqh4A5DrbpqrAmb/wAp8KbgrGEzc5Up/IiCm1wVjjc7aNaaY23m5K1V6UTbb92GTNYKzpeIGaXKW/LBvOGD0+nGg4KiIAYO3LGYV1Isztvw/Cth4Mjhy3m6F6AIBcsvU/BPJHkzU3JopTQrHE60BD1Kk2iIYjNGr85HD8/Q8E8kWn2rAE15s85Q8AQrGmzwn0Rhg7KwR9UJyG1auzhuoRDVtlBAAA2dTyF2HwVC4IxkjB//t4fGzcWE0AmVTLIQJx8sCPvUJxa3VwZOIAB9sgGrRgvHEW+uznVTXiVBuqclVXstXogrraWNMegD4IIGyqpkB/yLP+ySsqJgAAQDbVepkCxrb8QDChVwN3AFP8xmoCyKRajlTAuft+FWHY+FMw2rDQsTaItmlKbTjW9HtRuRoOftYocFku3WL0cIyRI8fFLNj3AxhtqqZAns6k2owuMiYqRkUFAAC2lQ+cCMVqcyXliFBs9bXm6vXLpVq/pYKbTdcdIICIWDOD8cQb3CpIpRbcbvx+4djqNQo9ysl2BPYPcqnWC81WnRzotv33ALK3waJrNIATYeooYiIDKi0AIJN5bY2qdTzMnsf/7XAs8QOD9QAAuWTrqZYtJrcqfYIoxgW7u98JR5tOdrIdogF1kaZrUbCfUSDmYDOKgnVWJrXC9NnYEop2Xi/AIQZr9tkWvpFtbzH4YEJUvIoLAACQ61z+FxUYHbAVuDQYTZxgsiYAdHW2nAUVo6uWNyXACBW9ORxrehKYUutkW1S9YrFJe4RiTW/Zln5XzC2a2wy1RfUkw/v8AQCheOPFEJxqsqYq5nZ3tP7ZZE0iEyoyAABALtnaDIXJbXEigptC0cajDdYEAGTTLT8TW8+Aw9ODCp0Siq1uj8Qb/t3Jdqj6BKPj5/chtwLQ3Z1sR4EeteTAjAPH5wajjbNMh3EVvTWXbl1ksiaRKRUbAAAgG82eBcDkDSMBiNxdF286yGBNAECms+1Gv8rRAJw+4D9cUOu3wXjj09wuSMUKjRo/ORRNvC9iz3HsYJ9/6RghfU25jtZnTBcOxxv/U8T4sd0v50KZaYZrEhlT0QEAq1blClr4BoCkwapBW/GgE9vs0umWR/zq+5QAKdO1NyUqXw7FfO3hWCMPJKHhsOpGJq5DX+EFCHZ0ujFVvJFNBXYzeavfgGCscaqqXA+zry06CrCP435/8rLKDgAAetJvrIBlnwqj0+saEhv3h+ONnzZXs186vawtk7J3U4Ej16N9nAYU8otgNNEWDu89yfn2qBKEo40nhuOJDtvGNEAcfNffTyBP5tKtCeC1LtO1Q/GmfxfI7QB8BsvaUJzck1rxhsGaRMZVfAAAgGzHigcE+C/DZUeqymN1dQ2fMlwXwIp0LtnaINAnzNf+JBE02P7efwTjjb8DJodK0SaVn7q6PfcORhMtKnKrKkry+kjVXpRJtRwMB9bHhGONh0FxN4CAyboiOD+bbv29yZpETqiKAAAAmVTrZQCWGi67ve2zHhsR3bPBcF0AsDOptkMB/A8AdaD+xwggovLVYKyzIxRNXOR0e1ROJtSF440PFny+l0WQKE2b0meJNdX00b4DRmw3/ghVPAyo0cEfwJJMsvVKwzWJHFE1AQAAsqnW6VB5wHDZnX3i+3N45PiJhusCALKp1h8WYB2pih4n6m9KgBoI5oVijR3hiNlbEansWMFY4y9CsfyHqnK0s1v7PmZtjfQ2diWXO3KDZl286SBfXh+EiMlpfwB4OJsac67hmkSOqaoAAKAQqsFJAP5huO6OattPB6OJLxiuCwDoSS1/LFdbszug7zpRf/Mkrpb8KhRrfGdEbLzBa1CpHISiiYtDsUSXQM5z4Cl5iwTyZDbVOsaJxX4AEIo0HmOrPgpRo8d7A3gpWxP4BvCU07t4iIyptgCA9vaWTgTkaACmB9ORIngsGBm/n+G6/T54dW021TZWbXXkqWjLZFcf7EeD8cTKaLTpyNK2TaUWjjVcEIo3dULwEwDB0rWsCpWfOPW+HwCC0cQJsOReGH7nD+A99dlfxTrzixSJnFR1AQAAsu0tqy3L9xWY324XE8t+LBxrPMxw3QF2rrNtqqiavPp4UESxR1704f4gYP4wJHJXONZ4fjiWSCqsy6BaV+LmO+CXfbPplkucaiAcTZwi/XdvGB38FegUwdG5D1esMlmXqBSqMgAAQFfHsleh+BaAPsOlwwq5PxRNfMVw3Y9k0m23ZyPZnUTwT6fa2JL+ICAPhmKJNeFY4/mlbp+MqgnFGy8JxRNdCvm5w2f3b5aKPp1Nte6QXe/cFbnBeNO5Kvg1ANPT/r0WdGom2Vryv4dEJlRtAACAbLr1YQVOAVAwXLoWgvscvYBn1aoPM8nWT1tqLwbU8V0CmzFaIT8PxZs6g7HxV/COgfJRX5/YORxvvD8UTWSh8iOoufvuB0uBXlE9KZdsmwLnTr+UULzxp6K6AM4sYHwpk4o+5UBdopKo6gAAALlU650icOIc/hoVvSkUT8yDg6unu9IrZiLg+zyAdqfa2CrVOoH9vVB0dVc41vREODzB+OFIZEYk3vDv4WjjS7k83lWVYyFGD78ZPMHruXDXzpl0223ONTKhJhhP3OTwRVv7huKd9wENIxxsg8gxVR8AACCTbL0JinMcKC1QXBSKJm4EJtQ4UB8AkG1f/mI21TpaBbdoCc4M2CyBT6EHq7/vpVCs8Z1wrOFCmJ9ypaEaPWmHULzxhnC8KV1Q67cq8mmUbjvfpvJQ+XE22ToBq1c7FlhjsYkjg7HeR0Xh/BXYiqNDMes2YHLJdkoQmcIAsEE23bpYReY4UlxwWjDW93A8PjbuSP1+di7ZegosfBluzQZ8RHZVWJeGoonuYLzp2RGxvZxaFElbEIo0nBGKJ14LdnevgcoZqhpxsz8CfSlbW7tzNt3yMyfbqY017dGHnmcFMsXJdjZxXCjWeQdDAJUbBoCN5JItCyDiyAeUAAf3oubZ2vj4sU7UH5DraH0mm2rdvn9tgLPXC2+TwCeq+/lQeCwUT3QG442/C9Y37utqnypYONr4rWCs8blQLNEHy7oBik+V8PCezVJFt9h6RibV9lmsffkDJ9sKRhNfsKDPAdjLyXa2gCGAyg4DwCayyZYfi6LZkeKKT1lqPxeMNnzRkfob6UqvmBlATUJV2pxua1AUdaLyVcnLX8PxRCoYb7qvNt5woNvdKnd1sabjg/GmZ0KxRK+K3CaQL8Ijr14E+nguHanPdLbd6HRbwVjT8SLyJIDRTre1FcdxTQCVE1efDjxMwtHElSpw5pUA0APo7Gyq7VqH6n9MqG78d+ErzAfEcxf9WFYN6kc1obHhWDQmjoFlDW2pxOLmaFn/DM+Ykx7Smo3ubDteff12vPP200in34Wq6Q0sBihW25Z9YndyxdPONzbFH4y9f6lAz4N3Ps/uzaYiJwAvmt5iTGSUV/7CeFI41nSBQi9zqr4KbsmFur5bojvD/cF44kZRnAjPzvwIgsHtsMPoTyPRcAx22e1L2/yKSg8A+Xwv3n7rj1j55iP4YO0/0dvbWaquDZmqdluW/KhUl+FEIolRBQu3Azi0FO0NieChbNKeCqwoyR0eRMNR1h+epRCONZ2v0J872MQ/bMhx3amWNx1s4yOx2KQ98sjdo5DPlKK9YogIgsFRqB+1F3bd9QCM2+NIBGo+PolRaQGgO9uOthUPYtV7z+HDD9vQ15N2aVvHkNgK3JVLtZ6GEp1QGYo1fBaw7gEwthTtDQtDAHlcWX94lkoo1ngWIIvh3JPzelHrpEx6+aMO1f+E2njjlwXWr0V1bKnaLJoAAX8Q4fBOqK9PYKcx++Kxf1xQj1WrPnS7a8MRiSTGf3bfc5et/eCfSHasRCazFoVCeY0VAn3Jj+DUVOrlkgRYAAjHE6eq4lqU9K6CYWIIIA9jABikcLzxdFX5JeDY4SkFqFycTbdcCvMnE25RONr4LRVrIaD1pWrTAX0Akgq8DcEyC3ipAPvv3ckRLwIuX9AyetIOkZ6+/QrIT9YCPmVZ2ENh7QbYIwHx6KuYQRC8rj49I7e+7W8la3P0pHCou2choOV1TTVDAHkUA8AQBGNN3xDoLTB/m9jG/moDJ3WnWlc62MYnhEYmZsDGJQBGlrJdx6kWxJKM2uiCpR8qsB62rAVktSWFNWrrh5YvsD6PQvsIDX50Q2Qq9fK7GDiidoe9R8d6rJBt9wb6fPmdAMAPf71d6KuH+HaBhZ0FuoOtGAXIdqKIQhBF/xNq+Q7ym6GKFWrpt7uTbX8qZbuhWNPnFHqLAE0ONtML4B0ADcYrMwSQBzEADFE42nSkLXqXAE4erJJUxdm5dOsdDraxWf07BuyL4e52KvIcXeVX6zvpdMsjJW7YCseavq/QS+Bs8E4L9Os1VuH5Htv/GIAvGG+BIYA8hgFgGMIjx09UWx8EdDcn2xHg7oD0Tksm30o62c7mhOqazoKlF0GwY6nbJo9QABZeL6g1pye1/LFSNx/cbs9dUbBucvxUP8VqWPYx2eSKlwBg5MhxMYYAqgYMAMMUGtU0Bn14ANDPOtzU27aFU7o7Wv/scDubVRvf8yAffM1qYx/+tFQNW6HPS01genbd6y+50YFgvPE46V9zs53DTb2svsIxuQ/feHfj32QIoGrAj/QijBrVFMn26V0AjnS4qbwCV+Qi2Z9i1aqcw21tVl3dnnurz79Q1f4SRNy5RY6c1qfQ3+QiuZlu7ayIRBKj8j40l+QiH8FD2UDgBKzb/EJRhgCqdAwAxfOF4omroJhRgrbeEOC7mVTrEyVoawsmh4LRzM9ECqcD4uTlRlQyugrwXZNNLb8cAwsfXRCMNR0v0MUAti9Bc9dnU2POBp7a6n8vQwBVMgYAQzYcGPQ/cH7VtwK4vkZ6z3djbcDGIpGGY21L5ink06iw1e5VoFdE/yB5Pb+ra8XrbnakNr7X7pYWrgFwVAmas0Vw/lBOK6ykEDBtmgZqa9Nj8z7saUF2siFBS7UOIkmIndWC9U7B8r1xbXPovVL0h9zFAGBQKJr4CgS3oDRb6dYo5JxcquXuErS1DZNDoVjnj6A4nYsGvU0FbwK6IJdsWwS3b4sErFAscaYCVzi8q2ZAGoLTssnW3w71C8s5BMya2/EZW63jIPJlKD6PwR2gtA7AX0T1CdT471l0eXi1E30jdzEAGDYiumeDT3z3AphYoibvVV9h9qaLmNwSiSTG5y39iUCORKWdKVCOFIDgPVXrrlxd+lKsXt3udpcAIBRv+AzUugZAqa6H/ocNTC3mfI1yCgGzZq2P2gH/GaoyXYDGIsvZAJ4GcNX2scgD8+aJ28GRDGEAcMTY2lC05hoI/rNEDeYUuDockP9ub2/xzG0x4fDek2xf748sweEKxNzuT1VRrLFg39NVW3sJPnh1rdvdGRCJjK+3ffoTVZ0B507V/BiF3JYLd37HxKVbXg8Bs2bpiIK/c44AP4Azf+eWK3D+kuboAw7UphJjAHBQKJaYBmAhgKHdcTt874ngh5lk682At+6QiUb3arTV/p5t2UcrZGfhz55haqtabwDyYNDf1/yhR2aE/mVyIBjvmi6qF6N0YTAvkB9lUi1GL/Pyagg4e07ngRb0VwDGGe/XJhR42Ar4zuSrgfLGD2GHBUcmDhDFXVDsVMJmX1DbPjfXueK5ErY5BBPqwrHe6TbwNQEmARLa9tfQpgRIAvI3gd7YlWq9G+6/09+scCxxqAquguJTJWtUsVrVOj7XufwvTpT3UgiYN0+tdan0xYBciBLNqmzQDsHpi+dHHyxhm2QQA0AJhEY1jdE+vUWAg0rYrA3Ir9WXv8gr6wO2JBbbe89e9JwlgiPVlgYR1LrdJy8SIG1DXxfB47WWvdR7T/kfFx7ZNElt+3JAjihx049LPnBKJvPaGicb8UIImDdPa9al0r8G5ATjfRicAlTOXbwgstil9qkIDAClI8F40zmiejlK90oA6L/g5H8RkIuz7S1lMV1XX5/YuTtvn2qLHCEqE9B/Gly1bTO0ofhALH1R89aD2a7CbcCKtNudGoxIJDE+78MPRXEiSvtE2gfBpdlk609RotkQN0PAtGmrQ4Fw+H5ADjHe9pDJRYubIz91uxc0NAwAJRaKjZ+ssG91+FazzekB8GvJBy5y+snICcH6xn0lbx0rwP6q2gTBKDh7OUwp5VTwvgVdBtVnkR/xcCbz2j/c7tRQ1cbHj7XUvhDAGQD8pWxbgeUC+6RsasXfS9ku4E4I6B/86x4AcLDxNofv54uboz9wuxM0eAwAbthll2C4K3yZqp7jQusZBRYFNHB5Ov2aK8e9mjOhLhLvOSSvcoAF7GOr7C79wSACj4UDVfSIICmCNTbwFhTL/WI/15nc5VHgqW63+1eM4Mhxu4nt/y+4MPADgApuzo2oPRtrX86Uuu0BpQwBHh38BzAElBEGABcF44mvieKXAOpdaD4FyCLJ+xeV44zAIFjh8IRJsPr2UcEesLCLqIwB7NG2yEixUQvBCEBrAfFD1QfZ+DWDbPx3QzdsqFcABQBQ1YIIbEB6AM1AkFJYHQDafQWstUXfF2Cl2PaLbp+055QRkfEJn2V/D8B/orSvtQasg8iZ2WTL/S60/QmlCAHTpv3J5+HBfwBDQJlgAHBZ/62CegOcv1BoS3oA3GwVdH5XV9syl/pAZSQ4MnGAFHAeBMfCrbUZgofQ6/tONrvsfVfa3wInQ0CgJvzISSf9MSjiO9B0bQcwBJQBBgCPKPFFKJujAJ6AZV+d7VjBQz5oU1ZoZMPRUOsHUOznYj8+BHBhNtW61MU+bJUTIcDvq8Vhhy/Ajjt9zlTJUmAI8DgGAA+pq2vYvuCXZlE5yeWu/J+qzs+la+4BXut1uS/kou22a4h2561TIJgDYE9XO6O4yafW3M7O5etd7ccgmAwBAX8tDj2s7Ab/AQwBHsYA4EGhaOIoCK4BsLvLXUkCuEssa1GmY/krLveFSigUGz8ZsKcBOBFAncvdeUvUOiuTXv6oy/0YEhMhIOCvxaGHX4Udd5xssGclxxDgUQwAXjVmTCiYqfuJAOehtHupt+RFAEuztbW3urnampyzYcD6JoCzAXza7f6gfy//9dmawPew7rUutzszHMWEgAoZ/AcwBHgQA4DHBaON+4rIQgCfd7svGyQhuAVq/W82tfxFtztDRfOFY4kptujpojIV8MwpjH8FZFY21fJ/bnekWMMJAf5ACIcffjVGj3YkhylUHhfYD9iCNhUkRWV7S/Tz2v8z4MiRzSJ68aL5sXlO1KbhYQAoDxKMNX1dgCsA3c3tzmzkbRH5nS16d66j9Rm3O0ODZgVHJvazVI5X6PElvqdi6xSrIbg4m2q9Hh6922A44vGx8V6t+QOAbb7I7x/8F2L06H0c6In83bYK0665Mr7Z8D5vnlrtqfQJClkEB67zZgjwFgaAcjJ6UjjU0/19KC6Ad57UBrypwF2+gv6a2wm9qW67hgm2bR0PxSkowY1xQ9QrItcG/fiRl660NmkwISAQCOPwwxdih9GTnOjC7/oyXScuXTpmm9cin3NOqrHgk0fgwM8JQ4B3MACUodpYYpwFuRzQqW73ZQtegehvtaAP5zpXPI8Nh+dQqY2tDcf8X4bKUSryNbi/qHSzBLi7IL7vdyeXve12X5y2tdcBAX8tDj3iauw4+rPG2xXg3t5M5ISlS6VvsF8zfW52V7HzT0Ic2f3BNQEewABQxuriTQfZqvPhjQVbW/KhAH+A4GH09T2Syby51u0OVbIRsYY9fWodCQtHQeUgQL181fKLtujc7mTbn9zuSCltbiYgEAjj8CMWYYcdJhpvbziD/wCGgMrGAFD++tcHiM4r6X3rw6OAvAToIxbkia4a//PlurrbKyKR8fUFf34/Ud+hUPsohTS63adt01dVcFEu2XYf+g+gqjobh4BATV3/tL/HBv8BDAGViwGgcljBWNNUC/ozBRJud2aQChC0QPGMCJ4twPpTd3L5W253ystCo5rGaB/2twQHqOr+AD6D8rkq+U0Al2VTrTeAr4UwcuS4mNTUP3HIoQsme3XwH8AQUJkYACrOFH8o/v6pUP0xgLFu92YY3lTBs7D1eZ/le8WyfS+X/62FwxMa1TRGemUiRPdR6L4A9gcw2u1+DcNKEfw0k2y9BRz4PzLtgg9j/h55XMRn/Ig/k4P/AIaAysMAULEm1IRi+W8DeiGAXd3uTZFWAXhFgZctlVfgwyuZjrplwIvGPtxcNWZMKNRVNwEik0TtibbIRAH2gTu3RBok7wD639lU5MaK+X9lyLQLPowFev2PAtjXdG0nBv8BDAGVhQGg4k0OBGNd/yHQ8+DENaXu6gCwUoCV9oZfBVhZAFZ2p1rfhmeeNicHQqO6tkef7KTQcRYwTqHj0L/Fahz6Z2rKZRp/MP4pgvmZZOR2DvyfVK6D/wCGgMrBAFBFwrHGwxT4HiCHo/L/3/cCWAdgvQLrLWCdAu0QXa+w1ls21it0vQj6BGLbkBQAWIV8Lu+zugGgRgNJ2+7x5X1WBAB8lhVWGzWAikDjAKC21opP6m2gXhT16L/NsV6AUaqoh6AewCgAfje+CSWkAB4V4IpMqvUJtzvjVRsGf0euC+7t63pUenc61snBfwBDQGWo9EGANiM8cvxEte2ZAE6F9w4UovLSq4I7feK7vKtj2atud8bLpk//oE5G1D4BBwb/9euXtUZrv7B3KQb/AdPnZncVzT8FHhZUthgAqliwPrGz5DEDwOkAdnS7P1RW1gD4FQKyONvestrtznjdtGkaCNR1PQDVI0zXXrPmxTWr31o37rnnvpEzXXtbOBNQ3hgACOi/EOYgANMU+Boqf7qahscG8EeFLM2l6n7L9/uDN31O6hqBnGW6bnv76yveWfHOJDcG/wGcCShfDAD0McH6xM5WXk5W6Fkoz22EZJpitQpuVsh13amWN93uTrmZPrvz6yJ6t+m6vT3pxyW/81dKOe2/JQ6HgEsWzY/9xHRdYgCgLfOFIo1HQeRMCI4CUON2h6ikegH8HopfZtOtj8IzOyrKy4wZ6XrUoBXAdoZL39eXiXzTC4P/AM4ElB8GANqmeHxsvA81X1XgeCiOABBwu0/kiAIEf1XI3b584baurhXr3MHiiwAADlxJREFU3O5QuZsxJ30dgGkma5Ziq99wcU1AeWEAoCGJRidsV7D6jtkQBo4E1wuUOxuC5xRyt9XXewcvazJnxtx0AoplMHvGg+ee/DfFmYDywQBAwxYOT9hRfX1TVfTrAtkfnBkoF30KPCOK30ih7x4O+s6YOSe9VIHvmKonwEOSj0xduFB6TNV0CmcCygMDAJkxelI43N39bxA5VhX/AehubneJPmatCh6DygMjpOcPyeRbSbc7VMlmz+6I94nvfZg7Z8PzT/6b4kyA9zEAkCNqY4lxInKsqB4D4EsARrjdpyqTh+BvovKAQh7Pppb/HVV69a4bZs5Jf1uB6w2VK7vBv5/KjDmdN6D/nBHjGAKKxwBAjhs1qimS7bW/DJH9BDhAgc8DCLrdr8oiWQFeUOAZqP4lOyLwJ6x7rcvtXlWrGXM7HzF06E/5Dv5z0wuhMsPJVhgCisMAQC6Y4q/bblWTXbD2V8EBonIgXxkM2VoIXhCVZ2xLn8112C8AKzz/brgaTJumgUC4swNAuMhSD/ZlIsdx8N86hoDhYwAgTxgR3avRQmGyCCZBMBGKiQB2d7tfHvE2BK9A8YoC/7S18GJP+o0VbneKNm/Gual9YclfiyzzmvZ0f3HJkh3KbBantIP/AIaA4WEAIM+Kx8fGu6VmolXARAj2AWQioE0wf6iKV6yHoAUqrwD4p23pq0HkX+7oWJlyu2M0eDNmp8+A4IZialiwDlvYXPe4qT6VhsqMuV1XQXWWSx3g7oAhYgCgMjS2tjZWM8YHjNMN/1gbfgXQACDmdg+3oBvAagArAawUyEp7w6810v0GV+ZXhhmz05dCcOFwv14Ury5aEJ1osk/Oc+fJf1OcCRgaHuJCZeit7u5U/yC6uX8bj4+N5+zg9hb66gVSL5aMsoF6UdQD2B7AKAViMhAUBEHoR9u1Yug/uCUAoG7D73UB6EP/ZTipDV/TDUUOABRICZAE0A6gXQXrLaBdbV2v0PU2AutDvp4PtvYkny3q+0GeIsXdrGlb+L2prpSGNwZ/AFCVi2bOTYEhYHAYAKjibHiSTgJoc7svA7g6r6rUbfuPbJml8oapjjhvYNrf/cF/gKpcNGNOupavA7bN5BGVRERVT6W4EzFtsbtN9cVZA0/+rr3z35oLZs5NzXO7E17HAEBEZJBAMkV+/U6m+uIc70z7b8mG1wHz3O6HlzEAEBGZZNvpYr5cFF8y1RVneH/wH8AQsHUMAEREBgnkrWK+XoFDZp6fGWOoO4Y5Ovh3AHjTdFGGgC1jACAiMkil6MWntZovXGykM0Y5O/jbln2Yiv9AbGF3TzEYAjaPAYCIyCAr73+h6CKKM2fMSZ9moDuGODv4C+zDr7ky/uKS+aF3VfxTwBBQEgwAREQGLVwYWgUzA9gNM+Z0nmCgTpEc3eqXtKBHLmqO/9/Ab3wUAhTGt0Nu2CJ4mem65YoBgIjINNGHDVTxAXrT9NmdxxmoNUyObvXrENiHLWyOPb/pv1gyP/SuWv6D4MBMALhF8CMMAEREhokttxsqFRDRu9yZCSjtk/+mOBPgPN4FQERknMqMOZ3LADQZKtinKicsWRC511C9bXD+nf/WBv+NTZ+b3VU0/xT67/owqtrvDuAMABGRcaIquNJgwRLOBLj75L8pzgQ4hwGAiMgBvr7ITYC8Y7Kk82sC3Hnnvy1cE+AMBgAiIgcsXCg9IjjPcFkHZwK89eS/Kc4EmMc1AEREDpoxJ/0wgCMNlzW8JsA77/y3hWsCzOEMABGRgwo+OU2A9w2XNTgT4O0n/01xJsAcBgAiIgdde0XkA6icDKDXcGkDawK8+c5/W7gmwAwGACIihy1aEPkjIKcBsA2XLmImoLye/DfFmYDiMQAQEZXA4ubIHVA5B4AaLj2MmYDyfPLf1EczAQ6EAFTBTAAXARIRldD0uenviOI6mP/8LQBy8uLmyB1b/2MDT/6ODP5JC3pEKQb/jU2fm91V7PyTEOzpQPmfL26O/sCBuq5jACAiKjH3QoCjg3/Kgh5e6sF/AEPA0DEAEBG5oPQhoHIH/wEMAUPDAEBE5JLShYDKH/wHMAQMHgMAEZGLnA8BdXdWy+A/gCFgcBgAiIhcNmN25wyILoT5z+Q+AH8A8BXDdQHDJ/yZ5mQIqJQTAxkAiIg8wMGZACd48sl/U5wJ2Lpy+EEjIqoKZRICymLwH8AQsGVe/iEjIqo6Hg8BZTX4D2AI2Dwv/oAREVU1j4aAshz8BzAEfJKXfriIiGgDj4WAsh78BzAEfJwXfrCIiGgzPBICKmLwH8AQ8C8MAEREHuZyCKiowX8AQ0A/BgAiIo9zKQRU5OA/gCGAAYCIqCyUOARU9OA/YPrc7K6i+T8CaHCgvOdDAAMAEVGZKFEIqIrBf8CsWdldbH/+SVRhCLDc7gAREQ3OkvnRX0JlFgB1qImUwD60WgZ/AFi4MLRKxX8wFG84UP6CmXNT8xyoawQDABFRGVm8ILJYBd+FMyEgpLB2daCupy2ZH3rXKvinAFhhuraqXDRjTvoy03VN4CsAIqIy5ODrgD4A31zcHL3PcF3Pq7bXAQwARERliiHAvGoKAQwARERljCHAvGoJAQwARERljiHAvGoIAVwESERU5pbMj/4SorNhfmFgAMCdM+akv2a4rudVw+4AzgAQEVWImXM6pyn0WnAmwJhKnglgACAiqiAMAeZVaghgACAiqjAMAeZVYghgACAiqkAMAeZVWghgACAiqlAMAeZVUghgACAiqmAMAeZVSghgACAiqnAMAeZVQghgACAiqgIMAeaVewjgQUBERFVgUXNkqULPAQ8LMsbpw4Kmz+68yIG6H+EMABFRFZk+JzVTIFeDMwHGTJ+b3VXs/JMQ7Gm4tArw7UXN0RsN1wXAAEBEVHUYAsxzMATkIfja4vnRBw3XZQAgIqpGXBNgnoNrAjoh+Nzi+dFWk0W5BoCIqApxTYB5Dq4JiEBx67RpGjBZlAGAiKhKLWmOLRLIWWAIMGbJ/NC7VsE/BcAKw6U/5w93nmOyIF8BEBFVOa4JMM+hNQGdfeprWrog/L6JYpwBICKqcpwJMM+hmYBIAIXzTBXjDAAREQHgTIATHJgJyKAXuy9eHF1fbCHOABAREQDOBDjBgZmAsAT0RBOFGACIiOgji5ojSxkCzFq4MLTKyvsPgqEQoCInmajDVwBERPQJPCfAPIPnBKj6rTFLflG3ppginAEgIqJP4DkB5i1cGFrlt/OHAFhbZCmxCnpgsf1hACAios1a0hxbxBBg1lVXbfeOqJxQbB1b8W/F1mAAICKiLWIIMG/RgshTUNxfTA2BNhXbDwYAIiLaKoYABwj+t8gKRd83wABARETbxBBglj3CfqrIEiOL7QMDABERDQpDgDnXXBbvACRbRIlIsX1gACAiokHjYUGmqADqd7MHDABERDQk3CJYvGmzszsCqCmiRGexfWAAICKiIePrgOL4rfxhRZboKLYPDABERDQsfB0wfKJyVjFfr0BbsX1gACAiomHj64Chmzk3dTJQ7EE+0lpsPxgAiIioKHwdMHgzzu38sqp1XbF1BPhLsTUYAIiIqGh8HbBts+akvwRLHwI0VGQp9dvydLH9YQAgIiIjeJXwls2ak/6SDfweQF2xtRT421VX1RV7oRADABERmcMQ8EkmB/9+equJKgwARERkFBcG/svM2Z0H25BHYGzwR5f0yu0mCjEAEBGRcVwT0P/kr6K/M/DOf2PXLV4cXW+iEAMAERE5oppnAhx48geATvVbV5gqxgBARESOqcaZAIee/AHBvCW/qFtjqhwDABEROaqaZgIcevIHBC/0dUUWmizJAEBERI6rhpkAx578gZSt9glLl0qfyaIMAEREVBKVPBPg2JM/kLdVT7qmOb7ScF0GACIiKp1KPDZ45uzOg1XwgANP/irAtGsWxB4yXBcAAwAREZVYJb0OcHDaX0X13EXN0RsN1/2IOFWYiIhoa2bO6Zym0GthfizqA/DNxc3R+wzX/RjzJ/x9pH/wXxAzuuhvUwwARETkmnINAeU++AMMAERE5LJyCwGVMPgDDABEROQB5RICKmXwBxgAiIjII7weAipp8AcYAIiIyEO8GgIqbfAHGACIiMhjvBYCKnHwB3gOABEReYzzJwZ2fmOwXzDz3NQRDp3wpwo9x63BH+AMABERedT0OamZArka5scqVdVLR0j0v5ubJbe5PzBvntZ8kOqcK8AlAPzG24ees6Q5tshw3SFhACAiIs9yMAQAwHsi+itR+QPy/jf7/FBL8rvDlkNE9HQAezjQpicGf4ABgIiIPM7BNQGl5uo7/02V+zeTiIiqQAWEAE8N/kD5fiOJiKjKlHEI8NzgD5TfN5GIiKpYGYYATw7+QPl8A4mIiACUVQjw7OAPeP+bR0RE9AllEAI8PfgD3v3GERERbZWHQ4DnB3/Ae980IiKiQfNgCCiLwR/gUcBERFTGHDw2eDhcP953KLySmIiIiIZt+tzUqaJyPfrP+3dDQQVnL5kf/aVL7Q8ZAwAREVWEs2enjrZEbgUQK3HTnSI4edH86P0lbrcoDABERFQxZnyvY3fYvtsA7FeK9hT6kr+Ab159daytFO2ZxDUARERUMRZfOfLtvkxkikLnAkg72FSXAhfuEIt+sRwHf4AzAEREVKHOPbdrdJ/PPk8U3wUQMVQ2A8gNBfguv7Y59J6hmq5gACAiooo2e3ZHvFf8J4rqtyDYH8Mb+/4m0Nt7Lbl16ZXRdtN9dAMDABERVY1Zszq3L/hwoCW6nw2MF2APAKMBhNE/JnYB+ADAmwppEeAvfWr9eemC8Ptu9puIiIiIiIiIiIiIiIiIiIiIiIiIiIiIiIiIiIiIiIiIiIiIiIiIiIiIiIiIiIiIiIiIiIiIiIiIiIiIiIiIiIhK4/8BEY/hZ0clemIAAAAASUVORK5CYII=;" vertex="1" parent="1">
          <mxGeometry x="-5551" y="-1392" width="34" height="34" as="geometry" />
        </mxCell>
        <mxCell id="JhdC-7hi9hZoy1IBPFO8-56" value="" style="shape=image;verticalLabelPosition=bottom;labelBackgroundColor=default;verticalAlign=top;aspect=fixed;imageAspect=0;image=data:image/png,iVBORw0KGgoAAAANSUhEUgAAAQ4AAACUCAMAAABV5TcGAAABDlBMVEX////u7u7t7e3s7Oz+/v7v7+/w8PD5+fn09PQeRH4bQn0fRn/odywZP3rAAADmYwAAJm3rjykJNnX79/TvpnkALnKHla8AAGBehJzrjBzECSLriAbPXWG8w9FWZpIAKW777ePe5OnIIjertcV/m6zYhINccZfvpmL24uXjrajgpZ9Pe5TwrXJIXIyzws2qusTocB56h6bCzNLvq4pJYovwxKAAH2sAF2jV2eHqnH1vfaB8lKrXlpkxR3vrnFgADGfqfgDtnmvqhUeeqb7lWADdjZQ8cIvvuIvqsXv428U8aI2Zrr3y183unU7vuZ/slTrrjVkAAFTMRE7Rb3PtzMvfeVoiVYAVRXUAAEk0O3YsFJ80AAAVa0lEQVR4nO2dC2PbNpKA+QQhKWwcOqKddCWboU9Jz2ESMq7M0qu4WfWSbZ3Ltnd72+3//yM3A4J4kKAlv2o58dhJLHiCxycQmBkOKMsS4lHH5uJQWRz4Tante7KYiFLbrEwUZVmq1czb80lxdlYKddkNN1B655pqVvtsVvbNA1SUAzkS2zJrq52WA78xHK8/fCjucTQ46KvDwzuD4+Yvlnsc9zjucXRxuAYc9teKw3G0ml2fUArf9DXgEMUbgsOirhC107Yo1XCYlR2jss9KCA0CqvbDoW6SUPiG2fGK1hKoNStVeLJUBa30OTAqKyP0zMpKn12LSgkUMRevVD6vCu/F548f//6zql3GJygHuyAHTE4KtY7i9evXr9yLd+PSypbTiKtNIFcUU+W9sGWxZ1DWJopHXMfVlPffffvtjx8DWbNV7B4iifqvWlK15uUvh4cHCVTkuOqk90WDttJnKodCTMqOryorA7QUUS4cbQLJZcS8JHqrlD3SVt5//uTRt98HUtkql3xO7O6e1D8dvHKUml8f7iKO9hqgGIbqCOVINByyVGNnHODt4vBgLSEwR2HteO3Y9RxVJ+n14vA3HUcjBSyl/Gom9zg8xEHZ7ND3wK8BhyOUdRy88q8Nh1ReB8fuPY4bwrGZO0v3YrG+rNnhmpT7cIheO6LTXvHh8HWj7ppxqCMkonc9I7wYDoWGZqR7ja3qXYfBq5R6KByHpxQ3rZUHZ4UsxUHUf+qltK6Jjc3rtCf7rJRSz9y5lQPUyKxy4VSDUTpaznn+nre9L+TTO8DxUSnYt5sa1LmWCHHP6tnBjGlWYjs37MKp2qscfLUfazr429+/f9nI80ePHj3575dSxIWj8igOpJxI345J6hP7tuMdVwodbz/+8YmQR8hDkY/NEuUoI5wcStndVZw7kKV913H8/Vsdh+Tx7ZPPJhyvOARdaqf3jNw+jitFw7Y/v3v58h2XfwCNf7x89/z583fvXr57/6u8WFQcs9lhtTs7nO1WAkaFX3k1u/Ozw9re39529198erG///M7ttHiGurub38i+/tNJSqOpAAp6y+2lBYlE3hdJMS/dRzXECsNCCGU1hut0qCow9GU5XbJNlo+IFbit2q+c7ODic/qbOMQ5pvvqzstEQtKcCZxbGAk/RIbrcRhkw4O3h4BU2R7e7spFt0g9DZxKPFDHYcotbX3UJRqZpgo1iLpWNDFUbdng23y/of332+3a2Y4dgUOUbNmhskAqYZD9k7F4ZqUlT47ltmqXm2ZX0KZ4+gob7//6c3Dn95vd6qo1w63a5lf3W3oUbZ8KYEnJLCbQpvKUo8IXXu1MhXFjuqz0I7y9uOHDx48fLzdrrnxWdj/IJZsj4ia1T6Lilt9FspktfJNerROS5nj6Dj4DY7uZd3n4IuabaODr3u0q9zfTQv/XByHqHkj4x3n4ACDw98UHLcfDcM1i/oromHn4jgU4Z8kzvMluQKOW58dNNn9cJJQeVPyyY/fS1N0HRyHEkc5y7LcvgKOW58d1D04VHC8ffz4h59lcHAlDm9SxSfL5mJJqiyL6RVw3P7s0HB4FFaS7YvMjiChievzEZazaZZfBceGzY6O8mocYBmRZoRXxnGF2WE0JS5qdzgmHFK56XSDg/VQs5/RqubKcLEIHMKUcGzzCI12h7MODmmgqkZbQESpZuEJZX+1MiU+x6GZsL5ihOtWqaEbQtmnHAdrr2mQ6IamVFb7bFRW6tCsUkUDL20u1FysNr5KGcP4XnIAOwN2qa0c1F2qFWscllozbbWHdx8QBxuEuRuBon2RkajFljpRXDb/4E/Lo+UTU3NSCZvGeMe95dGyUmiurvKgdtCROzOtm1sWn9+C/FDL27+9efDgzd/ecsGizxScYO0OlMV2lly7R8R8dt6Nbl5dPZKWg8+12x4t176h8I/vTpa1nOzuLtP6x4QqNf/68I2UB0yUgje/suWy7nSSVzlIVU1B4B94VS1Jt8+bGw0jyYm8NdD8VOKmInA8OE80HGB+TVuyqJJbw3GJWCng6NwaAEddxfHmIjhqQRD8x9y9NRyXmR1u8QoE/jrZPXnFQuNlaRNn3YvloXaxxHit5HEONGb4b859l9vBcZlIOmHLP2z6sJRCGyzi5Ks1f36riL6UonxmNlWNg+8eAfNZEpe6Lu4XdwpHc6+AbbQyOK7X7LEYHfzhG21TB3rBROLgQvlGK1ncJRy2iqPnxAK6Iw5xGjOsqVlG0dQR1jh8qt2UuWM3FnQcrRzfxn1p4ehJ0Rc4NiZFX/U91kvRRxxuk6LvtlP0eXZHe3YYszD4xeL7N5vfQcyGq98U6va/KNYj6UZl6gufpSmh6N40lfidSHpdLGu2ksRJEpfbz9yj1Uxws9vQ02fdwTEq32wknSYnH3Lh0b74yzfffPMfIuDR4+Crb1z823wnY/YKD/+0PNoLOfhrebTXgeOc4ODyZKngePrs6Uoc6mUdj0fRjBn3GO+YZov8TsdK4SqCue5fD45kGcfpnY6GoT1GhPKVcPhozNV+8t2dHZryVXEYar7HcY/jK8Px/qeHmNBw0zg2YCk9B4cw7r1P798+fv+JbgIOaaHqNxbQeq4ta0XbbK8HRnvdI00NbgsHt83V84x4Kq5R7uJgNr86QmOfqRwKMSrrJyVF77TwqzkN5joyabRi+PYYjr/2ZM/rpfVfXo2DZ/8EvPgyZ3jXVVbJUARWf2lOqstOMMJX+5Q11275e7V2o1x7NUxqHEoWD76fdR2qkxrwKEiAOAaIo3F4AmLjYd2WC9f0Ts8Na2pu5Ybxr7YL15RbqvYNJFJuf/pOyF//59mzp/8rX3/3T1PWcbmUMosGYdZE4kFe3fUk7P3/+0bKM5Cnyuv/8gw4lsfH8zl8o0SDwSCaHzOBlzuVc+dxPH3WJ7CONHEhFUc0HAxHw4GUIcpgNBhFuXvncSiz4elas+P0+PiUT4h6dpwygdcbMTuutHYE//xPIWzt+Mt3sqBZO5pbmEySiZQqGkRHkzpDH1+Xdz5FH3cVfkyN7yxig2sMMt+fFEkpOih3QG531MVsv/kyUvQx1dVucEhl3h5JpovFImmKhXVJglzi2MAU/as97KYfhzvLpr9IHE03SBDfIo46ocGAQ6bPaAkNRhx2r7LTxVG35yCO7F8dHA6hxtnRc5/F/KCgdkKDQVnDYTZWbyJFP2ivHUIZcRwlXqcKfrH8mSn60v1y2i6ce2UXTlfmLpzwqYSjlcDFcpQ0+tfswpl9VPM9pY1w8Bsc3cv6Ohz8HuWNi3c4Kg64WEj35M1XGQ2zSI6zgy0qXkBuDMdmR8McGnDjM62m0yxlskwTpeava3b4+aKd5rSYlUrnvvDZ0bpHS+JFOwkuqzQcO1unWfmFzo7gxQu6/4lKHC6fHVMlCW6q4kgmRVE4/jXh2LDZ0aoDlBPmrCYsVbJ2XMtSU5b1XMNGu1YkXYpmhslH8qlmmDy16pmV1X6sUJaJ9JpV2o53c33NDJOnZLURdmsGZeVkr1FZN8Ou18pdXYWh2HOZGXZ+ezdysrdTrKToKwdf1bOlgTw8S4zKfo+yksUjz7Kazt9yn4V3xVKOuCrKnrE9z6wsT/b29Fk/QyFFmScrHfy1PFqhrDn40pU0pMoRjkPMY6FsdlIv4tFubryjW/PlcNz9aNhqHNM7g+N+dvzJsyOZTWd3BseNzw6bUtW4+epx2DS4x6Ea9+QO4uixO/SEBmMkvcfuMJoSfScWrtXu6I2kaxae8bilkgF+EWX1eKfMC/eNie/EfBZUVfaM7am55eaazX3WjwFL6UvR7xnWSmWl1DysCx1xvY6TveaRmJV7U/R7Dp3L2eatUu4+7KajbJmUHc2jlReqSdkxO/gXOnTu3mq843wcTguHdIy+vBsLK3CwTDhy7Tg2OxrWi4OyxI7SNz904QuMlZ6Pw1vubG3N88T8Hn59ONK9wTCMnS8ch0+oml58izg2Ye0gfuK6iezf143DoRPw3rPYgMP+c3CsUtZxtPI7SrxRWnjmlI3L5HcE6V4UzSuTstZpVGQ4OjcWajHndzhmZbVmWbpOfodq0tuEpn9E43GuRNjxwbxN+Fmx/5XguE9V5XYw3krH4WBcNfq2qqxE7sHDn2whDmI18W48rKt0r1GmOOmVPtu0Exy3QLnpNfFU5brI9u2g02f2H1Qw1CV0ORgOolg7C62cWl0dSe+6v69ChoP/4hyPVuDYmEi6GYes+jLxjkmk4jgn3rEujj8v3kGCtIvjirHSSfhl4fiKZ8f9xaLhuInZcZsXS+tJ2DeKA3ZyQlqHv3pmxwwf4eGj9uVx4Bktn+iHv3pxENimXcehgfZwnb5YKcs9dbo46PpLqewV/1CcHhxso51arSSWS+CQjz9aiUN0HZ/t7nWUNVMPz+9RC3MWDTgMa4cZR2AFRY7ZS7uFVU5hxHEPDmaGzazk7BCUZ0vFYLwQDuBZxtMsm56p2VJmHEmMjxqrUmotwnAoku+EMiHlpCyLoOkGdfFlSX0dh+sbLxaZPqPgSOLodCsC2TpdVKNweFzj6D5FH2fHYPj76fEYlPeO55W4+xjoD8aXOIzPul8ujudYw/z4X2eSaffB+MEkO52ztk5/z4FGdCRxcGWaTHd2dv5dNDis9N/wunKJYymJMDjj0wXi6EvokVkyZXYa1SfVRoNoDP9sxZ5JkXo4O2Ccg9GIaYfzMKWeoVaP4wi6v4N3p6x2oiHWMBoNx/M8EUk8qhY2l+RRxJsaRdh0eFR2mksq0DktrLqcWpNTUM4JjMu1hS6b2osQcFjqQQZlAjUuXFBmY+AwCHF6hIzKVh50Po+2duGwTyNUHde6URS71NFPWZ/vwtlBkc2Hg9GQNxduzZL6AUbtFH2azPawDaVjgIO2XTjAMRwcT7zGhSt24E3NcU/24TpSJB7B7KjUklJpsV4ZYLId4YQIw8V0Ns1C1u5W7jkmBz+YsAFE4WJWzRYRdGMQDVKWTbmug+8E5XTMYGAaKjY3HNdnJts+OyX5XjgagUo2qzIAz3HUa4ZUdnOYaqcTiz3HE/oMOEYch13tbEnB7g6jsSyAS6qNw/dypBFl8SRxk3ISw4w6B8coAsRxWsCUKNIjbGA8xUzitcM/hMaMYhYXSVKm8SAchOO0fkCShgOWviiE9znM05IE0LEsNONgs8OMA4AOFZEnV2sZ504LhxMkGWAPs5RXT3A76sXxaoTHHZvScgYdCbfSC+Bw4FKBYUVHk/o3NA6HsFexY4J6+BMuFexYuOTvYFCG4ciII0cchWfEMR4pUi9CUsa5svvUBxWDJfRnGC2F3TGB6XE+jqkoLjNYxfZmxF8bhx/g5AgXaVN3Mo0G4Zw9/lTHERSwZMOWL0uhYz2zYwA42E6v4yDO7LcdKXNcB8ZKwW+zRLbo1ysHvgdRJiqHrW0FjrHEEcRj3F7galkTB1gF7D2X8UWaA9HjJU51HYeVzoejaFGKWHXwh4qDaGsH4rA7OGyS8I/WKvFjC5e4lOZJKaRIWkupQ8sjYLZ3IEeYDlbgCCUOL1lEI7huA3ddHAFOqMFwVj+2FB/zi9fO3i8dHHZQjUcDmM5EwTHqwTEYGWcH1MgeIR3UxuyEbbSeJSJtal6OhiNVcKy6WNTZYR817+26OF6HbH8Wq/seTJbR3ocODkJhTYOLmPgCB1hR4bSLwwYcsNEallLuvzRh2HRUm2FKZLUVSWfvFuCQtvJqHMraEfgzxHF2ARxLtpOHumz9bsCxgIkIu7iIpNt/qDh8DccQ7Y4OjlaKvsDRm6KPNlhowhE4Tmv+s0rbOOwpx+HoZpgRh4vtLcdD3MgWuowtt5WiX+NYpETU7DQ4Win6fHawT8TiZhjHoaeqe7XPcv552Hp2TITlStnaEXvGLHi0OxCHKHb4xdJW5jj8Tj6/l6LhleGnBuKDCdgZF5BJt71gNsZtljTFXlLjCFoj8XDtGOwUfPCBNWE4bE9ziinMX4NHazczpfk82vIIccRWXe7apMbRUm5cuMkAlrMs4O6TG7i404IJpLpwrurCkbZXVsDiOxwVgqin9VlR9nIgCr3nH4TmBhxHMwWbPpCE4eDlgWulzGdxSethNyvCP9xnT2ZoFc0Cfm/BpwoOQ/gHfhlljXPteBM0jXZw917XwQc7Y4Rmjq2wk31WHfzlHDuW8GiY08HROPj1ztLggA36uMZxuWgYM4sGE54b5ZM1cAR1V1xK0QKKFs4FcHjV1hBH2dyX6ccB/tEoDFOvxuF6JXZUGE4Kjhg87ONU4IjnAyOO9aJh5QI9gyk4zvioJkLOwvNwLFg0DLuCJ1FiXAi2lsEFcFgp1A+/ojz0gsr8Mm/hcMHRHkTDCY+Z1DgqRw6Qd82PmefUDNDC/zaOSRfHepF0uEbhIs1SijE1z42jQT8OXHjDzOeBBuZ/R1lpXQQHhSUS2qsSvIWID0ihxbQ22Vs4PLYJRWimo8kUFGjOVkQOkHeNuXrD4+Yqmhyjzz0J/EvedsJwBwYuFrM8jquMebTn4QAn8wg/KeIoYt2Naudv/eBgCTsoePXRbIknj/OjxdbO0oTDItUxhn32RlW8zPMZ82ir5t6CVA6S6ZgFGhLgmywjsHq3KvC4L3ufpRiNhyNY38bj+XiMTvUKHAB/jFKHf5a1eXKBWOkkijCENGaP0NoaR6O5GYflVlshC9DtgRprLhQfYqIoBwUCjuYYhBntYQBlMTGEjte+KVlkY2Y6D0Z1yCk87sNRLMbhsIkjwoCjwVLEbNfGYU3+YLWAx41e9zA87sFhlVUYsfaYcz4Mw8gwO3CgC1TDNymCPuGFjxtlBwfYv+N1IulunNXBOhaGGy2ySQ+OJIeLSSgOslyYsxeKpCfVAqNcKNheZlw7WFE6U9oLF1lDv6Vc5gukhTKETnksAUbBASYNmBBg/g7XiaQHQZnGsxl+Ksa0itNJyX5n+jxav5jE1ayWfKnEGnsi6cr5W9VK9CfLapotAPzRLE5Lr+lzV9lFzen0iLU3KYXj0P482iKNK5R8WVBuP7YedhNg9s+y0MLOffa6Z9EkYYekE8wp6VXG7SBhUiau1/N0nQAsZWakE8/cHigECRjpKZAvfa/7ZBypjO3xiIXsmEHZ82zWLdh5ml/JFH1+8DWov3ueoq9n3QvqRmXlfIDyJptrDqjPfRabGk8e4HlY1hZPSDo3Rd/XPMlznqLPXRaZH2TVeeB4ObVS9JsbeN1UOfyNMVXUaafo8zrayg5XVjsNHu0WWJRtj7bpWytF32n6oYV/uB/QTtFvVoxWXikbt7OpKfpeurM3vs86bnDQhC1b5OZy0tfIK/1/0DReczIszqYAAAAASUVORK5CYII=;" vertex="1" parent="1">
          <mxGeometry x="-5575" y="-1540" width="87.56" height="48" as="geometry" />
        </mxCell>
      </root>
    </mxGraphModel>
  </diagram>
</mxfile>
